<svg width="154" height="154" viewBox="0 0 154 154" fill="none" xmlns="http://www.w3.org/2000/svg">
<path fill-rule="evenodd" clip-rule="evenodd" d="M59.3339 99.6927C45.0406 99.7915 34.7596 99.8688 34.7596 99.8741C9.36128 99.8741 9.35516 100.019 9.31687 100.863L9.31611 100.872V100.874C9.30998 101.004 9.30539 101.111 9.34367 101.2C9.5351 101.649 10.8146 101.633 18.5344 101.536C23.4188 101.476 30.8805 101.383 42.2749 101.355H59.0843C59.1563 100.827 59.2413 100.263 59.3332 99.6927H59.3339ZM79.6969 101.355L79.661 101.113C79.576 100.549 79.4948 100.033 79.4182 99.5587C84.0775 99.528 88.8425 99.4982 93.5722 99.4691C93.4259 100.059 93.2759 100.674 93.112 101.355H79.6969ZM133.83 101.355H125.508C125.376 100.792 125.207 100.099 125.008 99.2953C132.48 99.2608 138.508 99.2417 142.005 99.2463V99.247C142.681 99.2478 143.083 99.5847 143.083 100.116C143.083 101.178 142.359 101.291 133.83 101.355Z" fill="#191919"/>
<path d="M68.9256 91.6817C66.7533 91.6817 66.6079 88.3823 68.9578 88.3823C71.1783 88.3823 71.1944 91.6817 68.9256 91.6817Z" fill="#191919"/>
<path d="M29.5128 39.7491C30.2854 39.8295 30.3015 40.795 31.0419 40.151C32.2648 39.0883 32.7318 40.0867 31.9914 40.6334C30.7043 41.5844 32.6798 41.6618 32.12 42.4527C31.8934 42.7736 31.4761 42.5171 31.2188 42.2598C30.5909 41.6319 30.4508 42.2192 29.4967 42.7269C29.1284 42.9229 28.7065 42.6779 28.9171 42.099C29.0289 41.7927 30.156 41.3746 29.1261 40.4734C28.8528 40.2001 29.1422 39.7491 29.5121 39.7491H29.5128Z" fill="#191919"/>
<path d="M35.1614 40.3767C36.4003 40.3683 36.3682 42.0988 35.2097 42.0988C34.1316 42.0988 33.9547 40.3852 35.1614 40.3767Z" fill="#191919"/>
<path d="M80.5446 77.5846C72.5139 77.6305 52.6547 77.8105 51.5284 77.7936C46.2014 77.7155 46.415 78.6627 46.5398 73.2232C46.5544 72.58 47.023 72.4207 47.5858 72.4192C89.1235 72.2813 88.9374 71.3893 89.1066 72.5953C89.2956 73.9059 89.3709 75.2304 89.3317 76.5539C89.2965 77.616 89.4604 77.5333 80.5446 77.5838V77.5846ZM65.2719 73.0141C64.3385 73.0011 64.8317 73.4161 64.7727 76.2814C64.7551 77.1665 64.7888 76.8732 72.1272 76.7806C89.2506 76.5631 88.6235 77.054 88.5905 76.2814C88.4657 73.3686 88.687 72.6933 87.8984 72.7568C86.8846 72.8388 68.2804 73.0562 65.2712 73.0141H65.2719ZM60.8393 73.4207C60.8255 73.0838 60.7198 73.0172 60.2022 73.0463C59.8806 73.0647 59.5284 72.9498 59.5583 73.5134C59.7466 77.0494 59.2551 77.0325 60.2505 76.9896C60.7589 76.9674 60.9036 77.0118 60.9335 76.5226C60.9564 76.1443 60.8462 73.5876 60.8393 73.4215V73.4207ZM54.7466 76.6512C54.742 77.1344 55.1004 77.021 55.3584 77.021C55.6157 77.0049 55.9794 77.1497 55.9702 76.6673C55.9028 73.1274 56.0682 73.2346 55.7451 73.1267C54.2872 72.6397 54.7711 73.9797 54.7474 76.6512H54.7466ZM50.0154 76.6351C49.9855 77.0861 50.1922 77.142 50.5628 77.1504C50.9648 77.1589 51.108 77.0379 51.0942 76.619C50.9817 73.2882 51.3193 73.0095 50.595 73.0463C49.484 73.1029 50.2229 73.5463 50.0154 76.6351Z" fill="#38A1FF"/>
<path d="M64.5965 66.3196C64.8377 65.6275 64.4012 64.6833 63.7274 64.436C63.598 64.3893 63.6753 64.3135 60.8951 65.4827C59.8315 65.9299 60.0995 65.4054 58.7389 62.2477C58.5452 61.7974 58.5949 61.5256 59.0605 61.3135C59.8668 60.9483 60.6378 60.4942 61.4586 60.1397C62.1991 59.8181 61.8446 59.1902 61.9418 58.691C62.1669 57.5325 58.3376 57.5486 59.0773 55.923C60.366 53.0914 60.1393 52.3341 61.0727 52.7361C61.8936 53.0899 62.7297 53.3655 63.5352 53.7499C64.1462 54.0409 64.3231 53.4743 64.6776 53.2668C64.9824 53.0883 65.0245 53.07 63.9051 50.4337C63.5697 49.645 64.1531 49.8073 67.317 48.4712C67.8813 48.233 67.9847 48.3548 69.0712 50.7239C69.3951 51.4306 71.5276 51.8326 72.1287 49.9191C72.7665 47.8892 73.5444 48.9229 74.1241 49.1144C74.912 49.3739 75.6708 49.7208 76.4419 50.0156C76.8132 50.158 76.8783 50.4023 76.7313 50.756C75.4916 53.74 75.7175 52.9766 76.3936 53.8456C76.7313 54.2798 76.827 54.0845 79.4993 52.9283C80.3194 52.5738 80.2627 53.1672 81.559 56.2591C81.8018 56.8387 81.7972 56.9789 79.0644 58.2553C78.7122 58.4199 78.5835 58.609 78.5812 59.0118C78.5728 60.4283 78.5468 60.4176 79.8844 61.0072C81.1371 61.5585 81.5858 61.681 81.3653 62.2622C79.9373 66.0172 80.1432 66.0088 79.3699 65.7224C76.1562 64.5333 76.902 64.4153 75.765 65.3365C75.3821 65.6466 75.3477 65.763 76.5858 68.1849C77.0154 69.0241 76.4947 68.9368 73.4319 70.4207C73.0307 70.616 72.7405 70.5662 72.5146 70.1481C71.0199 67.3786 71.0176 67.3641 70.4227 67.3801C69.2481 67.4123 69.2542 67.3985 68.8132 68.4743C68.0666 70.2967 67.9763 70.727 67.1715 70.4376C62.9556 68.9215 63.3101 70.0034 64.5965 66.3173V66.3196ZM70.245 54.5554C67.5735 54.3786 65.0145 56.7438 65.0467 59.3671C65.1271 65.9651 75.3706 65.8204 75.3461 59.2063C75.337 56.792 72.948 54.3946 70.2443 54.5554H70.245Z" fill="#38A1FF"/>
<path d="M50.3536 63.8089C50.2732 63.423 50.6445 62.8073 49.8865 62.5217C48.8903 62.1465 48.1024 64.2744 47.4883 63.3104C46.7188 62.1006 45.8956 61.8471 46.6675 61.2185C47.8114 60.2866 47.888 60.1572 47.7617 59.802C47.5159 59.1113 47.3757 59.1703 46.6514 59.0615C45.5419 58.8946 45.4806 58.8533 45.6858 57.7261C45.7678 57.2759 45.5557 56.7269 45.911 56.4229C46.3275 56.0669 46.8918 56.5784 47.7938 56.4551C48.1637 56.4045 48.5128 56.0248 47.9546 55.3287C47.1591 54.3364 47.1644 54.3448 48.1958 53.5263C49.4163 52.5577 49.1529 52.6503 50.0626 53.6549C50.4684 54.1028 50.8352 54.0584 51.3336 53.9443C52.2356 53.7376 51.3497 51.8371 52.702 52.1419C54.5687 52.5623 54.6882 51.694 54.4562 53.864C54.4271 54.1381 54.5871 54.2621 54.8099 54.3793C55.1675 54.5661 55.3099 54.364 56.3873 53.462C56.8865 53.0439 56.9332 53.56 58.1093 54.8785C58.7847 55.6358 56.6055 55.8785 57.0151 57.341C57.1415 57.792 57.4975 57.7116 57.8038 57.7751C58.8176 57.9865 59.0266 57.6787 58.9462 58.8372C58.8651 60.0118 59.0588 60.5899 58.3666 60.511C56.9347 60.3471 56.6897 60.3165 56.4677 60.7361C56.2387 61.1687 56.4355 61.3318 56.6285 61.5569C57.2617 62.2966 57.2188 62.9781 56.4998 63.6006C55.6338 64.3433 55.6277 64.3433 54.7938 63.5524C54.4225 63.1994 54.1193 62.6871 53.4255 62.9888C53.2004 63.0868 53.0879 63.1335 53.0718 63.3908C52.9761 64.9199 52.9592 65.1404 52.4118 65.1129C50.1277 64.9972 50.352 65.354 50.352 63.8096L50.3536 63.8089ZM52.3329 61.3303C56.179 61.2989 56.3237 55.6641 52.4294 55.7139C48.5993 55.7621 48.2448 61.364 52.3329 61.3303Z" fill="#38A1FF"/>
<path d="M81.8327 52.318C81.7362 51.9803 82.1565 51.3624 81.4146 51.0952C81.0938 50.9796 80.8977 50.9803 80.6259 51.1916C79.2974 52.2253 79.2959 52.233 78.2599 50.9183C77.7002 50.2077 77.6933 50.2062 78.3724 49.5668C79.1098 48.8716 79.3862 48.746 79.2094 48.1985C78.7415 46.7506 76.3495 49.1373 77.3265 45.0768C77.3924 44.8034 77.5202 44.8471 79.0968 45.0124C79.5478 45.0599 80.0118 44.5959 79.596 44.0783C79.4666 43.9175 79.3694 43.7261 79.2423 43.5637C78.6894 42.8593 78.6803 42.857 79.4192 42.2766C80.6443 41.3134 80.6481 41.3042 81.7691 42.3731C82.2055 42.7889 83.1198 42.5178 83.266 41.9228C83.5853 40.6189 83.5884 40.6763 85.0203 40.7643C85.9858 40.8233 86.165 40.7184 85.9536 42.406C85.9092 42.7605 86.3863 43.2245 86.8549 42.8402C88.0409 41.8677 88.2086 41.664 88.5448 42.1158C89.8082 43.8157 90.0547 43.5936 89.1244 44.4657C88.5593 44.9941 88.2209 45.1426 88.4322 45.6242C88.7507 46.3501 88.6895 46.2046 89.2209 46.3164C90.1543 46.5117 90.5509 47.086 90.4116 48.0385C90.237 49.2138 90.2347 49.1962 89.0432 49.0362C88.8021 49.004 88.5432 48.9512 88.3028 49.004C87.8985 49.0929 87.7691 49.6656 88.0295 50.0017C88.9697 51.2162 89.2033 51.0952 88.2546 51.9328C87.1435 52.9129 87.1359 52.9229 86.0662 51.8685C85.8066 51.6128 85.5823 51.3172 85.1167 51.4826C84.7615 51.6082 84.632 51.756 84.5693 52.1587C84.2882 53.9604 84.7301 53.6825 82.8311 53.6557C81.544 53.6365 81.8334 53.4466 81.8334 52.3203L81.8327 52.318ZM83.7798 49.8716C87.6259 49.8555 87.8028 44.2146 83.9085 44.2391C80.0624 44.2621 79.7561 49.8884 83.7798 49.8716Z" fill="#38A1FF"/>
<path d="M70.1808 62.3118C66.3347 62.2804 66.2543 56.7559 70.4059 56.808C74.0108 56.8532 74.1555 62.344 70.1808 62.3118Z" fill="#38A1FF"/>
<path fill-rule="evenodd" clip-rule="evenodd" d="M94.9979 94.0746C90.7161 94.0884 85.4619 94.1282 79.0155 94.2408C78.8279 94.2438 78.7008 94.2385 78.628 94.2982C78.3638 94.5164 78.811 95.5984 79.6433 101.113C79.8194 102.281 79.873 102.738 80.1265 102.925C80.3133 103.063 80.6081 103.055 81.1403 103.076C84.7291 103.217 86.1732 105.247 85.8394 106.037C85.8042 106.121 85.7766 106.19 85.7337 106.248C85.38 106.724 83.9711 106.417 68.4105 106.778L63.8952 106.885C52.4196 107.163 52.0138 107.173 52.3974 106.134C52.8545 104.897 53.8293 104.248 55.0529 103.945C56.5636 103.571 57.4717 103.538 58.0215 103.518C58.6899 103.494 58.8301 103.489 58.8829 102.915C59.0774 100.791 59.7627 96.9276 60.17 95.142C60.2068 94.9827 60.2543 94.8656 60.2206 94.7829C60.0766 94.4284 58.448 94.6788 48.1164 94.8204C32.7549 95.0317 30.4716 94.9889 28.9693 94.9605C28.3989 94.9498 27.9402 94.9406 26.9218 94.949C23.1875 94.9789 23.173 93.0631 23.1048 84.4842C23.0941 82.7529 23.0737 81.0216 23.0436 79.2905C22.9463 73.9957 22.7243 55.4887 22.7059 49.1319C22.6998 47.0974 22.686 45.3363 22.6737 43.8102C22.5994 34.5797 22.5949 33.9695 24.846 33.7466C26.2947 33.6027 109.93 33.1701 111.975 33.9074C112.074 33.9434 112.166 33.9741 112.252 34.0177C113.12 34.4572 113.333 36.1931 113.381 57.3585C112.705 57.2636 111.39 57.3478 108.655 57.4451L108.662 56.0515C108.72 43.7995 108.72 43.7957 107.968 43.8049C92.7406 43.981 91.0324 44.1364 90.8264 43.6525C90.8003 43.5912 90.7988 43.5185 90.7965 43.4351C90.7843 42.9603 91.027 42.9641 91.3034 42.968H91.3762L108.113 42.7911C108.596 42.7911 108.594 42.7283 108.57 41.543C108.56 41.0323 108.545 40.3125 108.563 39.2987C108.568 39.0001 75.0024 38.873 51.0919 38.7819C38.9402 38.7359 29.2825 38.7 27.7909 38.6548V38.6556C27.2756 38.6402 27.0543 38.7528 27.0826 39.3638C27.1377 40.5453 27.1408 41.3738 27.1431 41.9557C27.1469 43.2612 27.1477 43.3179 27.7266 43.3064H70.5361C70.8133 43.3041 71.1961 43.298 71.6433 43.2911C74.3516 43.2452 79.3876 43.1594 77.138 43.8087C75.9986 44.138 71.1586 44.1556 50.598 44.2314C46.4043 44.2467 41.5559 44.2651 35.9517 44.288C28.9869 44.3171 27.5826 44.0147 27.3085 44.4412C27.2373 44.5507 27.2419 44.7084 27.2449 44.932L27.6148 74.9137C27.6378 77.0271 27.6263 78.5562 27.6178 79.6603C27.5964 82.5248 27.5964 82.5332 28.2587 82.4773C34.7021 81.9344 77.4197 81.7109 98.2996 81.6205C97.8348 83.3816 97.4229 84.9368 97.0561 86.3211C66.7505 86.511 50.9801 86.8005 41.5988 86.9735C32.7572 87.1358 29.5903 87.194 25.2802 86.9659C24.7488 86.9383 24.604 87.0945 24.6362 87.6098C24.6722 88.1864 24.6975 88.7124 24.7212 89.191C24.8621 92.0784 24.9195 93.2546 26.7281 93.5968L26.8958 93.6274C28.0137 93.8219 29.2028 93.6098 79.9649 92.6152V92.6144C81.9902 92.5746 88.6035 92.5302 95.4183 92.4881L94.9979 94.0746ZM76.2628 104.122H76.2635C76.651 104.043 76.6387 103.719 76.6234 103.291C76.6198 103.198 76.6177 103.105 76.6173 103.012L76.5576 102.545C76.2827 100.396 75.968 97.9383 75.4749 95.8985C75.249 94.9651 72.801 94.2415 74.6701 100.469C75.7957 104.218 75.8615 104.204 76.2628 104.122Z" fill="#191919"/>
<path d="M86.3868 108.033C87.033 105.941 87.9802 103.252 90.1685 103.269C92.2926 103.285 92.6594 103.333 92.824 102.641C94.7612 94.5042 94.4105 96.6221 104.299 58.6748C104.592 57.5492 104.636 57.5607 105.78 57.5323C114.002 57.3279 113.864 56.9397 114.228 58.2567C114.291 58.4826 124.865 97.7982 125.8 102.513C126.137 104.219 130.909 100.223 132.333 107.502C132.497 108.338 131.899 108.82 131.127 108.821C85.18 108.95 85.8745 109.691 86.3875 108.033H86.3868ZM122.081 92.6313C121.72 91.4107 120.96 88.3051 120.391 86.2744C120.264 85.8181 120.256 85.7185 119.184 85.7514C117.914 85.7905 102.191 86.3472 98.811 86.0975C98.1349 86.0478 98.4419 86.0455 96.5254 93.1305C96.347 93.7898 96.8631 93.4996 97.9741 93.4682C122.95 92.776 122.397 93.6956 122.082 92.6313H122.081ZM124.077 107.003C131.206 106.941 131.449 107.292 131.045 106.343C130.484 105.023 129.742 103.945 128.277 103.977C87.7872 104.848 89.7535 102.498 87.8998 106.6C87.4342 107.631 86.5966 107.131 100.935 107.115C108.659 107.107 116.369 107.069 124.077 107.003ZM116.642 74.4941C117.659 74.511 117.199 74.4528 115.371 67.2521C115.191 66.5446 115.274 66.8616 108.306 66.8823C103.767 66.8953 103.358 66.5454 103.333 67.2039C103.321 67.5262 102.121 71.7606 101.595 73.9957C101.485 74.4627 101.139 74.6082 102.427 74.6434C103.539 74.6741 114.63 74.4612 116.642 74.4934V74.4941Z" fill="#38A1FF"/>
</svg>
