<svg width="154" height="154" viewBox="0 0 154 154" fill="none" xmlns="http://www.w3.org/2000/svg">
<path d="M63.2196 72.7989C63.0266 72.2315 61.5174 68.527 60.7065 66.8478C60.3773 67.5055 58.9017 69.0484 58.0962 69.2475C58.1728 69.6051 58.4193 70.6771 58.5617 71.4145C60.1401 71.7845 61.6954 72.2468 63.2196 72.7989Z" fill="#38A1FF"/>
<path d="M75.1459 115.776C72.3281 115.865 69.5555 116.509 66.9872 117.671C64.8938 118.514 52.542 123.797 50.6469 124.219C50.3069 124.296 50.1821 123.836 50.4539 123.652C53.3361 121.89 69.7109 115.408 72.5831 114.942C72.4016 114.511 70.7277 107.453 72.2821 108.701C72.8495 109.149 73.1842 114.023 73.2868 114.863C76.1911 114.545 89.4387 115.209 93.144 115.334C92.4013 112.095 91.5276 108.355 91.1585 107.391C89.8193 107.232 72.6168 107.016 70.3418 107.067C66.2001 107.163 53.088 112.741 49.4171 114.965C48.2372 115.68 47.2953 115.39 47.0235 115.033C39.1183 104.597 24.6501 72.3678 25.8247 61.8944C25.8699 61.4687 26.5399 61.5483 26.5567 61.9618C27.0506 76.6061 40.4162 101.871 47.8612 114.413C48.9056 113.482 54.0176 111.274 55.4755 110.661C52.8881 109.838 49.8015 106.526 49.1775 103.252C41.2347 100.613 39.1803 85.411 41.3366 77.2041C42.1536 74.0769 46.7609 71.6435 49.6652 71.7851C49.6652 71.3035 49.558 69.0109 49.6652 67.099C48.4799 67.1755 44.5595 66.8608 44.8259 62.8148C44.3353 62.8064 43.8539 62.6808 43.4218 62.4483C42.9897 62.2159 42.6195 61.8834 42.3421 61.4786C42.0648 61.0738 41.8884 60.6086 41.8276 60.1217C41.7668 59.6348 41.8234 59.1405 41.9928 58.6799C39.6267 58.6799 27.4289 59.3377 25.5958 60.2068C23.7627 61.0758 20.0061 65.3577 19.5305 67.5079C19.055 69.658 20.3307 76.3189 29.1785 97.4021C38.0264 118.485 42.038 124.497 45.7341 124.861C48.3375 125.116 63.5147 125.184 68.6213 124.861C68.4628 124.214 67.1174 121.262 66.6863 119.646C66.2552 118.03 73.1374 116.209 73.6367 117.661C74.512 119.988 75.2173 122.375 75.747 124.804C76.7424 124.804 82.2211 124.701 85.1262 124.645C88.0313 124.588 93.2956 121.638 94.3684 120.401C94.2489 120.004 93.8745 118.359 93.4204 116.356C87.9042 116.191 80.3711 115.78 75.1459 115.776Z" fill="#38A1FF"/>
<path d="M92.5695 75.1029C91.6339 75.2845 90.6876 75.4057 89.7364 75.4658C89.3397 75.4658 77.6741 72.9389 77.1787 73.0546C76.6833 73.1702 75.3517 78.9207 74.5293 81.7745C77.4061 79.4008 77.4796 76.7821 80.3487 78.3709C81.5685 79.0516 82.5333 81.8656 82.3174 83.0739C82.1014 84.2822 79.9521 88.084 76.9107 90.9087C77.6879 90.3865 82.7538 86.6368 86.329 84.4767C86.3963 84.4002 88.5495 77.7086 89.1031 76.6243C89.1329 76.5769 89.178 76.5411 89.231 76.523C89.284 76.5048 89.3416 76.5055 89.3942 76.5248C89.4468 76.5441 89.4911 76.5808 89.5198 76.6289C89.5485 76.677 89.5598 76.7335 89.5518 76.789C88.8367 79.1826 88.025 81.5486 87.2823 83.9323L89.9768 82.6972C90.7709 80.4766 91.5994 78.4536 92.4217 76.2461C92.5695 75.8494 93.029 75.9061 92.8873 76.3027C92.1438 78.3793 91.4462 80.4161 90.6805 82.4874C92.2872 81.9913 94.0244 82.1441 95.5198 82.9131C95.7358 82.4759 100.819 71.0943 100.711 71.027C100.603 70.9596 92.8184 75.0002 92.5695 75.1029Z" fill="#38A1FF"/>
<path d="M148.841 142.584C129.998 142.584 14.9308 142.967 4.3509 143.091C3.74981 143.091 3.61352 144.043 4.23757 144.043C23.0741 144.145 138.13 143.765 148.706 143.703C149.414 143.697 149.562 142.584 148.841 142.584Z" fill="#191919"/>
<path d="M43.9971 56.9923C41.5974 58.0306 42.7429 62.6662 46.0056 62.0077C45.2337 64.6877 47.4803 67.0346 50.7377 65.6165C50.5616 66.9266 50.2553 71.1825 50.508 72.4245C49.9406 72.5776 49.4245 72.4873 49.4413 72.9467C49.4413 73.6052 50.9046 73.1963 51.1435 72.9467C51.3824 72.6971 51.3135 70.5868 51.3304 70.1135C51.4437 66.9021 51.7791 65.0866 52.142 61.961C52.2553 61.0077 51.6535 61.3936 51.2002 60.2588C50.6642 58.9081 51.7676 57.6431 53.044 58.4716C53.3786 58.6868 55.3703 57.49 55.6712 55.5948C57.8435 56.8828 60.0794 58.1217 62.6775 58.1538C62.264 60.1677 59.6912 68.746 56.3741 68.1334C55.0295 67.8899 54.2186 66.3462 53.6451 65.2627C53.6089 65.2142 53.5584 65.1782 53.5007 65.1599C53.443 65.1416 53.381 65.1418 53.3234 65.1606C53.2658 65.1794 53.2156 65.2157 53.1797 65.2645C53.1439 65.3133 53.1243 65.3722 53.1237 65.4327C53.3618 67.0553 54.9162 68.9389 56.5273 69.0017C57.2708 73.217 56.7087 72.6159 58.1108 72.9735C58.9959 73.1948 59.8635 73.4612 60.7601 73.6312C60.851 73.6476 60.9448 73.6299 61.0234 73.5813C61.102 73.5328 61.1599 73.4569 61.1859 73.3683C61.2119 73.2796 61.2043 73.1845 61.1644 73.1012C61.1245 73.0178 61.0553 72.9522 60.9699 72.9168C59.9316 72.5929 58.8711 72.3494 57.8152 72.0822C57.6222 71.027 57.4323 69.9719 57.2478 68.9167C59.3359 68.3095 61.0833 65.0415 61.9003 63.2428C62.352 63.3933 62.8339 63.4301 63.3033 63.3501C63.7726 63.27 64.215 63.0756 64.5914 62.7839C64.9678 62.4923 65.2665 62.1124 65.4611 61.6778C65.6558 61.2433 65.7404 60.7675 65.7074 60.2925C67.977 60.928 70.0023 58.3782 68.6064 55.8391C71.0467 56.0206 72.6915 51.8673 70.3086 50.3581C73.0322 48.6559 70.6325 45.3044 68.7006 45.4108C69.9885 41.8648 66.9984 40.3954 64.0427 42.08C63.362 37.3142 58.6981 38.2108 57.6253 40.2132C56.3037 37.38 52.7178 38.5117 52.1956 40.8602C50.8173 38.8915 44.9788 41.5072 46.5561 45.4445C43.3623 44.3725 41.8585 47.7761 43.7934 50.1766C41.4496 50.3596 40.7359 56.2036 43.9971 56.9923Z" fill="#191919"/>
<path d="M58.562 63.9595C59.18 63.9663 59.6455 63.4372 59.4296 63.2052C59.2137 62.9732 59.1065 63.3691 58.7833 63.4349C58.4062 63.4743 58.0267 63.3864 57.7052 63.1853C57.206 62.9556 57.3193 63.9457 58.562 63.9595Z" fill="#191919"/>
<path d="M55.8553 63.0291C55.3262 62.7948 54.9648 64.6004 56.4909 65.2413C57.2566 65.5652 57.7566 64.85 57.2742 64.7313C56.474 64.5437 56.0544 64.1639 55.9518 63.5965C55.912 63.3354 56.0253 63.1042 55.8553 63.0291Z" fill="#191919"/>
<path d="M57.7273 60.4648C57.552 59.9364 56.8085 61.0322 57.2112 61.2925C57.614 61.5529 57.8353 60.7251 57.7273 60.4648Z" fill="#191919"/>
<path d="M58.4823 58.2005C58.1021 58.0758 57.6906 58.0856 57.3167 58.2282C56.9428 58.3708 56.6293 58.6376 56.4287 58.9838C56.2411 59.7894 57.1944 58.7541 58.0114 58.8644C59.0367 58.9838 58.637 58.2541 58.4823 58.2005Z" fill="#191919"/>
<path d="M60.8538 59.5513C61.3079 59.7726 61.4212 60.1975 61.5177 60.2404C61.8293 60.3537 61.8239 59.866 61.716 59.673C61.6596 59.5141 61.5684 59.3699 61.4492 59.2506C61.33 59.1314 61.1857 59.0403 61.0268 58.9839C60.5682 58.9326 60.6493 59.4372 60.8538 59.5513Z" fill="#191919"/>
<path d="M60.2925 61.9962C60.6447 62.1073 60.7351 61.4288 60.6838 61.2137C60.5682 60.572 59.8109 61.8454 60.2925 61.9962Z" fill="#191919"/>
<path d="M75.6055 82.9659C76.411 82.2852 78.4386 80.0953 78.5221 79.1427C78.5231 79.1159 78.5188 79.0891 78.5095 79.0639C78.5001 79.0387 78.4859 79.0156 78.4676 78.9959C78.4494 78.9762 78.4274 78.9603 78.403 78.9491C78.3785 78.9379 78.3521 78.9316 78.3253 78.9306C78.2747 78.9283 78.2252 78.9453 78.1867 78.9781C77.2791 80.206 76.2735 81.3584 75.1797 82.4238C74.7651 82.7363 74.3848 83.0918 74.0449 83.4843C73.9262 83.616 73.9423 84.3718 75.6055 82.9659Z" fill="#191919"/>
<path d="M74.4482 90.8904C77.0179 89.5566 79.4629 86.6522 80.8534 84.0825C81.1012 83.7052 81.2779 83.2859 81.3749 82.8451C81.3749 82.6246 81.103 82.4255 80.9729 82.6353C78.4766 86.6805 78.1022 87.2418 74.1641 90.4938C74.1259 90.5361 74.1033 90.5902 74.1 90.6471C74.0968 90.704 74.1131 90.7603 74.1463 90.8066C74.1795 90.853 74.2275 90.8866 74.2825 90.9018C74.3374 90.9171 74.3959 90.913 74.4482 90.8904Z" fill="#191919"/>
<path d="M79.5577 79.1986C79.2354 79.3311 78.2185 81.2239 78.0316 81.5417C77.5947 82.2675 77.0891 82.9495 76.5217 83.5785C76.2383 83.8963 76.7943 84.8665 78.5707 81.9514C78.8088 81.5593 79.9773 79.8173 79.926 79.3633C79.9115 79.1818 79.6963 79.1427 79.5577 79.1986Z" fill="#191919"/>
<path d="M79.7468 83.0801C80.047 82.5702 80.8816 81.1115 80.7231 80.5671C80.6266 80.2608 80.2797 80.4024 79.9911 80.9928C79.3753 82.4073 78.5884 83.7409 77.648 84.9638C77.4941 85.1621 77.6518 86.6369 79.7468 83.0801Z" fill="#191919"/>
<path d="M70.8623 86.2685C70.822 86.3121 70.7968 86.3675 70.7903 86.4265C70.7837 86.4856 70.7963 86.5451 70.8261 86.5965C70.8559 86.6479 70.9013 86.6883 70.9558 86.712C71.0103 86.7356 71.0709 86.7412 71.1288 86.7279C73.262 86.1613 72.3715 83.1191 72.8815 81.9728C73.1487 81.3664 73.7666 80.629 73.7666 80.129C73.7664 80.0568 73.7376 79.9877 73.6865 79.9367C73.6354 79.8858 73.5662 79.8572 73.494 79.8572C73.4486 79.8579 73.404 79.8695 73.3639 79.8909C72.9142 80.3357 72.5524 80.8612 72.2972 81.4399C71.5997 82.8297 72.1502 83.9247 71.821 85.0035C71.6181 85.5021 71.2874 85.9384 70.8623 86.2685Z" fill="#191919"/>
<path d="M64.4681 77.077C64.2062 76.8802 63.9459 77.3212 64.1557 77.531C66.7032 80.0579 69.0861 80.6291 69.6137 84.2035C69.92 86.251 70.6918 85.7747 70.42 84.107C69.8809 80.783 68.0845 79.7975 64.4681 77.077Z" fill="#191919"/>
<path d="M46.1475 100.123C47.1175 101.19 48.3111 102.028 49.643 102.58C49.643 103.107 52.1446 108.323 55.4127 109.575C55.4833 109.589 55.5563 109.579 55.6213 109.549C55.6863 109.518 55.7399 109.468 55.7746 109.405C55.8092 109.342 55.8231 109.27 55.8142 109.198C55.8053 109.127 55.7741 109.06 55.7251 109.008C53.4769 107.374 51.6584 105.22 50.4256 102.729C51.2585 102.885 52.1052 102.955 52.9524 102.939C60.6349 102.695 67.3479 97.5375 72.861 92.5451C73.0593 92.369 73.0425 92.1477 72.9912 91.8812C72.9912 91.8812 72.4805 88.4026 70.7216 87.1039C70.1205 86.6613 70.1856 86.7524 69.6894 87.0411C64.821 89.8329 60.118 92.7151 54.3989 93.1063C52.555 87.5166 52.5267 85.5151 52.6232 81.6796C52.6232 81.2715 52.0106 81.407 51.9593 81.7477C51.6017 84.2271 52.2939 90.4685 53.8996 93.0949C53.2189 93.1293 52.5321 93.1462 51.8399 93.163C51.5221 93.163 51.3689 93.6852 51.7319 93.7587C57.8997 94.9954 65.2468 90.5649 70.2568 87.45C71.4543 88.739 72.1541 90.4121 72.2308 92.1699C67.1251 96.6524 61.2352 101.248 54.2366 101.986C50.8888 102.349 48.96 102.117 46.6789 99.4587C43.5135 95.771 42.708 89.5044 42.43 85.2065C42.0893 79.4138 42.5066 75.4597 48.2395 73.7858C50.7924 78.0738 59.7681 78.763 62.5583 74.1036C65.4458 74.7392 68.828 77.4115 71.1029 79.7768C71.6703 80.3442 72.8557 79.2898 67.3471 75.7185C66.8532 75.3946 62.2406 72.6143 62.0813 73.6189C62.0813 73.6189 58.4732 78.9353 51.3016 75.5707C48.5894 74.2943 48.885 72.8471 48.2387 73.0286C42.4461 74.6519 41.3281 78.2354 41.5211 83.8948C41.6765 88.8383 42.3795 95.9893 46.1475 100.123Z" fill="#191919"/>
<path d="M124.297 99.834C125.072 99.422 132.313 94.7956 132.807 94.9204C132.966 94.9602 132.903 94.8522 132.914 95.0628C132.925 95.2734 126.482 104.31 125.828 105.275C124.387 107.369 123.673 106.41 121.464 105.4C120.936 105.162 120.641 105.967 121.152 106.242C122.735 107.025 124.34 108.148 125.758 106.69C125.929 106.509 133.486 96.0008 133.702 95.281C133.748 95.1439 133.759 94.9974 133.734 94.8549C133.709 94.7125 133.648 94.5786 133.558 94.4656C133.467 94.3527 133.35 94.2642 133.217 94.2084C133.083 94.1526 132.938 94.1313 132.794 94.1463C131.614 94.1463 125.026 98.481 123.971 99.2865C123.666 99.4879 123.969 100.008 124.297 99.834Z" fill="#191919"/>
<path d="M104.944 141.609C108.245 141.385 111.752 141.779 115.156 141.677C115.768 141.677 117.046 141.677 116.705 140.656C116.433 139.867 115.446 139.584 114.753 139.323C112.285 138.382 109.971 137.15 107.491 136.231C106.955 136.032 106.544 136.832 107.083 137.031C109.732 137.995 112.223 139.3 114.873 140.247C116.053 140.518 116.278 140.889 114.796 140.921C111.114 140.998 107.454 140.524 103.77 140.882C101.636 141.091 100.876 141.111 100.678 140.28C100.604 139.395 100.649 138.503 100.813 137.63C100.813 137.313 100.371 137.273 100.246 137.511C99.7913 138.463 99.6676 139.539 99.8945 140.569C100.28 142.386 103.457 141.71 104.944 141.609Z" fill="#191919"/>
<path d="M67.583 119.605C67.9153 121.643 75.1972 136.342 76.5533 138.947C78.7486 143.163 79.594 142.425 78.437 138.221C76.6835 131.848 75.0724 124.668 72.8472 118.55C72.7109 118.181 72.1267 118.402 72.2117 118.765C73.5846 124.513 76.002 131.815 77.6812 139.231C75.2133 134.515 70.8051 125.091 68.1381 119.373C67.9957 119.085 67.5255 119.255 67.583 119.605Z" fill="#191919"/>
<path d="M50.352 126.602C49.0641 130.302 47.8611 134.029 46.6245 137.751C45.1206 142.29 45.1092 144.23 47.963 138.727C50.1192 134.574 53.3819 127.947 53.9202 126.773C54.1193 126.348 53.3926 125.978 53.1775 126.403C51.2857 130.186 49.4058 133.968 47.538 137.751C48.7402 134.104 49.9944 130.472 51.146 126.806C51.2655 126.325 50.4653 126.19 50.352 126.602Z" fill="#191919"/>
<path d="M15.0279 136.946C19.6987 125.724 24.8887 114.587 30.0971 103.584C30.3268 103.114 29.6316 102.676 29.3988 103.153C24.3267 113.547 19.7087 123.987 15.0447 134.563C19.175 122.285 22.7662 110.319 27.2088 96.2542C27.3451 95.8285 26.6016 95.5735 26.4546 96.01C21.8756 109.48 18.0118 123.204 13.3088 136.769C10.7437 144.173 12.1832 143.774 15.0279 136.946Z" fill="#191919"/>
<path d="M83.94 40.4076C88.947 41.1687 95.2136 41.4176 100.394 41.6848C101.767 41.7614 101.993 41.5654 102.368 40.4306C103.593 37.1442 103.791 33.563 102.935 30.1616C101.874 26.3767 99.0376 23.117 95.0658 22.3942C95.6879 20.8022 96.2277 19.1793 96.683 17.5319C97.2559 17.555 97.8147 17.3511 98.2382 16.9645C105.235 22.5442 112.4 27.9102 119.723 33.0552C119.618 33.3491 119.571 33.6609 119.586 33.9729C119.601 34.2848 119.677 34.5907 119.81 34.8731C119.944 35.1555 120.131 35.4088 120.363 35.6185C120.594 35.8282 120.865 35.9902 121.159 36.0951C121.2 36.1097 121.243 36.1235 121.284 36.1357C120.994 55.3414 121.091 75.0799 122.016 94.2848C122.016 94.4247 122.071 94.5589 122.17 94.6579C122.269 94.7568 122.404 94.8124 122.543 94.8124C122.683 94.8124 122.818 94.7568 122.917 94.6579C123.015 94.5589 123.071 94.4247 123.071 94.2848C122.535 74.8472 122.152 55.738 122.322 36.272C122.787 36.2496 123.229 36.0591 123.564 35.736C125.187 36.8708 126.815 37.9489 128.438 39.0554C129.005 39.452 129.573 38.5194 129.005 38.1304C127.361 37.0523 125.727 35.9609 124.105 34.8562C124.203 34.5804 124.246 34.2879 124.231 33.9954C124.217 33.7029 124.145 33.4162 124.019 33.1517C123.894 32.8871 123.717 32.6498 123.5 32.4534C123.283 32.257 123.029 32.1053 122.753 32.007C122.614 31.9577 122.469 31.9221 122.323 31.9005C122.323 30.8171 122.295 29.7328 122.256 28.644C122.245 28.5616 122.205 28.4859 122.143 28.431C122.081 28.3761 122 28.3459 121.917 28.3459C121.835 28.3459 121.754 28.3761 121.692 28.431C121.63 28.4859 121.59 28.5616 121.579 28.644C121.503 29.716 121.443 30.7941 121.398 31.8668C121.026 31.9085 120.67 32.0399 120.36 32.2497C112.984 27.1041 105.83 21.6828 98.7994 16.1138C99.0579 15.6243 99.1226 15.0555 98.9808 14.5204C98.8389 13.9854 98.5008 13.5234 98.0337 13.2263L99.0667 9.93373C99.2596 9.32116 98.3354 8.90078 98.1424 9.52484C97.7841 10.6596 97.4211 11.7944 97.0636 12.9637C96.5045 12.9405 95.9548 13.113 95.5092 13.4514C93.6829 11.9476 91.8437 10.4559 89.898 9.13356C89.8364 9.09069 89.7609 9.07249 89.6865 9.08253C89.6121 9.09258 89.5441 9.13015 89.496 9.18784C89.448 9.24552 89.4233 9.31912 89.4268 9.39412C89.4303 9.46913 89.4619 9.54008 89.5151 9.59298C91.1918 11.2516 92.9671 12.8073 94.8315 14.2516C94.6655 14.5038 94.5555 14.7887 94.5089 15.0871C94.4623 15.3854 94.4802 15.6903 94.5614 15.9811C94.6426 16.2719 94.7852 16.542 94.9796 16.773C95.174 17.0041 95.4157 17.1908 95.6883 17.3206C95.1197 18.9574 94.6341 20.6219 94.2335 22.3077C91.7895 22.1149 89.3487 22.7188 87.2766 24.029C85.2045 25.3392 83.6124 27.2852 82.7386 29.5758C81.5994 32.5335 81.4856 35.788 82.4154 38.818C82.8557 39.8693 82.8917 40.2484 83.94 40.4076ZM83.4576 31.0659C86.0457 22.0734 98.0559 20.1162 101.613 29.585C102.947 33.154 102.368 37.1143 101.108 40.6151C95.2477 40.5656 89.3942 40.2001 83.5732 39.5202C83.0548 36.4305 82.5104 34.36 83.4576 31.069V31.0659Z" fill="#191919"/>
<path d="M123.655 108.696C123.655 108.362 122.708 108.282 122.714 108.656C122.714 118.2 122.651 126.671 122.651 134.902C121.159 135.584 118.021 137.858 116.292 139.015C117.994 139.822 118.192 140.911 117.994 141.591C118.907 141.649 132.824 141.7 134.657 141.591C136.302 141.496 126.515 135.879 123.843 134.869C123.786 126.529 123.735 117.571 123.655 108.696Z" fill="#191919"/>
<path d="M90.7372 103.806C93.7702 109.472 98.0789 129.84 99.1287 136.514C102.131 136.443 105.114 136.006 108.011 135.212C107.863 133.776 104.607 115.326 102.939 103.179C101.724 94.101 99.9312 93.8628 98.5743 93.6132C94.8177 92.9095 86.96 104.716 84.7754 106.094C86.4776 105.953 88.3896 106.202 90.8345 106.185C90.591 105.47 90.3529 104.755 90.1254 104.035C90.1059 103.956 90.1158 103.873 90.1534 103.802C90.191 103.73 90.2536 103.675 90.3293 103.647C90.405 103.618 90.4884 103.619 90.5638 103.648C90.6392 103.677 90.7012 103.733 90.738 103.805L90.7372 103.806Z" fill="#191919"/>
<path d="M97.925 92.6056C101.477 92.6056 102.6 95.5842 103.196 99.7206C104.11 99.9358 114.192 103.772 119.429 106.007C120.128 104.826 122.062 100.26 123.117 98.6992C121.203 97.9901 97.2289 83.2953 92.4792 83.2953C85.1039 83.2953 62.5398 104.401 59.3169 108.646C68.7237 105.422 72.1908 105.956 82.8565 106.28C86.6628 103.97 92.7679 92.6056 97.925 92.6056Z" fill="#191919"/>
<path d="M79.4858 72.8333C81.2469 73.0447 83.0846 72.4589 84.9047 72.6519C87.0442 73.0053 89.1094 73.7147 91.0144 74.7507C91.5366 74.9949 91.5366 74.1833 92.9547 73.3096C94.771 72.2146 98.1294 71.7721 99.1401 70.6656C99.2695 70.5239 99.1401 70.2345 98.9472 70.3371C98.2225 70.7288 97.4626 71.0516 96.6776 71.3011C95.1507 71.7835 92.0588 72.2659 91.1055 73.9566C88.7854 72.8731 87.0656 72.1411 84.9721 71.9819C83.3503 71.857 80.6496 72.3961 78.923 72.2376C78.6519 72.2146 78.3625 72.6978 79.4858 72.8333Z" fill="#191919"/>
</svg>
