<svg width="35" height="35" viewBox="0 0 35 35" fill="none" xmlns="http://www.w3.org/2000/svg">
<path d="M34.0741 17.037C34.0741 26.4463 26.4463 34.0741 17.037 34.0741C7.62774 34.0741 0 26.4463 0 17.037C0 7.62774 7.62774 0 17.037 0C26.4463 0 34.0741 7.62774 34.0741 17.037ZM17.6477 12.5776C15.9905 13.2668 12.6787 14.6934 7.71203 16.8573C6.90553 17.178 6.48304 17.4917 6.44458 17.7985C6.37958 18.317 7.02888 18.5212 7.91304 18.7992C8.03331 18.837 8.15792 18.8762 8.28568 18.9177C9.15556 19.2005 10.3257 19.5313 10.934 19.5444C11.4858 19.5563 12.1017 19.3289 12.7816 18.862C17.4221 15.7295 19.8175 14.1462 19.9679 14.1121C20.074 14.088 20.2211 14.0577 20.3207 14.1463C20.4203 14.2348 20.4105 14.4025 20.4 14.4475C20.3356 14.7217 17.7869 17.0912 16.468 18.3174C16.0568 18.6997 15.7651 18.9708 15.7055 19.0328C15.5719 19.1715 15.4358 19.3027 15.305 19.4288C14.4969 20.2079 13.8908 20.7921 15.3385 21.7461C16.0343 22.2046 16.591 22.5837 17.1464 22.9619C17.7529 23.375 18.3579 23.787 19.1406 24.3001C19.3401 24.4308 19.5305 24.5666 19.716 24.6988C20.4219 25.202 21.0561 25.6541 21.8396 25.5821C22.2948 25.5402 22.7651 25.1121 23.0039 23.8354C23.5683 20.8181 24.6777 14.2806 24.9341 11.5867C24.9566 11.3506 24.9283 11.0486 24.9056 10.916C24.8829 10.7834 24.8355 10.5944 24.6631 10.4546C24.459 10.2889 24.1439 10.254 24.0029 10.2565C23.3622 10.2678 22.379 10.6096 17.6477 12.5776Z" fill="#1293FA"/>
</svg>
