<svg width="36" height="36" viewBox="0 0 36 36" fill="none" xmlns="http://www.w3.org/2000/svg">
<path d="M17.7773 0C27.5957 0 35.5556 7.95904 35.5557 17.7773C35.5557 27.5957 27.5957 35.5557 17.7773 35.5557C14.7032 35.5556 11.8114 34.7747 9.28906 33.4014L0 35.5557L2.30957 26.5459C0.839758 23.9585 0 20.9658 0 17.7773C0.000107782 7.95918 7.95921 0.000225178 17.7773 0ZM17.7773 2.73438C9.46973 2.7346 2.73546 9.4697 2.73535 17.7773C2.73535 20.985 3.73929 23.9588 5.4502 26.4004L4.10254 31.4531L9.24414 30.167C11.6687 31.8401 14.6087 32.8202 17.7773 32.8203C26.0852 32.8203 32.8203 26.0852 32.8203 17.7773C32.8202 9.46956 26.0852 2.73438 17.7773 2.73438ZM11.6074 8.75C12.2623 8.74998 12.9104 8.67494 13.333 9.52344C13.6711 10.2026 14.0873 11.3688 14.5781 12.7617C14.6922 13.0856 14.8822 13.6057 14.6426 13.9482C14.403 14.2908 13.8693 14.9804 13.4824 15.4268C13.3833 15.5411 13.1844 15.803 13.4551 16.2295C13.7932 16.7625 13.8992 17.3613 15.6943 19.1016C17.146 20.5088 18.9675 21.3191 19.6396 21.5889C19.8222 21.6924 20.2614 21.8315 20.5557 21.5576C20.8499 21.2837 21.709 20.0655 22.1426 19.6523C22.2977 19.5115 22.5476 19.2532 23.0254 19.4443C23.5035 19.6357 25.6048 20.6544 26.7441 21.2012C26.9282 21.2596 27.1953 21.4746 27.1953 21.9053C27.1953 22.8769 26.5079 25.7538 23.165 25.8135C19.8218 25.873 15.7944 24.1242 12.7295 20.7441C9.55371 17.2418 8.61133 14.9005 8.61133 12.7617C8.61142 10.1521 10.4368 8.75 11.6074 8.75Z" fill="#1293FA"/>
</svg>
