<svg width="154" height="154" viewBox="0 0 154 154" fill="none" xmlns="http://www.w3.org/2000/svg">
<path d="M32.4183 67.6879C30.3279 55.4367 44.6657 44.187 57.227 52.8831C69.2224 61.1871 63.3266 82.0563 46.8135 81.08C39.7124 80.6581 33.8349 75.9904 32.4183 67.6879ZM48.4467 72.7415C48.5547 73.4253 48.5095 73.482 47.7989 73.5072C44.671 73.6167 43.2905 70.3204 42.4972 71.1106C42.1909 71.4107 42.5286 72.0294 42.7055 72.2339C45.606 75.6267 48.0394 74.6412 48.6374 75.0424C49.2354 75.4437 48.6764 77.1236 49.4712 77.0279C50.0608 76.9567 50.0616 76.446 49.8541 75.3189C49.619 74.0616 51.8594 74.9643 53.3541 71.6695C54.6726 68.7637 53.8372 66.1779 49.1305 65.2913C48.3135 65.1381 48.6044 65.2782 47.6481 58.4444C47.5884 58.0171 47.756 57.9497 48.1297 57.9849C49.3754 58.076 50.5787 58.4766 51.6305 59.1503C51.8257 59.2813 52.0585 59.5462 52.2744 59.2767C53.0065 58.3624 49.7231 57.0003 47.9398 56.9321C47.1236 56.9015 47.266 56.5347 47.1067 55.1136C47.0386 54.5087 46.3211 54.4895 46.3303 55.1564C46.351 56.6618 46.7024 56.8716 45.9475 57.0707C42.1572 58.0921 40.6243 62.8954 43.8877 64.9053C46.841 66.7246 47.24 65.2476 47.6098 66.6925C47.792 67.4245 48.3066 71.8571 48.4467 72.7415Z" fill="#38A1FF"/>
<path d="M46.5372 43.8616C46.7079 45.5178 47.456 47.7805 46.2363 47.9658C44.8963 48.1679 44.9476 45.5722 44.8963 44.3524C44.8603 43.4811 44.796 39.4956 45.3932 39.4627C45.9216 39.4336 46.4514 43.3302 46.5372 43.8616Z" fill="#38A1FF"/>
<path d="M52.0913 48.2882C51.8762 47.0631 55.1059 42.171 55.6656 42.3418C56.4903 42.5944 54.3142 48.2943 53.4719 48.8732C53.3539 48.9756 53.2096 49.0429 53.0553 49.0673C52.901 49.0917 52.7429 49.0724 52.5991 49.0114C52.4552 48.9505 52.3314 48.8504 52.2416 48.7225C52.1519 48.5947 52.0998 48.4442 52.0913 48.2882Z" fill="#38A1FF"/>
<path d="M39.5148 50.0561C39.661 50.8831 39.0201 51.1097 38.4964 50.8371C37.3065 50.2154 33.7215 45.9826 34.099 45.6135C34.6717 45.0545 39.5102 49.4933 39.5148 50.0561Z" fill="#38A1FF"/>
<path d="M46.8256 64.8794C39.0506 63.5356 46.298 56.227 46.6533 58.7997C47.5445 65.2653 47.5415 65.0034 46.8256 64.8794Z" fill="#38A1FF"/>
<path d="M49.4642 72.2132C48.6219 66.3365 48.5653 66.3365 49.1679 66.4774C54.6419 67.7538 52.6993 71.5188 50.2988 72.943C49.6005 73.3587 49.6174 73.2776 49.4642 72.2132Z" fill="#38A1FF"/>
<path fill-rule="evenodd" clip-rule="evenodd" d="M94.7485 120.184C94.9821 111.571 93.3634 102.598 91.564 92.6206L91.5203 92.3787C90.9962 92.7966 90.4812 93.226 89.9759 93.6666C93.9598 118.552 94.8136 127.5 87.7148 131.22C79.9866 135.269 72.5057 136.463 66.6917 137.357C65.1672 137.591 63.5516 137.855 61.8724 138.129C45.4497 140.812 22.9657 144.485 20.52 131.162C20.1287 129.048 19.728 126.936 19.3179 124.825C18.5116 120.643 17.7046 116.461 17.046 112.256C16.2405 107.118 15.4802 102.278 14.7643 97.7187L14.762 97.7049L14.7604 97.6957C3.71368 27.3922 3.15472 23.8363 10.7099 20.2145C15.2091 18.0568 18.3018 17.1264 39.9635 14.8117C41.2575 14.6739 42.8808 14.4786 44.72 14.2581C53.5225 13.203 67.2698 11.5544 73.5172 12.6678C78.1014 14.546 78.3419 16.2137 83.4368 51.5653L83.7776 53.9313C84.673 60.134 85.6077 66.3309 86.5816 72.5218C87.1047 72.2025 87.6347 71.8947 88.1712 71.5983C87.5241 67.1592 86.8784 62.72 86.2339 58.2805C83.4192 38.9098 82.5647 33.0331 80.7071 22.3462C78.299 8.48704 76.5057 8.52992 45.0753 11.6762C45.0454 11.6762 41.9474 12.0024 42.1564 12.059C39.138 12.4656 36.3294 12.824 33.7215 13.1563C10.046 16.1754 2.83925 17.0943 3.9342 33.1242C4.67157 43.9068 17.1349 129.541 19.8439 135.039C23.458 142.377 35.3455 143.72 43.4459 142.74C69.583 139.576 78.4108 137.714 85.812 134.308C93.0946 130.96 94.5311 128.197 94.7485 120.184ZM82.1658 75.5501C78.5264 48.9099 74.4437 20.1946 73.8503 20.2627C73.1305 20.3447 77.0348 48.4788 78.8105 61.2713L79.2913 64.7438C79.8656 68.9107 80.4039 72.8418 80.9077 76.5394C81.3222 76.2034 81.7415 75.8736 82.1658 75.5501ZM83.995 99.2095C86.4322 116.933 87.5333 123.731 88.067 120.002C88.0019 119.252 86.8419 110.324 85.2087 98.0892C84.8067 98.466 84.4024 98.8404 83.995 99.2095ZM62.5478 91.4123C58.9337 91.9721 54.9689 92.6336 51.6465 93.1872L51.6404 93.1888L48.9267 93.6398C46.743 94.0012 44.8915 94.299 43.3241 94.5509C35.7666 95.7669 34.7919 95.9238 34.8769 97.0226C34.9779 98.66 35.2194 100.286 35.599 101.882C35.7506 102.805 36.3333 102.691 36.9389 102.573C37.0308 102.556 37.1227 102.537 37.2131 102.523L39.589 102.148C39.6909 101.681 39.7919 101.231 39.8907 100.801C39.125 100.912 38.4703 101.005 37.9535 101.073C37.8486 101.087 37.7544 101.102 37.6702 101.115C37.3846 101.159 37.2031 101.187 37.0745 101.118C36.8516 100.997 36.785 100.586 36.602 99.4614C36.527 98.9989 36.4328 98.4154 36.2996 97.6819C36.1763 97.0042 36.5599 96.685 50.4267 94.698L56.9773 93.6926C56.9651 93.7209 56.952 93.7485 56.9405 93.7768C58.9877 93.4873 61.0329 93.1846 63.0761 92.8687C62.864 92.3971 62.6874 91.9103 62.5478 91.4123ZM65.3472 96.7638C65.6343 97.1719 65.9421 97.5908 66.2721 98.0203C64.23 98.3458 61.6259 98.7439 58.3058 99.2508L56.4934 99.528C56.4366 99.0933 56.3939 98.6569 56.3655 98.2194C59.6611 97.6888 62.8234 97.175 65.3472 96.7638ZM45.8831 18.3431C44.9581 18.1372 44.4872 19.4465 45.6733 19.798C45.7697 19.8137 45.8683 19.8101 45.9633 19.7874C46.0583 19.7646 46.1478 19.7231 46.2266 19.6653C46.3054 19.6075 46.3719 19.5346 46.4222 19.4509C46.4725 19.3671 46.5056 19.2742 46.5195 19.1775C46.5335 19.0808 46.528 18.9822 46.5034 18.8877C46.4788 18.7931 46.4357 18.7044 46.3764 18.6267C46.3172 18.549 46.243 18.4839 46.1583 18.4353C46.0736 18.3866 45.98 18.3552 45.8831 18.3431ZM39.9321 19.9189C40.4374 17.837 42.5768 18.5973 42.3693 20.0797C42.1243 21.8263 39.9933 21.566 39.9321 19.9189ZM12.1946 29.7436C14.7581 40.9412 26.8394 129.318 26.8332 129.289C26.9802 130.046 26.1893 130.315 26.0315 129.452C26.0262 129.423 12.1364 40.7353 11.5391 29.8171C11.4917 28.9519 11.8546 28.2635 12.1938 29.7436H12.1946ZM83.9407 125.098C78.554 127.048 52.5814 136.454 29.0568 131.596C28.4626 132.849 35.282 133.94 36.8057 134.102C63.3372 136.905 88.9177 123.715 84.9031 124.761C84.7868 124.792 84.459 124.91 83.9407 125.098ZM64.6221 18.5629C64.7063 18.5782 70.8663 17.7911 71.1129 17.1999C70.5463 16.4549 65.5991 17.2329 64.7453 17.3937C57.5432 18.1892 56.8257 19.448 56.0906 20.7367C55.7315 21.3661 55.3686 22.0024 54.2453 22.5958C50.6197 24.5116 42.3647 25.3263 38.2667 25.4542C33.3876 25.6066 31.9389 24.3516 30.6832 23.2643C29.7705 22.4741 28.9603 21.7727 27.0109 21.762C22.9603 21.7398 12.1915 24.5338 12.6157 25.6196C12.7535 25.9733 14.0813 25.5744 16.0637 24.9787C18.8248 24.1494 22.8569 22.9389 26.7168 22.8462C28.6816 22.7995 29.4703 23.5407 30.3784 24.3945C31.3509 25.3087 32.4611 26.3516 35.2996 26.6916C38.6985 27.105 45.1036 26.6303 49.756 25.6196C52.9313 24.9304 55.9061 23.9603 57.5255 20.8424C57.6465 20.7352 57.7552 20.6356 57.8556 20.5453H57.8563C58.158 20.2712 58.3831 20.0667 58.6343 19.9006C59.3793 19.4067 60.3494 19.2505 64.2009 18.631L64.6221 18.5629Z" fill="white"/>
<path d="M114.355 85.0272C112.052 85.9928 108.566 84.9261 101.487 87.0655C88.7346 90.92 85.6319 100.791 75.2039 105.098C74.7283 105.323 74.1936 105.391 73.677 105.292C73.1603 105.193 72.6884 104.933 72.3294 104.548C68.3309 100.864 63.1877 95.4752 62.37 90.0563C62.1732 88.7546 63.6717 89.1673 67.8562 86.7577C78.0324 80.9031 75.9979 79.4636 85.0684 73.4896C90.6901 69.7875 97.3962 67.0256 103.957 68.5187C108.136 69.4697 115.249 82.6995 113.943 83.2891C113.134 83.6535 110.83 77.4437 104.699 70.4942C103.796 69.4697 95.9107 68.8196 86.7192 74.4759C79.7514 78.7638 77.4466 83.4223 69.174 87.6359C63.5277 90.5127 63.1747 89.9499 63.4351 90.7677C65.4175 97.0035 71.9879 102.553 73.1365 103.704C73.3034 103.895 73.531 104.022 73.7808 104.063C74.0306 104.105 74.2872 104.06 74.5071 103.934C82.3119 100.778 86.6266 91.6329 97.1588 86.7248C104.4 83.3519 112.35 83.2707 114.355 85.0272Z" fill="#38A1FF"/>
<path d="M81.9053 84.4928C81.5385 81.8297 84.1097 81.5111 82.9972 79.76C82.8402 79.5134 82.5929 79.1344 82.9122 78.9391C83.2904 78.7094 83.3992 79.2041 83.5699 79.4177C84.5837 80.6888 84.4888 79.142 86.8463 79.0203C87.0715 79.0088 87.3732 78.9705 87.4298 79.2439C87.4972 79.5747 87.1434 79.5433 86.9543 79.593C86.181 79.796 84.2583 80.5157 84.7208 81.214C86.4367 83.8075 86.2338 83.9085 86.8104 83.7707C89.037 83.2393 91.0156 83.8366 90.2606 85.9981C89.6565 87.7278 88.5699 87.4836 89.2208 88.3925C90.2323 89.8037 89.6136 90.1138 88.7805 88.8573C88.0278 87.7217 87.648 89.2577 85.2652 89.2401C85.0615 89.2401 84.7453 89.2853 84.7039 88.9836C84.6725 88.7539 84.9505 88.7539 85.1082 88.6773C87.501 87.4461 87.7323 87.4828 87.3563 86.9828C86.037 85.2278 86.1427 84.8488 85.5056 85.0869C84.2269 85.5663 82.1924 86.5739 81.9053 84.4928ZM83.9443 84.7294C85.0929 84.322 85.5523 84.2937 85.2292 83.7921C84.0201 81.9346 84.0087 81.3587 83.6212 81.9032C83.1785 82.5053 82.9067 83.2159 82.8348 83.9598C82.7721 84.6926 83.0316 84.9032 83.9443 84.7294ZM87.7621 84.4759C86.7223 84.6291 86.7575 84.5379 88.0868 86.5954C88.1779 86.7363 88.2606 86.9698 88.5041 86.7661C88.763 86.5757 88.9803 86.3344 89.1429 86.0572C89.3055 85.78 89.4099 85.4725 89.4497 85.1536C89.5225 84.3205 88.5148 84.4729 87.7621 84.4759Z" fill="#38A1FF"/>
<path d="M75.651 101.374C73.3539 101.059 65.7558 91.4163 67.2612 90.6705C67.6218 90.4921 67.5813 90.538 70.131 94.4025C72.2176 97.5717 75.1862 100.154 75.6517 101.374H75.651Z" fill="#38A1FF"/>
<path d="M108.982 81.2507C108.437 80.8794 105.638 76.4337 102.918 72.9184C102.765 72.7193 102.527 72.4513 102.812 72.2094C103.814 71.3633 109.176 79.7285 108.982 81.2507Z" fill="#38A1FF"/>
<path d="M78.8866 83.7577C78.5559 85.6137 70.6301 90.4193 70.2342 89.639C69.941 89.051 70.5635 89.4568 78.8866 83.7577Z" fill="#38A1FF"/>
<path d="M149.225 42.0607C149.358 43.9903 149.187 45.9275 148.717 47.8035C148.151 50.2326 147.056 52.507 145.511 54.4651C136.957 66.4345 121.752 64.3081 115.971 72.7592C115.242 73.8235 114.641 73.678 114.41 73.0455C112.478 67.7109 109.45 57.4957 107.618 55.2621C106.863 54.3433 107.363 53.6343 108.168 53.0914C116.357 47.5623 129.004 50.1595 133.39 35.2445C133.955 33.3202 134.444 33.5691 135.524 34.0339C137.371 34.8333 149.24 40.2759 149.225 42.0607ZM148.316 42.7261C148.163 41.4566 135.523 35.3111 135.331 35.2123C133.468 34.2521 135.748 38.2751 129.33 45.1541C124.115 50.7438 117.346 49.609 109.245 53.9413C107.642 54.7989 110.353 54.171 114.196 68.2492C114.579 69.6397 114.968 72.4253 115.574 71.4238C121.625 61.4092 145.122 65.7622 148.316 42.7261Z" fill="#38A1FF"/>
<path d="M132.821 56.544C130.74 53.6113 131.51 54.0172 129.198 54.7829C127.781 55.2538 126.789 54.3625 127.082 52.8824C127.576 50.387 128.932 50.4444 128.405 49.4528C127.55 47.8449 128.142 47.5003 128.999 48.9681C129.388 49.6343 129.476 48.8763 131.187 48.3158C132.46 47.8985 133.171 48.4804 132.253 48.7231C131.469 48.9242 130.727 49.2639 130.063 49.7262C129.45 50.1534 129.862 50.2178 131.322 52.6358C131.711 53.2798 131.903 52.789 133.514 52.7829C135.547 52.7752 136.047 54.0279 135.189 55.7185C134.665 56.7499 133.839 56.7867 134.372 57.5034C135.367 58.8403 134.699 58.9429 134.453 58.6382C132.736 56.5057 133.859 58.093 130.931 58.3893C130.586 58.4245 129.916 58.4973 129.867 58.1527C129.844 57.9728 129.821 58.0639 132.821 56.5447V56.544ZM129.145 53.8947C130.379 53.446 130.688 53.423 130.475 53.0754C129.101 50.838 129.131 50.6726 128.825 51.0447C128.359 51.6498 128.081 52.3781 128.025 53.1397C127.941 53.8701 128.201 54.07 129.148 53.8947H129.145ZM132.453 54.423C133.295 55.8334 133.285 55.9674 133.584 55.9544C134.131 55.9253 135.631 53.6366 133.681 53.6328C131.943 53.6267 132.111 53.8433 132.456 54.423H132.453Z" fill="#38A1FF"/>
<path d="M116.386 66.8862C115.198 64.3418 115.386 63.377 111.787 55.2591C111.644 54.9375 111.189 54.4811 111.674 54.2392C112.146 54.0041 112.257 54.6297 112.419 54.9398C113.654 57.3027 116.644 63.6121 116.875 66.923C116.88 67.0218 116.795 67.7645 116.386 66.8862Z" fill="#38A1FF"/>
<path d="M145.942 43.7062C144.144 42.7559 144.082 42.8233 135.922 38.1211C135.678 37.981 135.206 37.8348 135.368 37.5086C135.859 36.5239 146.321 43.148 145.942 43.7062Z" fill="#38A1FF"/>
<path d="M129.61 60.7102C117.245 64.9759 117.928 66.1367 117.571 65.7569C116.655 64.7844 127.599 59.9682 129.61 60.7102Z" fill="#38A1FF"/>
<path d="M47.1122 103.082C45.1597 102.333 45.9085 100.464 44.2952 100.561C44.0655 100.575 43.7178 100.601 43.7041 100.309C43.6888 99.9644 44.067 100.079 44.2783 100.041C45.5249 99.8311 44.4368 99.3112 45.2393 97.6581C45.3159 97.505 45.4032 97.2806 45.6099 97.3449C45.8626 97.4215 45.7079 97.6512 45.6696 97.8005C45.5165 98.4031 45.2868 99.9843 45.9361 99.9315C48.3503 99.7354 48.3419 99.9116 48.4629 99.472C48.9376 97.7546 50.0892 96.6298 51.2776 97.9567C52.2301 99.0195 51.6536 99.6673 52.518 99.5647C53.8588 99.4054 53.8389 99.9437 52.6712 100.039C51.6145 100.126 52.518 100.958 51.6145 102.582C51.5379 102.72 51.4476 102.953 51.2317 102.868C51.0617 102.802 51.1673 102.614 51.1712 102.475C51.2271 100.382 51.345 100.238 50.8611 100.306C49.1689 100.545 48.9514 100.331 48.8741 100.856C48.7163 101.905 48.639 103.669 47.113 103.082H47.1122ZM48.0395 101.781C48.1926 100.843 48.3457 100.518 47.8863 100.555C46.1658 100.68 45.7676 100.473 45.9935 100.938C46.2375 101.466 46.6195 101.918 47.0992 102.246C47.5724 102.568 47.8159 102.468 48.0395 101.783V101.781ZM49.3029 99.0815C49.015 99.8472 48.966 99.7829 50.8695 99.6573C50.9997 99.6489 51.1895 99.6811 51.1421 99.4376C51.1097 99.1894 51.0271 98.9505 50.8994 98.7353C50.7717 98.52 50.6016 98.333 50.3993 98.1857C49.858 97.8242 49.5839 98.5685 49.3029 99.0815Z" fill="#38A1FF"/>
<path d="M47.1122 103.082C45.1597 102.333 45.9085 100.464 44.2952 100.561C44.0655 100.575 43.7178 100.601 43.7041 100.309C43.6888 99.9644 44.067 100.079 44.2783 100.041C45.5249 99.8311 44.4368 99.3112 45.2393 97.6581C45.3159 97.505 45.4032 97.2806 45.6099 97.3449C45.8626 97.4215 45.7079 97.6512 45.6696 97.8005C45.5165 98.4031 45.2868 99.9843 45.9361 99.9315C48.3503 99.7354 48.3419 99.9116 48.4629 99.472C48.9376 97.7546 50.0892 96.6298 51.2776 97.9567C52.2301 99.0195 51.6536 99.6673 52.518 99.5647C53.8588 99.4054 53.8389 99.9437 52.6712 100.039C51.6145 100.126 52.518 100.958 51.6145 102.582C51.5379 102.72 51.4476 102.953 51.2317 102.868C51.0617 102.802 51.1673 102.614 51.1712 102.475C51.2271 100.382 51.345 100.238 50.8611 100.306C49.1689 100.545 48.9514 100.331 48.8741 100.856C48.7163 101.905 48.639 103.669 47.113 103.082H47.1122ZM48.0395 101.781C48.1926 100.843 48.3457 100.518 47.8863 100.555C46.1658 100.68 45.7676 100.473 45.9935 100.938C46.2375 101.466 46.6195 101.918 47.0992 102.246C47.5724 102.568 47.8159 102.468 48.0395 101.783V101.781ZM49.3029 99.0815C49.015 99.8472 48.966 99.7829 50.8695 99.6573C50.9997 99.6489 51.1895 99.6811 51.1421 99.4376C51.1097 99.1894 51.0271 98.9505 50.8994 98.7353C50.7717 98.52 50.6016 98.333 50.3993 98.1857C49.858 97.8242 49.5839 98.5685 49.3029 99.0815Z" fill="#38A1FF"/>
<path d="M59.1552 114.632C59.1368 114.632 45.8182 113.766 39.9637 116.255C39.7325 116.353 39.4806 116.392 39.2305 116.369C38.9804 116.346 38.7398 116.262 38.5303 116.124C38.3205 115.985 38.1486 115.797 38.03 115.575C37.9114 115.354 37.8499 115.106 37.8511 114.855C37.8702 107.713 40.9246 96.626 41.0601 96.1344L42.3848 95.9108C40.4292 102.986 38.4032 114.568 39.2056 115.098C39.5663 115.337 45.5808 112.383 58.6697 113.386C58.4714 110.682 53.4025 99.5035 55.9408 93.861L56.9775 93.691C54.123 100.039 61.966 114.145 59.1552 114.632Z" fill="#38A1FF"/>
</svg>
