<svg width="81" height="81" viewBox="0 0 81 81" fill="none" xmlns="http://www.w3.org/2000/svg">
<path d="M38.3903 37.714C38.3742 38.8597 38.4674 40.0043 38.6685 41.1323C39.3723 44.8438 42.9193 41.1725 44.8569 42.5117C45.6483 43.0586 45.2554 45.5825 45.734 46.5248C46.4337 47.9025 48.165 46.9929 49.281 47.1469C49.9843 47.2442 50.592 47.6532 51.3183 47.6617C51.5246 47.6725 51.7295 47.6229 51.9081 47.5191C52.0867 47.4152 52.2311 47.2616 52.3237 47.0769C52.7282 46.2682 52.1741 45.5849 52.2545 44.8048C52.3184 44.1798 53.0323 43.8545 52.8718 43.1093C52.8191 42.8628 51.9525 41.7259 52.1608 41.4978C52.3277 41.3149 52.8187 41.5807 52.9546 41.6792C54.2347 42.6042 53.9741 44.6724 54.6489 45.9726C55.1472 46.9334 56.0396 47.6488 55.9443 48.8243C55.7766 50.8917 54.3525 51.6683 55.5244 54.0744C56.0428 55.1385 57.1909 55.7104 57.8304 56.6824C58.241 57.3073 58.6749 61.4254 59.737 59.3072C60.4781 57.8285 59.7173 54.3426 59.4864 52.6677C58.952 48.7945 57.7918 43.6401 54.7897 40.8041C53.0681 39.179 50.9061 38.3759 48.804 37.4051C46.3911 36.2916 44.0184 35.2186 41.4414 34.5422C40.3934 34.2667 39.1845 33.7576 38.5459 34.9443C38.716 34.6435 38.531 34.6283 38.3903 37.714Z" fill="#38A1FF"/>
<path d="M31.5151 31.3531C31.5651 31.3643 31.6183 31.3588 31.6714 31.337C31.7246 31.3152 31.7767 31.2774 31.8247 31.226C31.8727 31.1745 31.9157 31.1103 31.9513 31.0371C31.9868 30.9639 32.0142 30.8831 32.0318 30.7994C32.0494 30.7156 32.0569 30.6307 32.0538 30.5493C32.0507 30.468 32.0372 30.3919 32.0139 30.3254C31.9907 30.2589 31.9582 30.2034 31.9183 30.162C31.8785 30.1207 31.832 30.0942 31.7817 30.0843C31.7316 30.0731 31.6785 30.0786 31.6253 30.1004C31.5722 30.1222 31.5201 30.1599 31.4721 30.2114C31.424 30.2629 31.381 30.3271 31.3455 30.4003C31.3099 30.4735 31.2826 30.5543 31.265 30.638C31.2474 30.7217 31.2399 30.8067 31.243 30.8881C31.246 30.9694 31.2596 31.0455 31.2828 31.112C31.3061 31.1784 31.3386 31.234 31.3784 31.2753C31.4183 31.3167 31.4647 31.3431 31.5151 31.3531Z" fill="white"/>
<path d="M30.7827 34.2333L30.7787 34.2378C30.8398 34.3311 30.9267 34.0391 30.9798 33.9583C31.2382 33.5291 31.5437 33.1301 31.8907 32.7687C31.9049 32.744 31.924 32.7224 31.9467 32.7052C31.9695 32.688 31.9955 32.6756 32.0232 32.6687C32.0508 32.6618 32.0796 32.6606 32.1078 32.6651C32.1359 32.6696 32.1629 32.6797 32.1871 32.6949C32.2112 32.71 32.2321 32.7299 32.2484 32.7533C32.2646 32.7767 32.276 32.8032 32.2819 32.8311C32.2877 32.859 32.2878 32.8878 32.2822 32.9158C32.2766 32.9438 32.2655 32.9703 32.2494 32.9939C32.0728 33.4606 31.8481 33.9076 31.579 34.3278C31.4153 34.6093 31.24 34.88 30.9163 34.9311C30.572 34.94 30.2383 34.8122 29.9881 34.5756C29.8401 34.4443 29.7163 34.2882 29.6221 34.1143C29.5843 34.074 29.5641 34.0203 29.5658 33.965C29.5676 33.9098 29.5913 33.8575 29.6316 33.8197C29.6719 33.7819 29.7256 33.7617 29.7808 33.7634C29.8361 33.7652 29.8883 33.7888 29.9262 33.8292L30.3625 34.0222C30.494 34.1085 30.635 34.1793 30.7827 34.2333ZM30.7827 34.2333H30.8004C30.7946 34.2341 30.7886 34.2341 30.7827 34.2333Z" fill="white"/>
<path d="M27.51 35.0879C27.0563 34.4148 26.8128 33.6222 26.8103 32.8105C26.6042 32.6683 26.4081 32.512 26.2235 32.3428C26.3995 32.0831 26.5507 31.8075 26.6751 31.5196C27.0463 29.9532 27.1979 28.3454 27.6311 26.7879C25.5905 25.3835 24.1798 22.6143 25.1634 20.1314C16.818 23.2931 14.843 30.6304 14.9085 30.6497C13.6731 32.0774 12.3862 33.4692 11.1174 34.8667C11.5798 35.4653 12.0789 36.0345 12.6118 36.571C14.4151 38.6301 16.7653 40.2709 19.1356 41.6241C19.8808 41.0341 20.5194 40.3111 21.2268 39.6773C23.092 38.0063 25.1679 36.1918 27.4469 35.0726L27.51 35.0879Z" fill="#38A1FF"/>
<path d="M58.4996 28.791C57.0817 27.7051 55.5834 26.7286 54.0176 25.8697C52.7636 25.1129 51.4324 24.492 50.0467 24.0174C48.7572 22.1614 47.043 20.6404 45.0468 19.5807C43.0507 18.5211 40.8303 17.9537 38.5705 17.9256C36.9755 17.8998 35.3207 17.8234 33.7816 18.2919C34.7001 19.2374 35.2229 20.6124 35.7554 21.8023C39.5043 21.8623 41.4101 26.1726 40.5708 29.4167C41.363 30.8613 41.4519 32.7546 39.709 33.4194C41.4784 33.6052 43.1816 34.3483 44.8565 34.9073C48.7514 36.2047 52.6583 38.0091 55.9342 40.527C57.9759 37.3841 59.4368 33.9002 60.2477 30.2411C59.7026 29.7142 59.1182 29.2294 58.4996 28.791Z" fill="#38A1FF"/>
<path d="M10.8645 36.3281C9.99886 37.6975 9.2533 39.1393 8.6362 40.6372C7.241 44.163 6.46551 47.9034 6.34393 51.6932C6.13561 57.477 7.24596 62.4834 9.24868 67.4741C9.27035 67.5247 9.31087 67.5649 9.36165 67.5862C9.41243 67.6075 9.46949 67.6081 9.52076 67.5881C9.57203 67.568 9.61347 67.5288 9.63632 67.4787C9.65918 67.4286 9.66164 67.3716 9.64319 67.3197C7.78597 62.3334 6.90666 57.0359 7.05333 51.717C7.18355 48.0072 7.9284 44.3448 9.25753 40.8789C9.81429 39.3884 10.4714 37.9373 11.2245 36.5357C11.2524 36.4877 11.26 36.4306 11.2458 36.3769C11.2316 36.3232 11.1967 36.2774 11.1487 36.2495C11.1007 36.2216 11.0436 36.214 10.9899 36.2282C10.9362 36.2424 10.8904 36.2773 10.8625 36.3253L10.8645 36.3281Z" fill="white"/>
<path d="M9.46897 64.3445C9.69503 65.279 10.0976 66.1616 10.6549 66.9449C10.8714 67.2311 11.1171 67.4939 11.3881 67.7291C11.4254 67.7684 11.4765 67.7919 11.5307 67.7947C11.5849 67.7975 11.6382 67.7794 11.6794 67.7442C11.7207 67.7089 11.7468 67.6591 11.7525 67.6051C11.7581 67.5511 11.7428 67.497 11.7098 67.454C11.5932 67.2762 10.9388 66.1024 10.9171 66.0617C10.4719 65.2381 10.2656 64.6285 10.0726 64.2782C9.84057 63.86 9.75088 63.7051 9.57514 63.761C9.37005 63.827 9.43077 64.0566 9.46897 64.3445Z" fill="white"/>
<path d="M11.2422 63.5282C11.5478 64.505 12.0049 65.4278 12.5966 66.2629C12.8232 66.5679 13.0731 66.8548 13.3442 67.1211C13.3609 67.1437 13.3819 67.1629 13.4061 67.1773C13.4302 67.1918 13.457 67.2013 13.4848 67.2053C13.5127 67.2093 13.5411 67.2078 13.5683 67.2007C13.5956 67.1936 13.6211 67.1812 13.6435 67.1641C13.6659 67.147 13.6847 67.1257 13.6987 67.1013C13.7127 67.0769 13.7218 67.0499 13.7253 67.022C13.7288 66.9941 13.7267 66.9657 13.7191 66.9386C13.7116 66.9115 13.6987 66.8862 13.6812 66.8641C13.483 66.5319 13.5139 66.5383 12.9171 65.4903C12.1981 64.2304 12.1068 63.8568 11.8265 63.4084C11.5607 62.9837 11.4814 62.8502 11.3037 62.9185C11.1175 62.9901 11.171 63.1828 11.2422 63.5282Z" fill="white"/>
<path d="M18.4085 42.2965C17.7003 43.2781 17.0612 44.3077 16.4958 45.3778C15.2094 47.8988 14.2492 50.5733 13.6381 53.3368C12.724 57.5192 12.6834 61.4221 13.945 65.3315C13.9526 65.3588 13.9656 65.3842 13.9833 65.4064C14.001 65.4286 14.0229 65.447 14.0478 65.4605C14.0727 65.4741 14.1001 65.4825 14.1283 65.4852C14.1565 65.488 14.1849 65.4851 14.212 65.4767C14.2391 65.4683 14.2642 65.4545 14.2858 65.4362C14.3075 65.4179 14.3252 65.3955 14.338 65.3702C14.3509 65.3449 14.3585 65.3173 14.3605 65.2891C14.3624 65.2608 14.3587 65.2324 14.3495 65.2056C13.5271 62.436 13.2882 58.1776 14.3294 53.4884C14.9389 50.7849 15.866 48.1628 17.0914 45.677C17.5121 44.8019 18.2412 43.351 18.7559 42.5245C18.7712 42.5016 18.7819 42.4759 18.7872 42.4489C18.7925 42.4219 18.7924 42.3941 18.7869 42.3671C18.7814 42.3401 18.7706 42.3145 18.7551 42.2917C18.7397 42.2689 18.7198 42.2494 18.6968 42.2344C18.6737 42.2193 18.6479 42.2089 18.6209 42.2039C18.5938 42.1989 18.566 42.1992 18.5391 42.205C18.5121 42.2108 18.4866 42.2219 18.464 42.2376C18.4414 42.2533 18.4221 42.2733 18.4072 42.2965H18.4085Z" fill="white"/>
<path d="M56.9513 42.4819C57.2979 43.1821 57.834 44.5864 58.1075 45.3259C58.9569 47.5541 59.5654 49.8668 59.9228 52.2245C60.4404 55.5968 60.3988 59.0313 59.7997 62.3901C59.7884 62.4445 59.7989 62.5012 59.829 62.548C59.8591 62.5948 59.9063 62.6278 59.9606 62.6401C60.0148 62.6523 60.0717 62.6427 60.1189 62.6134C60.1662 62.5841 60.2 62.5374 60.2132 62.4834C61.0482 59.0923 61.1876 55.5672 60.6229 52.1207C60.27 49.7086 59.6342 47.3465 58.7288 45.083C58.3211 44.1221 57.8509 43.1888 57.3213 42.2893C57.2956 42.2403 57.2516 42.2036 57.1988 42.1871C57.1461 42.1706 57.0889 42.1757 57.04 42.2014C56.991 42.2271 56.9542 42.2711 56.9378 42.3239C56.9213 42.3766 56.9264 42.4338 56.9521 42.4827L56.9513 42.4819Z" fill="white"/>
<path d="M62.1825 59.6744C62.0924 59.8437 61.9533 60.2619 61.8294 60.5828C61.6971 60.9271 61.5286 61.3232 61.4273 61.6345C61.3637 61.8275 61.3183 62.0165 61.2572 62.2087C61.2445 62.2335 61.2368 62.2605 61.2346 62.2882C61.2323 62.3159 61.2356 62.3438 61.2441 62.3702C61.2526 62.3967 61.2663 62.4212 61.2843 62.4424C61.3023 62.4636 61.3243 62.481 61.3491 62.4937C61.3738 62.5063 61.4008 62.514 61.4285 62.5163C61.4562 62.5185 61.4841 62.5153 61.5106 62.5067C61.537 62.4982 61.5615 62.4845 61.5827 62.4665C61.6039 62.4485 61.6213 62.4265 61.634 62.4018C61.9737 61.9884 62.2405 61.5201 62.423 61.0172C62.5684 60.6727 62.6875 60.3178 62.7793 59.9555C62.7924 59.8745 62.7991 59.7926 62.7994 59.7106C62.8055 59.4399 62.8264 59.2533 62.6458 59.2051C62.4652 59.1568 62.3619 59.3357 62.1825 59.6744Z" fill="white"/>
<path d="M63.9495 60.5193C63.8102 60.7302 63.6938 60.9554 63.602 61.1909C63.3759 61.673 63.117 62.1389 62.8271 62.5856C62.778 62.666 62.4977 63.1422 62.369 63.3324C62.35 63.3526 62.3351 63.3764 62.3252 63.4024C62.3153 63.4283 62.3107 63.456 62.3115 63.4838C62.3123 63.5116 62.3186 63.5389 62.33 63.5643C62.3414 63.5896 62.3577 63.6125 62.3779 63.6316C62.3981 63.6506 62.4219 63.6655 62.4479 63.6754C62.4739 63.6853 62.5015 63.6899 62.5293 63.6891C62.5571 63.6883 62.5844 63.682 62.6098 63.6706C62.6352 63.6592 62.658 63.643 62.6771 63.6227C62.9308 63.4328 63.1619 63.2145 63.366 62.972C63.8955 62.3073 64.2757 61.5363 64.4807 60.7115C64.5141 60.4361 64.5612 60.2249 64.3689 60.1618C64.1767 60.0987 64.1031 60.2828 63.9495 60.5193Z" fill="white"/>
<path d="M61.5358 31.3616C65.9752 35.8146 67.9908 46.7118 67.7648 53.0063C67.6208 57.0145 66.685 61.166 64.4796 64.499C64.464 64.5221 64.4531 64.548 64.4476 64.5753C64.442 64.6026 64.4419 64.6307 64.4472 64.658C64.4525 64.6854 64.4631 64.7114 64.4785 64.7346C64.4938 64.7578 64.5136 64.7778 64.5367 64.7934C64.5598 64.809 64.5857 64.8198 64.613 64.8254C64.6403 64.831 64.6684 64.8311 64.6957 64.8258C64.7231 64.8205 64.7491 64.8099 64.7723 64.7945C64.7955 64.7791 64.8155 64.7594 64.8311 64.7363C66.695 61.9784 67.8675 58.8123 68.2494 55.5056C68.8776 50.7116 68.1931 45.4824 66.94 40.8098C65.9269 37.0323 64.6135 33.7198 61.8274 31.064C61.8081 31.0436 61.7849 31.0274 61.7593 31.0162C61.7336 31.0051 61.7059 30.9992 61.6779 30.999C61.6498 30.9987 61.6221 31.0042 61.5962 31.0149C61.5703 31.0257 61.5469 31.0416 61.5273 31.0616C61.5077 31.0816 61.4924 31.1054 61.4822 31.1315C61.472 31.1576 61.4672 31.1855 61.468 31.2135C61.4688 31.2415 61.4753 31.269 61.487 31.2945C61.4987 31.3199 61.5155 31.3427 61.5362 31.3616H61.5358Z" fill="white"/>
<path d="M57.5722 17.7728C54.1808 15.191 53.7952 9.1128 56.3907 5.83847C59.2057 2.28785 65.31 0.902838 69.3235 2.99363C74.5077 5.6949 75.8344 14.7727 71.5354 18.8349C68.9813 21.2478 65.3229 22.2532 60.1246 20.3429C58.8607 21.4971 57.1568 22.6485 55.4597 22.9413C55.4204 22.9488 55.3798 22.9449 55.3427 22.9301C55.3056 22.9153 55.2735 22.8902 55.2502 22.8577C55.2269 22.8252 55.2134 22.7867 55.2114 22.7467C55.2093 22.7068 55.2187 22.6671 55.2385 22.6324C55.8936 21.4951 57.1781 19.0444 57.5722 17.7728ZM55.853 22.4144C57.3208 21.9721 58.767 20.8726 59.86 19.8053C59.8989 19.7678 59.9474 19.7421 60.0002 19.731C60.053 19.7199 60.1078 19.7239 60.1584 19.7425C64.0372 21.1452 68.0378 21.1903 71.0544 18.3269C74.9931 14.5869 73.7488 6.10148 68.9966 3.62059C65.2823 1.68141 59.552 2.98036 56.9183 6.25952C54.4756 9.30101 54.8295 15.1302 58.0262 17.4595C58.0695 17.4907 58.1021 17.5344 58.1197 17.5848C58.1373 17.6351 58.1391 17.6896 58.1247 17.741C57.7853 18.9463 56.4739 21.3266 55.853 22.4144Z" fill="white"/>
<path d="M69.0428 9.05851C68.9975 8.68219 68.8414 8.32783 68.5943 8.04041C68.3472 7.75299 68.0202 7.5455 67.655 7.44427C66.2877 7.01919 65.0836 7.81425 64.2528 9.00422C64.0236 8.76999 63.7757 8.5548 63.5116 8.36078C62.5866 7.71733 61.3802 7.69722 60.6016 8.64228C60.3025 9.04886 60.0922 9.51374 59.9843 10.0068C59.8764 10.4998 59.8732 11.0101 59.9751 11.5044C60.222 12.6304 61.4992 13.8811 62.4358 14.5905C63.0278 15.0324 63.6583 15.4202 64.3195 15.7495C64.3559 15.7688 64.3971 15.777 64.4381 15.773C64.479 15.7691 64.5179 15.7532 64.55 15.7274C65.5598 14.8938 67.2396 13.4376 68.0266 12.369C68.6029 11.6813 68.9619 10.8378 69.0581 9.94566C69.083 9.65019 69.0779 9.35295 69.0428 9.05851Z" fill="#38A1FF"/>
<path d="M16.4322 30.026C16.6592 29.8922 16.8757 29.7414 17.0797 29.5748C17.2185 29.4493 17.512 29.1461 17.4014 28.9683C17.2872 28.7837 16.8079 28.9643 16.7411 28.9937C16.486 29.1274 16.2492 29.2934 16.0365 29.4875C16.0064 29.5257 15.7952 29.8712 15.8958 30.0055C15.9963 30.1398 16.3936 30.0409 16.4322 30.026Z" fill="white"/>
<path d="M47.2128 23.8742C47.3306 23.9068 47.9218 23.9663 48.0432 23.9788C48.3436 24.0102 49.1777 24.1027 49.2308 23.8063C49.2746 23.5622 48.6219 23.376 48.5471 23.3563C48.1267 23.2646 47.6981 23.2153 47.2679 23.2091C47.208 23.2151 46.731 23.2947 46.7161 23.501C46.7024 23.6937 47.1625 23.8606 47.2128 23.8742Z" fill="white"/>
<path d="M40.0946 29.4879C40.4035 26.8715 40.0198 24.5535 37.8156 23.129C36.9257 22.566 35.9726 22.365 35.0581 21.9741C34.2538 19.4763 32.8864 17.3223 30.2612 17.3047C29.7779 17.2774 29.2951 17.367 28.8536 17.5657C25.9119 19.056 24.5172 23.2445 27.0773 25.6461C28.8066 27.262 31.9068 27.9352 34.2465 27.7373C34.2928 28.6104 34.6611 29.3198 35.4872 29.5852C36.211 29.8177 37.1509 29.6435 37.8961 29.4955C38.1687 29.4458 38.4462 29.4283 38.7229 29.4437C39.2787 29.4778 40.2257 29.9665 40.157 30.9171C40.1183 31.3733 39.9188 31.8009 39.594 32.1236C39.1029 32.6014 38.2085 32.7401 37.5249 32.7719C37.4556 32.7757 37.3892 32.8006 37.3344 32.8431C37.2796 32.8856 37.239 32.9438 37.218 33.01C37.0843 33.5402 36.836 34.0346 36.4905 34.4584C36.1451 34.8823 35.7109 35.2252 35.2185 35.4631C34.2268 35.9376 32.7191 35.9055 32.4795 35.7446C32.4048 35.6943 32.3138 35.6743 32.2249 35.6887C31.3514 35.8626 30.4473 35.8012 29.6053 35.5109C28.4591 35.0573 27.9605 34.0463 27.8044 32.829C28.0264 32.8905 28.2528 32.9344 28.4603 32.9919C28.512 33.0099 28.5686 33.0072 28.6183 32.9845C28.668 32.9617 28.707 32.9207 28.7272 32.8698C28.7473 32.819 28.747 32.7624 28.7264 32.7117C28.7057 32.6611 28.6663 32.6204 28.6164 32.5981C28.3019 32.4329 27.8877 32.2519 27.6428 32.0838C28.0085 31.353 28.4338 30.6536 28.9144 29.9926C28.9787 29.8933 29.035 29.7915 29.0978 29.6926C29.3205 29.3463 29.4408 29.2583 29.3133 29.1087C29.1034 28.8613 28.5122 29.4328 28.3035 29.6817C28.1664 29.8458 27.9476 30.1575 27.8286 30.334C27.9053 29.4933 28.0553 28.6609 28.277 27.8463C28.2856 27.8198 28.2888 27.7919 28.2865 27.7642C28.2841 27.7364 28.2763 27.7094 28.2633 27.6848C28.2504 27.6602 28.2326 27.6384 28.2111 27.6207C28.1896 27.603 28.1647 27.5899 28.138 27.582C28.1114 27.574 28.0834 27.5716 28.0557 27.5747C28.028 27.5778 28.0013 27.5864 27.977 27.6C27.9527 27.6136 27.9314 27.632 27.9143 27.654C27.8973 27.676 27.8848 27.7012 27.8776 27.7281C27.7924 27.9963 27.697 28.2585 27.6158 28.5267C27.3546 29.4506 27.1811 30.397 27.0974 31.3535C27.0649 31.7922 27.1268 31.526 26.9104 32.046C26.8822 32.1116 26.8753 32.1843 26.8907 32.254C26.906 32.3237 26.9429 32.3869 26.9961 32.4345C27.0255 32.4574 27.0556 32.4795 27.0862 32.5012C27.2728 35.6324 29.3242 36.832 32.2281 36.4082C32.9045 36.6744 34.4802 36.6016 35.5234 36.0989C36.0672 35.8388 36.5505 35.4676 36.9421 35.0092C37.3336 34.5508 37.6246 34.0153 37.7963 33.4374C38.6214 33.4175 39.4142 33.1126 40.0399 32.5744C40.8615 31.7263 41.0538 30.2094 40.0946 29.4879ZM31.9752 18.8714C31.9659 18.8972 31.9517 18.9209 31.9332 18.9411C31.9148 18.9613 31.8926 18.9778 31.8678 18.9894C31.8431 19.0011 31.8163 19.0077 31.7889 19.009C31.7616 19.0103 31.7343 19.0062 31.7085 18.9969C31.5995 18.9836 31.5006 18.984 31.3969 18.9768C30.3746 18.9064 29.8482 18.9394 28.988 19.6379C28.7204 19.8516 28.4681 20.0838 28.2331 20.3329C28.2179 20.3572 28.198 20.3783 28.1744 20.3947C28.1509 20.4111 28.1242 20.4225 28.0961 20.4284C28.068 20.4342 28.039 20.4342 28.0108 20.4284C27.9827 20.4227 27.956 20.4113 27.9325 20.3949C27.9089 20.3786 27.8888 20.3576 27.8736 20.3333C27.8584 20.3089 27.8482 20.2817 27.8438 20.2534C27.8394 20.225 27.8408 20.196 27.8479 20.1682C27.8551 20.1404 27.8678 20.1143 27.8853 20.0916C28.0568 19.747 28.2776 19.4293 28.5408 19.1485C29.0672 18.6094 29.7773 18.2883 30.5298 18.2493C30.9981 18.2088 31.4657 18.335 31.8501 18.6056C31.9019 18.6243 31.9442 18.6628 31.9676 18.7127C31.9911 18.7625 31.9938 18.8196 31.9752 18.8714Z" fill="white"/>
<path d="M25.8918 55.4421C26.1822 55.0801 26.4478 54.6989 26.6868 54.3012C27.0013 53.7993 27.3705 53.1752 27.9122 52.9492C28.5054 52.6998 29.2566 52.9765 29.8482 53.2423C30.3057 53.4462 30.7523 53.6737 31.1861 53.924C31.2325 53.9529 31.2883 53.9627 31.3418 53.9513C31.3953 53.94 31.4423 53.9084 31.473 53.8631C31.5037 53.8179 31.5156 53.7625 31.5064 53.7086C31.4972 53.6547 31.4674 53.6065 31.4234 53.5741C31.0201 53.2383 30.5896 52.9365 30.1365 52.6717C29.3684 52.2398 28.4523 51.955 27.6395 52.2944C27.0106 52.5575 26.532 53.1555 26.0961 53.9549C25.8791 54.368 25.691 54.7956 25.5331 55.2346C25.5194 55.2584 25.5106 55.2846 25.5071 55.3117C25.5036 55.3389 25.5055 55.3665 25.5127 55.3929C25.5199 55.4194 25.5322 55.4442 25.5489 55.4658C25.5657 55.4875 25.5865 55.5057 25.6103 55.5193C25.634 55.5329 25.6603 55.5418 25.6874 55.5452C25.7146 55.5487 25.7422 55.5469 25.7686 55.5397C25.7951 55.5325 25.8198 55.5202 25.8415 55.5035C25.8632 55.4867 25.8814 55.4659 25.895 55.4421H25.8918Z" fill="white"/>
<path d="M43.1039 52.2027C43.4526 51.8801 43.7754 51.5305 44.0691 51.1571C44.4366 50.7075 44.9156 50.0762 45.4633 49.8867C46.0883 49.67 46.7341 50.1127 47.2413 50.5346C47.6607 50.8833 47.8706 51.0848 48.4602 51.6393C48.4984 51.6794 48.5508 51.703 48.6061 51.7049C48.6614 51.7068 48.7153 51.6869 48.7562 51.6496C48.7971 51.6122 48.8216 51.5603 48.8246 51.505C48.8276 51.4497 48.8088 51.3954 48.7723 51.3538C48.4343 50.8979 48.0675 50.4641 47.674 50.0552C46.9931 49.3893 46.1361 48.9055 45.2321 49.2151C44.5452 49.4504 43.9492 50.1493 43.5254 50.7409C43.1176 51.3104 43.0387 51.5231 42.7786 51.9397C42.7584 51.9604 42.7428 51.9851 42.7327 52.0122C42.7226 52.0393 42.7183 52.0681 42.72 52.097C42.7216 52.1258 42.7293 52.154 42.7424 52.1797C42.7556 52.2055 42.7739 52.2282 42.7963 52.2464C42.8187 52.2647 42.8447 52.2781 42.8725 52.2858C42.9004 52.2934 42.9295 52.2952 42.9581 52.2911C42.9867 52.2869 43.0141 52.2768 43.0386 52.2615C43.063 52.2461 43.0841 52.2258 43.1003 52.2019L43.1039 52.2027Z" fill="white"/>
<path d="M34.7975 62.0925C35.2057 62.4308 35.6449 62.7298 36.1093 62.9857C37.1444 63.5435 38.7446 64.0671 39.8493 63.6456C41.5046 63.0138 42.3789 61.1692 43.1236 59.8863C43.1543 59.8394 43.1652 59.7822 43.1537 59.7273C43.1422 59.6724 43.1094 59.6243 43.0625 59.5935C43.0154 59.5634 42.9583 59.5529 42.9036 59.5642C42.8488 59.5756 42.8006 59.6079 42.7693 59.6543C42.4358 60.1322 42.0925 60.6033 41.7394 61.067C39.9675 63.4031 39.0333 63.5435 36.4041 62.3829C36.1298 62.2622 35.4433 61.9646 35.0271 61.745C35.0043 61.7286 34.9784 61.7169 34.951 61.7108C34.9236 61.7046 34.8953 61.704 34.8676 61.709C34.84 61.7141 34.8137 61.7247 34.7902 61.7402C34.7668 61.7557 34.7467 61.7758 34.7313 61.7992C34.7158 61.8227 34.7052 61.849 34.7002 61.8767C34.6952 61.9043 34.6958 61.9327 34.702 61.9601C34.7082 61.9875 34.7199 62.0133 34.7364 62.0361C34.7529 62.0589 34.7738 62.078 34.7979 62.0925H34.7975Z" fill="white"/>
<path d="M14.7123 67.2369C15.8438 70.1057 17.8533 72.5435 20.4535 74.2018C25.7619 77.7049 35.1136 79.6952 43.6175 77.4685C48.4655 76.2379 52.8555 73.635 56.2612 69.9719C57.9708 68.1284 59.4338 66.3477 60.4943 64.1089C60.5075 64.0837 60.5154 64.0561 60.5177 64.0277C60.52 63.9993 60.5166 63.9708 60.5076 63.9438C60.4986 63.9168 60.4843 63.8918 60.4655 63.8705C60.4466 63.8491 60.4237 63.8318 60.398 63.8195C60.3724 63.8072 60.3445 63.8002 60.316 63.7989C60.2876 63.7977 60.2592 63.8021 60.2325 63.812C60.2059 63.822 60.1815 63.8372 60.1608 63.8567C60.1401 63.8763 60.1236 63.8998 60.1122 63.9259C59.0783 66.0505 57.4532 67.9073 55.847 69.5806C52.4625 73.0894 48.1672 75.5857 43.443 76.7892C33.5962 79.3409 19.017 76.4707 15.1 67.08C15.0778 67.0309 15.0375 66.9923 14.9874 66.9723C14.9374 66.9523 14.8815 66.9524 14.8316 66.9727C14.7817 66.993 14.7416 67.0319 14.7197 67.0811C14.6978 67.1304 14.6959 67.1862 14.7143 67.2369H14.7123Z" fill="white"/>
<path d="M18.0028 70.6628C14.4489 66.3968 14.0689 63.2 14.2495 57.8401C14.3134 55.9319 14.3299 54.037 14.804 52.1726C15.2136 51.5061 15.7611 50.9351 16.4098 50.498C18.0184 49.5216 19.9608 49.8011 21.7259 49.4404C22.7369 49.2337 23.6357 48.669 24.5937 48.3071C27.3114 47.2804 31.3309 46.9044 32.7863 50.0661C33.5975 51.8292 32.7143 53.6051 31.5746 54.9764C30.5672 56.2169 29.2997 57.221 27.8616 57.9178C26.9547 58.3549 25.8978 58.5741 25.0988 59.2155C24.2735 59.8779 24.4348 60.8848 23.9369 61.7133C23.359 62.674 22.3786 63.3078 21.9234 64.3474C21.2634 65.8539 21.5095 68.0947 22.9907 69.0735C23.6341 69.4986 24.3628 69.5842 25.0923 69.7708C25.6425 69.2078 26.2666 68.5551 27.0227 68.2776C27.9327 67.9447 28.9337 68.0999 29.8719 67.9185C30.5853 67.781 31.3333 67.3334 32.0681 67.3808C32.8845 67.4331 33.5424 67.9632 34.3929 67.9438C35.6099 67.9169 37.023 67.0857 38.2041 67.6495C38.7965 67.931 39.2996 68.3766 39.8932 68.65C40.5061 68.9315 41.2147 69.0522 41.7182 69.5315C42.2576 70.0655 42.6048 70.7632 42.7053 71.5155C42.8058 72.2678 42.6539 73.0322 42.2735 73.689C41.3848 75.1396 39.7585 75.3258 38.2608 75.6801C37.6198 75.8317 37.0218 76.1011 36.3643 76.192C35.0726 76.3706 33.7467 76.3288 32.4678 76.6002C31.9857 76.7194 31.5148 76.8799 31.0603 77.08C26.3643 76.5246 21.043 74.3124 18.0028 70.6628ZM26.7432 52.2763C26.29 52.7282 25.8919 53.2321 25.5572 53.7776C25.4278 54.0915 25.3203 54.414 25.2355 54.7428C25.1253 55.2121 24.8876 56.5734 25.8741 56.0329C26.8123 55.5181 27.2181 53.7269 28.355 53.4104C29.1545 53.1876 30.0412 54.1745 30.7727 54.4021C30.9549 54.4903 31.1596 54.5213 31.3597 54.4909C31.5599 54.4606 31.7461 54.3703 31.894 54.232C32.6218 53.3831 31.7564 52.2747 30.9774 51.8742C29.6692 51.2038 27.8049 51.1137 26.7432 52.2763Z" fill="#38A1FF"/>
<path d="M48.2085 50.0858C49.585 49.6619 51.3573 49.3306 52.2682 50.0299C53.0094 50.5994 52.7444 51.8798 52.6852 52.664C52.5489 54.4673 53.459 56.3345 51.338 57.4899C49.8448 58.3034 48.6263 56.7258 47.3676 56.2062C46.2247 55.7337 44.8441 55.9967 43.8077 55.2458C42.0435 53.9678 45.3017 51.3425 46.3079 50.7984C46.3079 50.7984 46.4535 50.7309 46.7008 50.6299C47.0781 51.0569 47.48 51.4615 47.9044 51.8416C48.0825 52.036 48.3086 52.1799 48.56 52.259C49.0723 52.3242 49.3196 51.7266 49.1632 51.322C48.9448 50.8417 48.618 50.4185 48.2085 50.0858Z" fill="#38A1FF"/>
</svg>
