<svg width="154" height="154" viewBox="0 0 154 154" fill="none" xmlns="http://www.w3.org/2000/svg">
<path d="M65.8997 47.5807C67.2206 45.929 70.193 41.8004 68.5422 40.8096C68.0467 43.122 65.8997 45.2682 64.5781 48.0761C65.2374 49.3977 72.6708 51.3785 65.8997 47.5807Z" fill="#191919"/>
<path d="M54.671 109.677C55.4102 109.546 56.1304 109.324 56.815 109.016C57.3104 108.686 56.9804 107.86 56.3196 107.86C54.0284 108.3 51.6743 108.3 49.3831 107.86C45.9007 107.306 42.5779 106.011 39.6396 104.062C39.1442 103.731 38.6488 104.557 39.1442 104.887C43.0787 107.682 47.7068 109.339 52.5209 109.677C53.2289 109.835 53.963 109.835 54.671 109.677Z" fill="#191919"/>
<path d="M45.917 113.805C48.1409 114.364 50.4046 114.75 52.6881 114.961C54.083 115.206 55.5195 115.034 56.8167 114.465C57.4775 114.135 56.9821 112.979 56.3213 113.31C54.1876 113.722 51.99 113.665 49.8802 113.144C47.8378 112.842 45.8408 112.288 43.9353 111.493C42.9399 111.05 41.9979 110.496 41.1275 109.841C41.0121 109.778 40.8792 109.753 40.7488 109.772C40.6184 109.791 40.4975 109.851 40.4044 109.944C40.3113 110.037 40.251 110.158 40.2326 110.289C40.2141 110.419 40.2385 110.552 40.3021 110.667C41.9154 112.12 43.8342 113.192 45.917 113.805Z" fill="#191919"/>
<path d="M122.546 88.7024C118.578 80.2291 111.73 73.44 103.223 69.5454C102.555 69.2307 101.572 69.05 101.242 69.71C107.586 72.3683 113.08 76.7145 117.127 82.2763C121.174 87.8381 123.619 94.4027 124.197 101.257C125.023 111.991 120.729 123.222 112.141 129.827C106.858 133.791 100.415 135.938 93.9751 136.929C87.3686 137.755 80.7629 137.424 74.3226 136.929C75.1481 136.929 75.9735 134.785 76.1389 134.286C76.6818 132.116 76.7514 122.85 74.9827 115.79C74.4987 113.531 71.5799 104.304 69.5079 103.761C79.9094 105.745 90.5471 106.182 101.076 105.055C100.959 104.688 100.705 104.38 100.367 104.196C100.029 104.011 99.632 103.964 99.2599 104.065C99.7554 100.761 100.415 97.6236 100.911 94.3204C101.076 93.6596 100.911 92.8342 100.251 92.9996L97.773 103.899C88.4983 104.402 79.1965 103.904 70.0286 102.413C66.027 101.841 65.792 101.378 62.9267 99.4399C59.0372 96.8646 54.4796 95.483 49.8149 95.4651L46.7421 83.586C46.6446 83.1281 46.3964 82.7162 46.0371 82.4159C45.6779 82.1157 45.2284 81.9446 44.7605 81.9298L29.9825 81.2522C33.1027 76.0408 37.5958 71.5469 43.4397 69.38C45.115 68.8677 46.8262 68.4812 48.5591 68.2238C48.6942 68.183 48.8103 68.0951 48.8861 67.9761C48.962 67.857 48.9927 67.7148 48.9727 67.575C48.9527 67.4353 48.8833 67.3074 48.7771 67.2144C48.6709 67.1215 48.5349 67.0696 48.3937 67.0684C46.7772 67.2085 45.1753 67.4846 43.605 67.8938C37.0476 70.0799 32.1731 75.1679 28.7987 81.1993L26.7596 81.1059C26.4103 81.0813 26.0603 81.1439 25.7412 81.288C25.422 81.4321 25.1436 81.6533 24.9311 81.9316C24.7185 82.2099 24.5784 82.5367 24.5234 82.8825C24.4683 83.2283 24.5 83.5824 24.6157 83.913L33.6992 116.448C33.8258 116.875 34.087 117.251 34.4439 117.519C34.8009 117.787 35.2346 117.932 35.6808 117.934L42.4519 118.264C42.7769 118.201 43.0693 118.026 43.2773 117.768C43.2972 117.572 43.2391 117.375 43.1155 117.221C42.992 117.066 42.8128 116.967 42.6165 116.943L35.8454 116.612C35.5154 116.612 35.35 116.448 35.1854 116.117L26.0988 83.583C26.0988 83.253 26.0988 83.0876 26.2642 82.9222C26.2642 82.7568 26.5943 82.5922 26.7596 82.5922L44.7605 83.4176C45.0913 83.4176 45.2559 83.583 45.4213 83.913L50.1617 102.243C46.5881 101.158 43.2455 99.4234 40.3018 97.1251C39.8064 96.7944 39.311 97.4552 39.8064 97.9506C41.5286 99.4718 43.4113 100.801 45.4213 101.915C47.5443 103.138 49.9145 103.871 52.3578 104.059C53.009 104.195 53.6746 104.25 54.3394 104.223C55.089 104.297 55.8423 104.123 56.4834 103.728C56.8134 103.398 56.648 102.902 56.1526 102.737C55.6054 102.654 55.0489 102.654 54.5017 102.737C53.5456 102.807 52.5845 102.744 51.6457 102.55L50.1388 96.7239C50.3238 96.7674 50.5131 96.79 50.7031 96.7913C56.2077 97.2921 64.4283 100.377 67.5485 104.884C69.8609 108.187 70.1909 112.48 70.3563 116.446C63.6662 118.425 56.6575 119.098 49.713 118.428C49.0522 118.428 45.5844 117.437 45.089 118.098C44.2628 119.253 47.566 119.583 48.0614 119.583C52.2965 120.354 54.295 120.048 58.6281 119.749C60.2789 125.364 62.2613 131.474 67.0508 134.942C71.1794 138.082 76.7943 138.576 81.9138 138.576C101.533 138.864 117.191 133.887 123.697 115.455C126.633 106.702 126.223 97.1712 122.546 88.7024Z" fill="#191919"/>
<path d="M30.062 92.0056C30.062 92.4437 30.236 92.8637 30.5458 93.1735C30.8555 93.4832 31.2756 93.6572 31.7136 93.6572C32.1517 93.6572 32.5718 93.4832 32.8815 93.1735C33.1912 92.8637 33.3652 92.4437 33.3652 92.0056C33.3652 91.5676 33.1912 91.1475 32.8815 90.8378C32.5718 90.528 32.1517 90.354 31.7136 90.354C31.2756 90.354 30.8555 90.528 30.5458 90.8378C30.236 91.1475 30.062 91.5676 30.062 92.0056Z" fill="#191919"/>
<path d="M28.7412 87.3816C28.7412 87.8196 28.9152 88.2397 29.225 88.5495C29.5347 88.8592 29.9548 89.0332 30.3928 89.0332C30.8309 89.0332 31.251 88.8592 31.5607 88.5495C31.8704 88.2397 32.0444 87.8196 32.0444 87.3816C32.0444 86.9436 31.8704 86.5235 31.5607 86.2137C31.251 85.904 30.8309 85.73 30.3928 85.73C29.9548 85.73 29.5347 85.904 29.225 86.2137C28.9152 86.5235 28.7412 86.9436 28.7412 87.3816Z" fill="#191919"/>
<path d="M75.9734 36.6807C74.9826 36.6807 73.8294 34.8645 75.478 34.8645C78.1204 34.8645 80.5974 35.1945 82.2491 37.6716C82.4144 37.8369 82.2491 38.167 81.919 37.8369C81.0928 37.0108 77.295 36.6807 75.9734 36.6807Z" fill="#191919"/>
<path d="M66.7252 55.8379C69.0376 55.8379 71.0192 54.3517 73.0039 53.3608C73.0039 53.3608 73.3339 54.8471 71.5177 55.8379C70.0059 56.4712 68.355 56.6989 66.7282 56.4987C65.6032 56.3747 64.5256 55.9778 63.5889 55.3425C63.5873 55.1771 65.0736 55.8379 66.7252 55.8379Z" fill="#191919"/>
<path d="M61.2759 41.1395C62.828 41.1395 62.8785 41.0331 64.4152 41.8003C64.5799 41.9657 66.0661 42.7911 66.0661 42.6265C65.8545 41.7519 65.3246 40.9875 64.5799 40.4825C62.7981 39.0545 61.573 40.8424 61.2759 41.1395Z" fill="#191919"/>
<path d="M79.4422 43.2866C79.0886 42.7679 78.5567 42.3972 77.9477 42.2451C77.3387 42.0929 76.695 42.1698 76.139 42.4612C74.6481 43.112 73.9023 44.0623 73.995 44.2774C74.0586 44.4306 75.812 43.9474 76.139 43.9474C77.4292 43.4313 78.6244 43.7376 79.9376 44.1128C79.7131 43.8776 79.5439 43.5954 79.4422 43.2866Z" fill="#191919"/>
<path d="M103.553 44.6081C102.797 44.3766 102.105 43.9725 101.532 43.4276C100.959 42.8828 100.52 42.2122 100.251 41.4687C99.8024 40.3125 99.6878 39.0536 99.9199 37.8355C100.415 36.5139 101.577 36.1693 102.893 36.6793C103.719 37.0161 104.497 37.4607 105.207 38.0016C105.513 38.1805 105.792 38.4031 106.033 38.6624C105.366 25.6532 96.8449 17.5421 84.2331 15.7068C72.6771 14.0222 63.7498 21.6494 60.7827 26.9373C56.0913 35.2949 56.553 41.8684 50.543 54.847C45.1065 66.5799 47.0974 70.8502 50.543 75.8211C52.3424 78.4251 53.9965 81.1265 55.4979 83.913C58.7138 89.8418 60.6709 96.4514 66.3976 97.1252C67.1601 97.2618 67.935 97.317 68.7093 97.2898C69.2047 97.2898 69.8655 97.1252 70.3609 97.1252C70.3613 97.1033 70.3573 97.0816 70.3491 97.0614C70.341 97.0411 70.3288 97.0227 70.3133 97.0073C70.2979 96.9919 70.2795 96.9797 70.2593 96.9715C70.239 96.9634 70.2173 96.9594 70.1955 96.9598C70.0139 96.0339 69.9035 95.0955 69.8655 94.1527C70.0313 93.3351 70.0313 92.4925 69.8655 91.6749C68.8364 80.4168 58.8317 71.828 56.321 61.9451C55.6985 59.8573 55.4197 57.6821 55.4956 55.5048C55.1648 51.5407 56.3432 47.7475 57.1472 44.1096C58.1663 39.4917 59.0124 33.2459 61.7712 29.4082C64.1258 26.1417 69.6978 23.8132 73.8264 23.9664C84.06 24.3393 87.4651 33.7329 88.1948 43.9511C88.8227 41.1266 89.2095 38.2538 89.351 35.3638C89.3817 31.6657 88.8242 27.9863 87.6994 24.4633C87.5378 23.9671 88.1948 23.8033 88.5248 24.2987C90.1841 28.6134 91.0057 34.1762 90.3418 40.9787C90.1802 42.6303 89.8464 44.4465 89.5156 46.0982C88.8625 49.3631 88.8326 50.4841 88.1948 51.5476C88.0612 51.8014 88.0038 52.0883 88.0294 52.3738C86.4658 58.1074 81.9245 61.8241 76.6342 64.5944C76.4689 64.7598 76.4689 64.9252 76.3042 64.9252C75.5753 65.2464 74.7884 65.415 73.9918 65.4206C70.2964 66.1479 66.4731 65.8625 62.9267 64.5944C60.816 63.8965 58.9331 62.6411 57.4772 60.9612C58.9006 66.6549 64.1832 73.8563 67.0553 78.9628C70.5599 85.1925 71.0982 88.2584 71.5148 92.0095C71.72 93.0363 71.6802 93.9445 71.6802 97.129C71.6802 97.2936 71.6802 97.2936 71.5148 97.2936C74.0582 96.7648 76.4373 95.6321 78.4513 93.9912C84.5845 88.9827 91.8342 80.2185 100.415 72.1917C102.822 69.9544 104.444 67.0007 105.039 63.769C104.84 60.6503 104.513 58.9719 104.875 57.1633C104.544 57.4933 104.379 57.8233 104.049 58.1541C95.6764 69.4344 81.109 75.5745 72.671 82.4268C72.3402 82.7568 71.6802 82.2614 72.1756 81.9314C85.9275 70.4711 97.8005 67.0201 105.7 53.1954V45.4335C105.007 45.1028 104.289 44.8269 103.553 44.6081Z" fill="#38A1FF"/>
<path d="M57.4774 61.1227C57.6428 61.4527 57.9728 61.6181 58.3029 61.9481C60.5234 64.4856 67.0831 66.9305 73.9921 65.5813C78.28 64.7437 82.9576 61.0821 85.5541 57.6548C87.3083 55.3378 88.6935 51.9174 88.6935 47.0882C88.7209 45.9297 88.6657 44.7708 88.5281 43.6203C88.1269 38.0024 86.9033 32.2045 82.5832 28.4265C81.1967 27.2198 79.5562 26.3409 77.7836 25.8548C76.0109 25.3687 74.1516 25.288 72.3435 25.6187C70.3124 25.8429 68.3463 26.4689 66.5595 27.4604C64.7728 28.4518 63.2011 29.7889 61.9361 31.3936C59.1153 35.1823 58.332 39.9878 57.312 44.6058C56.5088 48.2436 55.3304 52.2023 55.6604 56.0009C55.6343 56.3397 55.691 56.6798 55.8258 56.9917C55.9809 58.4957 56.5529 59.9264 57.4774 61.1227ZM86.048 55.0124C84.3827 58.2705 81.7989 60.9691 78.6161 62.7743C76.8274 64.1158 73.3504 64.7559 71.3496 64.7559C69.5739 64.8448 67.7946 64.6779 66.0663 64.2605C62.7638 63.5997 59.371 62.0821 57.9744 58.8103C56.5287 55.4243 57.2646 50.5859 58.1398 47.0851C59.5839 41.3071 60.1375 33.4748 65.0755 29.5797C69.8274 25.8277 76.538 25.3185 80.5993 27.7627C83.2693 29.3706 85.0863 32.2106 86.2149 35.0291C88.4125 40.5238 88.3696 49.5943 86.048 55.0124Z" fill="#191919"/>
<path d="M107.186 40.8118C106.556 37.0262 102.837 34.0407 99.7553 34.0407C99.4245 31.3983 99.0945 28.9212 97.7729 26.4442C96.6932 24.3767 95.1708 22.5727 93.3143 21.1609C85.2645 14.5881 73.8976 14.4388 68.0462 18.1884C63.5936 21.0407 60.6801 25.6157 58.4673 30.409C55.164 29.0882 51.1931 30.896 49.2191 33.5484C45.8569 38.0706 47.3952 44.2796 51.3631 46.2651C52.2298 46.7653 53.1815 47.1012 54.1701 47.2559C54.5009 47.4205 54.6656 47.0905 54.8309 46.9251C55.3264 45.4389 55.6372 43.6181 55.9872 42.1364C56.4565 40.1456 57.1824 38.3516 57.8034 36.5208C59.7582 30.7635 63.4244 23.6348 68.5385 20.3362C73.158 17.3569 78.5906 17.4511 83.7315 18.6854C85.1667 19.0748 86.5521 19.6288 87.8602 20.3362C89.0519 20.9005 90.1628 21.6216 91.1634 22.4802C98.5784 28.5085 97.7484 41.1051 95.6229 50.3907C95.4697 51.0538 96.4483 51.0507 96.7783 51.2161C98.139 51.6707 99.5986 51.7416 100.997 51.4212C102.395 51.1008 103.678 50.4015 104.706 49.3999C106.562 46.9403 107.445 43.8823 107.186 40.8118ZM53.5109 33.5453C53.1969 33.6877 50.7245 34.9687 50.043 37.0132C49.8776 37.3439 49.713 37.3439 49.5476 37.3439C49.2176 37.1785 49.2176 37.0132 49.2176 36.8485C49.2176 34.3707 52.5201 31.5652 54.9979 31.5652C55.3279 31.5652 55.7743 31.6946 55.8233 32.0606C55.9374 32.8914 54.3317 33.1732 53.5132 33.543L53.5109 33.5453ZM105.866 43.6173C105.831 43.7357 105.763 43.8416 105.67 43.9223C105.577 44.0031 105.463 44.0553 105.341 44.0726C105.219 44.09 105.094 44.0718 104.982 44.0203C104.87 43.9687 104.776 43.886 104.709 43.7819C104.214 42.7911 104.398 41.6288 104.049 40.6426C103.481 39.3698 102.635 38.2411 101.572 37.3401C101.242 37.0093 101.737 36.3493 102.067 36.5139C103.203 37.2252 104.164 38.1853 104.875 39.3217C105.677 40.602 106.026 42.1149 105.866 43.6173Z" fill="#191919"/>
<path d="M61.9357 35.69C61.6057 35.8554 61.4442 35.69 61.6057 35.5246C63.6302 33.4182 65.0736 33.543 67.716 33.873C69.3676 34.2038 67.716 35.69 66.8906 35.5246C65.7344 35.36 63.0935 35.0292 61.9357 35.69Z" fill="#191919"/>
</svg>
