<svg width="154" height="154" viewBox="0 0 154 154" fill="none" xmlns="http://www.w3.org/2000/svg">
<path d="M144.4 80.4591C147.7 80.4591 96.8007 80.4269 96.9584 80.4468C96.7287 80.3986 96.6314 80.7493 96.8611 80.7975C97.2517 80.8687 143.914 80.9583 144.436 80.7493C144.702 80.7493 144.601 80.4085 144.4 80.4591Z" fill="#38A1FF"/>
<path d="M102.997 78.5624C102.986 78.7454 103.288 78.7515 103.288 78.5019C103.474 77.9406 103.395 66.2382 103.373 65.9763C103.815 66.0177 103.837 65.9893 106.834 66.0123C106.834 66.0123 106.761 77.4858 106.773 77.897C106.773 78.1152 106.809 78.3449 106.797 78.5624C106.785 78.7438 107.063 78.7324 107.075 78.5624C107.075 78.6221 107.1 78.4452 107.1 78.3809C107.295 76.4245 107.172 67.7145 107.172 65.8998C107.196 65.8755 107.209 65.8429 107.209 65.809C107.209 65.7751 107.196 65.7426 107.172 65.7183C107.099 65.6676 107.016 65.6318 106.929 65.613C106.842 65.5942 106.752 65.5928 106.664 65.6088C106.588 65.6088 103.595 65.6363 103.275 65.6815C103.192 65.6149 103.069 65.6639 103.069 65.827C102.993 66.2864 102.958 77.828 102.961 77.9054C102.992 78.1229 103.004 78.3427 102.997 78.5624Z" fill="#38A1FF"/>
<path d="M111.747 78.4139C111.735 78.5954 112.014 78.5831 112.025 78.4139C112.025 78.4376 112.025 78.4016 112.037 78.3656C112.037 78.3411 112.037 78.3166 112.05 78.3052C112.207 77.6773 112.11 66.713 112.11 62.3783C112.542 62.4166 115.673 62.4028 115.596 62.4028C115.567 62.6042 115.53 78.4935 115.535 78.4146C115.523 78.5961 115.802 78.5839 115.814 78.4146C115.814 78.4384 115.814 78.3902 115.825 78.3664C115.823 78.3415 115.828 78.3166 115.838 78.2937C115.991 77.6811 115.914 62.474 115.886 62.2902L115.898 62.278C115.921 62.2535 115.934 62.221 115.934 62.1873C115.934 62.1535 115.921 62.121 115.898 62.0965C115.747 61.9999 115.567 61.9612 115.39 61.9878C115.313 61.9878 112.377 62.0176 112.025 62.072C112.013 62.0549 111.997 62.0416 111.977 62.0337C111.958 62.0258 111.937 62.0237 111.916 62.0276C111.896 62.0314 111.877 62.0412 111.862 62.0556C111.847 62.07 111.836 62.0885 111.831 62.1088C111.831 62.1884 111.7 79.1214 111.747 78.4139Z" fill="#38A1FF"/>
<path d="M120.799 78.4139C120.787 78.5953 121.066 78.5953 121.078 78.4139C121.121 78.1254 121.141 77.8341 121.139 77.5425C121.235 75.4238 121.173 58.637 121.151 58.4563C121.47 58.4846 121.394 58.4808 124.636 58.4808C124.636 58.624 124.6 58.6646 124.6 58.771V78.4139C124.6 78.4306 124.603 78.4471 124.609 78.4625C124.616 78.4779 124.625 78.492 124.637 78.5038C124.649 78.5156 124.663 78.5249 124.678 78.5313C124.694 78.5377 124.71 78.541 124.727 78.541C124.743 78.541 124.76 78.5377 124.775 78.5313C124.791 78.5249 124.805 78.5156 124.817 78.5038C124.828 78.492 124.838 78.4779 124.844 78.4625C124.851 78.4471 124.854 78.4306 124.854 78.4139C124.946 77.5902 124.986 76.7616 124.975 75.933C125.044 71.5255 124.884 58.3598 124.963 58.3598C124.986 58.3355 124.999 58.303 124.999 58.2691C124.999 58.2352 124.986 58.2026 124.963 58.1783C124.738 58.0252 124.973 58.0558 121.574 58.1179C121.416 58.118 121.259 58.1301 121.103 58.1538C121.093 58.1343 121.077 58.1181 121.058 58.1072C121.039 58.0963 121.017 58.0912 120.996 58.0925C120.974 58.0938 120.953 58.1015 120.935 58.1146C120.918 58.1276 120.904 58.1455 120.897 58.1661C120.897 58.2289 120.851 58.235 120.872 58.2993C120.779 58.7695 120.795 78.492 120.799 78.4139Z" fill="#38A1FF"/>
<path d="M130.143 78.3327V78.3932C130.13 78.5746 130.409 78.5746 130.421 78.3932V78.3204C130.42 78.2916 130.423 78.2627 130.433 78.2354C130.586 77.3311 130.509 55.9286 130.482 55.6767C130.915 55.715 134.045 55.7012 133.967 55.7012C133.961 55.775 133.947 55.8479 133.925 55.9187V78.3809C133.925 78.4154 133.938 78.4485 133.963 78.473C133.987 78.4974 134.02 78.5111 134.055 78.5111C134.089 78.5111 134.122 78.4974 134.147 78.473C134.171 78.4485 134.185 78.4154 134.185 78.3809V78.3082C134.183 78.2755 134.187 78.2428 134.197 78.2117C134.334 77.3885 134.297 55.8184 134.245 55.6645V55.591C134.294 55.591 134.341 55.4677 134.27 55.3972C134.249 55.3768 134.224 55.3602 134.197 55.3482C133.764 55.2535 133.316 55.2413 132.878 55.3122C132.054 55.2913 131.23 55.3156 130.409 55.385C130.385 55.2877 130.215 55.2877 130.203 55.385C130.203 55.4294 130.16 55.4922 130.179 55.5305C130.127 55.8421 130.064 77.3533 130.094 78.2461C130.143 78.2806 130.143 78.3043 130.143 78.3327Z" fill="#38A1FF"/>
<path d="M130.676 49.44C129.663 49.204 128.629 49.0756 127.589 49.0571C127.554 49.0579 127.52 49.0714 127.493 49.0952C127.467 49.119 127.45 49.1515 127.446 49.1867C127.441 49.2219 127.45 49.2575 127.47 49.287C127.489 49.3165 127.519 49.3379 127.553 49.3473C128.496 49.5862 129.455 49.7599 130.422 49.8673C129.029 50.8835 127.579 51.8173 126.077 52.6636C116.906 57.8751 107.26 59.3705 103.517 60.2634C103.3 60.3124 103.396 60.6148 103.602 60.5781C104.57 60.4448 105.539 60.2396 106.494 60.0336C114.211 58.3904 121.906 55.8973 128.487 51.6552C129.215 51.1873 129.93 50.6988 130.631 50.1904C130.61 50.3374 130.631 50.3742 130.51 51.2555C130.438 51.7999 130.304 52.3329 130.244 52.8773C130.219 53.1437 130.627 53.1797 130.703 52.9378C130.899 52.0567 131.033 51.163 131.103 50.2631C131.167 49.5418 131.255 49.5127 130.676 49.44Z" fill="#38A1FF"/>
<path d="M148.829 18.6996C148.825 18.6646 148.813 18.6308 148.795 18.6002C148.778 18.5696 148.754 18.5428 148.726 18.5214C148.698 18.5 148.666 18.4845 148.631 18.4756C148.597 18.4668 148.562 18.4648 148.527 18.4699C148.45 18.4699 12.8267 18.7816 12.7486 18.8206C12.719 18.7824 12.6782 18.7546 12.6318 18.741C12.5855 18.7274 12.536 18.7287 12.4905 18.7448C12.445 18.7609 12.4057 18.791 12.3782 18.8307C12.3507 18.8704 12.3365 18.9178 12.3375 18.9661C12.3375 19.9072 12.741 91.287 12.6881 91.8108C12.6759 92.1378 13.1843 92.1378 13.2088 91.8108C13.3091 89.9248 13.3107 89.7748 12.8336 19.3168C14.4179 19.3398 148.187 18.9179 148.333 18.9179C148.333 22.5627 148.733 91.0083 148.684 91.4961C148.672 91.823 149.18 91.823 149.204 91.4961C149.559 84.8321 148.839 18.7984 148.829 18.6996Z" fill="#191919"/>
<path d="M36.6775 87.3451C36.6663 87.31 36.6473 87.278 36.6218 87.2514C36.5963 87.2249 36.5651 87.2045 36.5305 87.192C35.9253 85.2479 35.1211 83.3714 34.1307 81.5923C34.4194 81.1061 34.3382 77.6106 34.2693 76.7093C34.2675 76.6728 34.2577 76.6372 34.2405 76.6049C34.2234 76.5726 34.1993 76.5445 34.1701 76.5226C34.1408 76.5007 34.1071 76.4855 34.0713 76.478C34.0356 76.4706 33.9986 76.4711 33.963 76.4796C30.1253 77.1634 25.9651 78.6098 23.3732 81.5265C23.1652 81.6999 23.0067 81.9252 22.9138 82.1796C22.8533 82.4698 23.0592 82.7968 23.1557 83.064C23.8218 84.7504 24.5889 86.395 25.4529 87.9891C25.4642 88.0077 25.4799 88.0232 25.4986 88.0344C25.5172 88.0456 25.5383 88.0521 25.5601 88.0534C24.8235 89.372 25.8664 91.2694 27.1351 91.2694C27.1589 91.5114 27.2561 91.7533 27.2921 91.9838C27.5218 93.2503 27.0364 93.9624 27.1466 94.3675C27.1527 94.388 27.1633 94.4068 27.1776 94.4227C27.1919 94.4386 27.2096 94.451 27.2293 94.4592C27.2491 94.4674 27.2704 94.471 27.2917 94.4698C27.3131 94.4686 27.3339 94.4627 27.3526 94.4525C27.9391 94.0428 27.8725 91.849 27.5701 91.2089C28.0456 91.0869 28.4594 90.7938 28.7324 90.3858C28.7487 90.3573 28.7564 90.3247 28.7548 90.2919C28.7531 90.2592 28.742 90.2276 28.7229 90.2009C28.7038 90.1742 28.6775 90.1536 28.647 90.1414C28.6165 90.1292 28.5832 90.1261 28.5509 90.1323C28.1122 90.2449 27.1206 91.5167 26.1665 90.1561C25.384 89.0465 25.9246 87.7058 26.8197 87.7594C27.0215 87.7904 27.2175 87.8518 27.4008 87.9416C27.4774 87.9669 27.8557 87.8382 27.8603 87.6353C27.8848 86.6399 28.041 85.6491 28.1267 84.6582C28.1528 84.3519 28.0785 84.2715 28.3442 84.1383C30.1479 83.2676 31.9958 82.4917 33.8803 81.8136C34.0786 82.2937 34.545 83.2294 34.6254 83.4729C34.4592 83.4332 34.2861 83.4333 34.12 83.4733C33.954 83.5132 33.7997 83.5918 33.6697 83.7026C33.6457 83.7276 33.6304 83.7597 33.6262 83.7941C33.622 83.8285 33.629 83.8633 33.6463 83.8933C33.6636 83.9234 33.6901 83.947 33.722 83.9607C33.7538 83.9743 33.7892 83.9773 33.8229 83.9691C34.062 83.8899 34.3195 83.8857 34.561 83.9568C34.633 83.9714 34.7379 83.9867 34.7908 83.9331C35.2828 85.071 35.7132 86.2345 36.0802 87.4186C35.1519 88.2643 33.9816 88.7973 32.7344 88.9428C31.4871 89.0883 30.2256 88.8388 29.1275 88.2295C28.737 87.8398 28.4476 88.2517 28.6918 88.4952C29.3432 89.1357 29.804 89.9445 30.0227 90.8314C30.1582 91.4042 30.0479 91.7832 30.5793 91.9685C31.5045 92.3178 32.4762 92.5283 33.463 92.5933C33.4354 92.8851 33.5518 93.6431 33.8106 93.8093C33.8956 93.8568 34.0404 93.8208 34.0526 93.712C34.0901 93.49 33.8681 93.1286 33.7992 92.6033C35.9883 92.588 37.6507 90.5542 36.6775 87.3451ZM35.032 90.6132C34.9036 90.7351 34.742 90.8162 34.5675 90.8463C34.3931 90.8764 34.2137 90.8542 34.0518 90.7824C33.8994 90.7133 33.7678 90.6054 33.67 90.4696C33.5722 90.3338 33.5117 90.1747 33.4944 90.0083C33.4944 89.911 33.6161 89.862 33.6644 89.911C33.8819 90.1293 34.0396 90.4976 34.4025 90.4922C34.7655 90.4868 34.9722 90.0956 35.1169 89.9838C35.3888 89.7694 35.5289 90.2089 35.0297 90.6132H35.032Z" fill="#191919"/>
<path d="M34.2672 86.3772C34.4167 86.6351 34.5308 86.912 34.6064 87.2004C34.6064 87.437 34.1041 87.4829 33.8675 87.4661C33.7495 87.4661 33.5926 87.6016 33.65 87.7448C33.6657 87.7876 33.6936 87.8249 33.7302 87.8521C33.7667 87.8793 33.8105 87.8952 33.856 87.8979C34.0476 87.93 34.2442 87.9161 34.4294 87.8572C34.6146 87.7984 34.7831 87.6963 34.9211 87.5595C35.1631 87.2325 34.9448 86.8206 34.7993 86.4944C34.4922 85.7557 34.0252 85.0944 33.4318 84.5579C33.323 84.4729 33.1416 84.5816 33.2266 84.711C33.6121 85.2413 33.9599 85.7981 34.2672 86.3772Z" fill="#191919"/>
<path d="M31 85.5787C31.0801 85.4098 31.1866 85.2547 31.3154 85.1192C31.4441 85.0013 31.5199 85.0182 31.6386 84.852C31.8239 84.5916 31.5474 84.4737 31.3767 84.5189C31.2089 84.5939 31.0604 84.7062 30.9426 84.8472C30.8247 84.9883 30.7406 85.1544 30.6967 85.3329C30.6393 85.6231 30.9165 85.744 31 85.5787Z" fill="#191919"/>
<path d="M10.7877 100.259C11.1521 99.753 11.3586 99.1506 11.3811 98.5276C11.2342 97.9018 11.0318 97.2904 10.7762 96.7006C10.6428 96.0461 10.6929 95.3675 10.9209 94.7396C10.9332 94.6186 10.7639 94.5704 10.6912 94.6431C10.5274 94.8561 10.4077 95.0996 10.3391 95.3594C10.2704 95.6192 10.2543 95.8901 10.2915 96.1562C10.3459 97.3982 11.3352 98.183 10.8482 99.3025C10.5991 99.7427 10.3808 100.2 10.195 100.67C10.074 101.094 10.0618 101.771 10.5335 102.002C10.5555 102.014 10.5808 102.018 10.6056 102.014C10.6304 102.011 10.6534 101.999 10.6711 101.982C10.6888 101.964 10.7004 101.941 10.704 101.916C10.7076 101.891 10.7031 101.866 10.6912 101.844C10.5548 101.598 10.4914 101.318 10.5085 101.037C10.5255 100.757 10.6224 100.487 10.7877 100.259Z" fill="#191919"/>
<path d="M8.58569 94.7397C8.62015 94.9824 8.60943 95.3209 8.7909 95.5054C8.81298 95.5251 8.83952 95.539 8.86823 95.5461C8.89694 95.5532 8.92694 95.5531 8.95562 95.546C8.9843 95.5388 9.01079 95.5247 9.0328 95.505C9.0548 95.4852 9.07165 95.4604 9.08187 95.4327C9.19443 95.1601 8.97927 94.8316 8.93639 93.8836C8.9004 93.3629 8.88815 92.8308 8.86365 92.3101C8.85216 92.1654 8.63393 92.1286 8.60943 92.2741C8.48634 93.0908 8.47835 93.9208 8.58569 94.7397Z" fill="#191919"/>
<path d="M7.21806 95.5023C7.23079 95.6835 7.29835 95.8566 7.41178 95.9985C7.43197 96.0198 7.45752 96.0353 7.48576 96.0434C7.51399 96.0515 7.54388 96.0518 7.57229 96.0444C7.6007 96.0369 7.62659 96.022 7.64726 96.0011C7.66792 95.9803 7.68259 95.9542 7.68974 95.9257C7.73011 95.7574 7.72188 95.5811 7.666 95.4173C7.44853 94.1861 7.32693 92.9398 7.30229 91.6898C7.2908 91.5566 7.08482 91.5083 7.06032 91.6538C6.88304 92.9358 6.93646 94.2391 7.21806 95.5023Z" fill="#191919"/>
<path d="M5.66577 95.454C5.73852 95.696 5.77451 96.0589 6.04097 96.1677C6.07311 96.1783 6.108 96.1768 6.13914 96.1636C6.17028 96.1503 6.19554 96.1262 6.2102 96.0957C6.3978 95.758 5.93837 95.4946 5.53254 92.8276C5.50804 92.6584 5.21783 92.6944 5.22625 92.8644C5.2779 93.741 5.42528 94.6094 5.66577 95.454Z" fill="#191919"/>
<path d="M6.43195 101.457C5.02687 99.1601 4.74738 96.8507 4.12103 94.3775C4.08427 94.2243 3.81474 94.2565 3.84231 94.4142C4.04936 96.8392 4.7321 99.1997 5.85154 101.361C6.02076 101.667 6.22674 101.966 6.39596 102.268C6.75585 102.885 6.72446 103.012 6.91665 103.116C6.93788 103.126 6.96111 103.132 6.98478 103.133C7.00845 103.133 7.03199 103.129 7.0538 103.12C7.0756 103.111 7.09516 103.097 7.11113 103.079C7.12711 103.062 7.13913 103.041 7.14636 103.019C7.26811 102.731 6.98097 102.355 6.43195 101.457Z" fill="#191919"/>
<path d="M5.64468 97.2932C5.62885 97.3108 5.61967 97.3333 5.61873 97.3569C5.61779 97.3805 5.62515 97.4037 5.63953 97.4225C5.6539 97.4412 5.67439 97.4543 5.69744 97.4595C5.72048 97.4647 5.74462 97.4617 5.76566 97.451C7.86984 96.3744 8.50692 96.9395 9.11796 96.8338C9.25119 96.8093 9.23894 96.6401 9.15471 96.5674C8.706 96.2258 6.71744 96.2212 5.64468 97.2932Z" fill="#191919"/>
<path d="M109.69 98.6003C110.039 98.1204 110.238 97.5478 110.263 96.9548C110.126 96.3579 109.936 95.7746 109.694 95.212C109.575 94.589 109.625 93.9453 109.839 93.3483C109.851 93.2273 109.694 93.1906 109.621 93.2633C109.467 93.4668 109.354 93.6988 109.29 93.946C109.225 94.1932 109.21 94.4507 109.246 94.7036C109.299 95.8744 110.225 96.6179 109.778 97.6807C109.546 98.0991 109.34 98.5315 109.162 98.9755C109.052 99.3752 109.028 100.028 109.476 100.247C109.496 100.258 109.519 100.262 109.542 100.259C109.565 100.255 109.586 100.245 109.603 100.228C109.619 100.212 109.63 100.191 109.633 100.168C109.636 100.145 109.632 100.121 109.621 100.101C109.496 99.8681 109.436 99.6055 109.448 99.3412C109.46 99.0769 109.544 98.8209 109.69 98.6003Z" fill="#191919"/>
<path d="M107.583 93.3598C107.611 93.5895 107.606 93.9172 107.776 94.0864C107.797 94.106 107.823 94.1199 107.851 94.127C107.879 94.134 107.908 94.1339 107.935 94.1266C107.963 94.1193 107.989 94.1052 108.009 94.0854C108.03 94.0657 108.046 94.041 108.054 94.0137C108.095 93.7743 108.074 93.5285 107.994 93.2993C107.903 92.5525 107.855 91.8011 107.849 91.0488C107.837 90.9156 107.631 90.8666 107.606 91.0121C107.486 91.7895 107.478 92.5801 107.583 93.3598Z" fill="#191919"/>
<path d="M106.289 94.0865C106.306 94.2573 106.368 94.4205 106.471 94.5582C106.491 94.5769 106.515 94.5902 106.542 94.5967C106.569 94.6033 106.597 94.603 106.623 94.5958C106.65 94.5886 106.674 94.5748 106.694 94.5556C106.714 94.5364 106.728 94.5125 106.736 94.4862C106.777 94.3259 106.769 94.1571 106.713 94.0015C106.508 92.8298 106.391 91.6445 106.361 90.4555C106.35 90.3345 106.156 90.2863 106.131 90.4195C105.965 91.6414 106.018 92.8834 106.289 94.0865Z" fill="#191919"/>
<path d="M104.812 94.0382C104.879 94.2679 104.922 94.6186 105.164 94.7159C105.196 94.725 105.231 94.7227 105.261 94.7095C105.292 94.6963 105.318 94.6728 105.333 94.6431C105.52 94.3062 105.027 93.9877 104.691 91.5328C104.668 91.3628 104.389 91.4118 104.401 91.5688C104.448 92.4045 104.585 93.2326 104.812 94.0382Z" fill="#191919"/>
<path d="M105.539 99.7505C104.197 97.5299 103.965 95.5391 103.336 93.0214C103.3 92.8759 103.046 92.9004 103.069 93.0574C103.271 95.3638 103.921 97.6085 104.984 99.6655C105.153 99.9557 105.334 100.247 105.504 100.537C105.851 101.131 105.801 101.256 106 101.348C106.019 101.358 106.041 101.365 106.063 101.366C106.085 101.368 106.108 101.364 106.128 101.356C106.149 101.348 106.168 101.336 106.183 101.32C106.199 101.304 106.211 101.285 106.218 101.264C106.309 101.032 106.175 100.803 105.539 99.7505Z" fill="#191919"/>
<path d="M107.257 94.9096C106.808 94.8788 106.357 94.9401 105.933 95.0898C105.508 95.2395 105.119 95.4745 104.788 95.7802C104.703 95.8652 104.812 95.9747 104.909 95.9257C106.859 94.9303 107.573 95.4395 108.093 95.3453C108.225 95.3208 108.213 95.1638 108.128 95.0911C107.86 94.9521 107.559 94.8894 107.257 94.9096Z" fill="#191919"/>
<path d="M60.6752 92.7672C60.3238 92.4647 59.8758 92.3315 59.5129 92.065C59.1492 91.7444 58.7353 91.4857 58.2877 91.2993C58.083 91.2306 57.8646 91.2125 57.6513 91.2463C57.438 91.2802 57.236 91.3651 57.0626 91.4938C55.8374 92.4011 56.0672 93.0252 56.2272 93.9984C56.3061 94.5597 56.2815 95.1306 56.1544 95.683C56.147 95.7108 56.1498 95.7403 56.1622 95.7663C56.1746 95.7922 56.1958 95.8129 56.2221 95.8246C56.2484 95.8363 56.278 95.8383 56.3056 95.8302C56.3332 95.822 56.357 95.8043 56.3727 95.7802C57.1384 94.402 56.0503 93.2013 56.7356 92.3675C56.9471 92.0649 57.2411 91.8294 57.5825 91.689C58.3482 91.4593 59.0106 92.3307 59.604 92.6577C59.9415 92.7885 60.2469 92.9906 60.4991 93.2503C60.553 93.3053 60.5926 93.3726 60.6145 93.4464C60.6365 93.5202 60.6401 93.5982 60.625 93.6737C60.6099 93.7491 60.5766 93.8198 60.5279 93.8795C60.4793 93.9391 60.4168 93.986 60.346 94.016C60.0672 94.111 59.7704 94.1408 59.4784 94.1031C59.1864 94.0654 58.9069 93.9613 58.6614 93.7986C58.5082 93.6706 58.3465 93.5532 58.1775 93.4471C58.068 93.3866 57.9715 93.4954 58.0197 93.6048C58.2778 93.931 58.6174 94.1833 59.0042 94.3363C59.391 94.4893 59.8113 94.5376 60.2227 94.4762C60.4226 94.4727 60.616 94.4041 60.7734 94.2807C60.9308 94.1574 61.0436 93.986 61.0948 93.7927C61.146 93.5994 61.1327 93.3947 61.057 93.2096C60.9813 93.0245 60.8472 92.8692 60.6752 92.7672Z" fill="#191919"/>
<path d="M59.5494 91.2786C60.0778 90.3314 60.5541 88.7908 60.9898 88.1078C61.0617 87.999 61.1429 87.9018 61.2195 87.7931C61.0752 89.0656 60.8283 90.3245 60.4813 91.5573C60.4568 91.7265 60.6988 91.8835 60.796 91.6898C61.21 90.5008 61.4821 89.2671 61.6069 88.0144C61.6307 87.8084 61.6429 87.5419 61.4614 87.4087C60.9553 86.9822 60.3366 88.4899 60.0939 89.1032C59.7918 89.778 59.5252 90.468 59.2952 91.1706C59.2877 91.2028 59.2917 91.2366 59.3066 91.2661C59.3216 91.2956 59.3464 91.3188 59.3769 91.3317C59.4073 91.3446 59.4413 91.3464 59.4728 91.3367C59.5044 91.327 59.5316 91.3064 59.5494 91.2786Z" fill="#191919"/>
<path d="M60.7353 92.4042C60.6587 92.5359 60.8441 92.6944 60.9528 92.5734C61.1632 92.3302 61.4178 92.1291 61.7032 91.9808C62.2063 91.7288 62.2867 92.0168 62.5018 92.0535C62.7315 92.1102 62.8318 91.6707 62.2721 91.5175C61.9575 91.5 61.6446 91.5746 61.3717 91.7321C61.0988 91.8895 60.8777 92.1231 60.7353 92.4042Z" fill="#191919"/>
<path d="M61.5342 93.0818C61.4254 93.1668 61.5701 93.3361 61.6789 93.2756C62.0212 93.0765 62.2654 92.8085 62.502 92.6707C62.8902 92.4762 63.0158 92.7112 63.2164 92.7916C63.417 92.872 63.5135 92.4302 63.035 92.271C62.3458 92.0389 61.8014 92.872 61.5342 93.0818Z" fill="#191919"/>
<path d="M63.4944 93.7113C63.3933 93.196 62.7011 93.3009 62.3083 93.7718C62.224 93.8683 62.3328 94.0498 62.4538 93.9655C62.5625 93.8928 63.0104 93.6263 63.1314 93.7718C63.1796 93.8323 63.1314 94.062 63.1077 94.1348C62.8634 95.3561 60.2271 96.6869 60.2271 97.9832C60.2287 98.0138 60.2399 98.043 60.2591 98.0668C60.2783 98.0906 60.3045 98.1078 60.334 98.1158C60.3635 98.1239 60.3948 98.1224 60.4234 98.1117C60.4521 98.101 60.4766 98.0815 60.4935 98.056C60.7522 97.5278 61.0954 97.0454 61.5096 96.6279C62.1383 95.9817 63.7149 94.8285 63.4944 93.7113Z" fill="#191919"/>
<path d="M59.7792 98.4189C58.4266 97.8543 57.1565 97.1094 56.0035 96.2045C55.9537 96.1773 55.8968 96.1661 55.8404 96.1726C55.7841 96.179 55.7311 96.2027 55.6888 96.2405C53.951 97.6377 52.3833 99.2342 51.0179 100.997C50.6487 102.261 50.4373 103.566 50.3885 104.882C50.3879 104.92 50.3739 104.956 50.3489 104.985C50.3239 105.014 50.2895 105.033 50.2518 105.039C50.2141 105.045 50.1756 105.037 50.143 105.017C50.1105 104.997 50.0859 104.967 50.0738 104.931C49.7529 103.878 50.2231 102.251 50.6182 101.009C50.328 100.718 48.5975 99.0001 48.0408 98.4312C45.2115 95.598 42.1931 92.2289 37.9832 92.1523C36.8559 92.1213 35.7414 92.3979 34.7595 92.9525C33.9524 93.4188 33.5145 94.3882 31.1476 94.6149C30.0791 94.7329 28.9982 94.6695 27.9508 94.4273C27.0855 94.121 27.7379 93.7014 25.8443 93.7014C22.0862 93.8017 18.9529 97.167 17.1795 100.539C16.3297 102.203 15.6044 103.928 15.0094 105.699C15.5531 106.599 17.3893 110.026 17.4942 111.069C17.5057 111.238 17.2882 111.262 17.2032 111.141C16.7614 110.507 16.7851 109.869 15.3272 107.183C14.3854 105.285 13.0288 103.622 11.3577 102.319C10.9427 101.972 10.8485 101.926 10.2566 102.185C10.1135 102.249 6.94416 103.558 6.86759 103.589C6.81265 103.606 6.76435 103.639 6.72956 103.685C6.69478 103.73 6.67529 103.786 6.67387 103.843C6.64247 104.325 8.01157 109.771 11.3822 114.953C12.4106 116.527 13.6794 118.088 15.5332 118.705C17.5501 119.394 19.0593 118.716 20.5555 117.192C21.8639 115.832 23.0057 114.321 23.9568 112.69C23.6007 111.268 22.9147 108.454 22.662 107.002C22.655 106.966 22.662 106.929 22.6814 106.898C22.7009 106.867 22.7315 106.844 22.7669 106.835C22.8022 106.826 22.8398 106.83 22.872 106.848C22.9041 106.865 22.9284 106.894 22.9399 106.929C24.1858 110.931 24.1727 113.966 27.757 119.939C27.793 120 27.851 120.043 27.9188 120.062C27.9866 120.08 28.0587 120.071 28.12 120.037C34.6898 116.883 41.582 114.585 48.6702 116.357C48.7 116.365 48.7311 116.366 48.7613 116.36C48.7915 116.354 48.8199 116.341 48.8443 116.322C48.8687 116.304 48.8886 116.28 48.9024 116.252C48.9161 116.225 48.9234 116.194 48.9237 116.164C48.8547 114.971 48.5549 113.804 48.0408 112.726C46.6924 109.677 44.1602 105.369 44.2038 101.894C44.2038 101.761 44.422 101.725 44.4458 101.859C45.1066 105.735 45.8287 106.899 48.125 111.736C50.7851 111.918 52.6244 111.568 54.3342 109.522C56.8578 106.296 58.7654 102.632 59.9615 98.7145C60.0089 98.6004 59.9125 98.4664 59.7792 98.4189ZM38.2489 109.057C37.6102 108.646 37.0176 108.167 36.4816 107.629C35.9588 107.103 35.54 106.483 35.2473 105.802C35.199 105.681 35.405 105.596 35.4655 105.705C36.199 107.228 37.8683 108.288 38.4058 108.851C38.4293 108.873 38.4438 108.903 38.4465 108.935C38.4491 108.967 38.4398 108.999 38.4203 109.025C38.4007 109.05 38.3724 109.068 38.3408 109.074C38.3091 109.08 38.2763 109.074 38.2489 109.057Z" fill="#38A1FF"/>
<path d="M88.8497 82.9882C86.5755 77.3901 77.5714 77.5838 75.8754 84.8259C75.5573 86.0797 75.5138 87.3874 75.7479 88.6595C75.9819 89.9317 76.488 91.1382 77.2315 92.1967C77.3034 92.2817 77.4489 92.209 77.3846 92.1002C76.266 90.2037 75.7946 87.9948 76.0415 85.8068C76.7897 80.0065 82.4177 78.0823 86.1107 80.348C88.2401 81.6681 88.9285 83.5908 89.051 86.0243C89.1518 87.3266 88.9562 88.6349 88.4787 89.8508C88.0013 91.0667 87.2545 92.1585 86.2945 93.0443C86.113 93.1975 86.3795 93.4555 86.5487 93.2978C89.6138 90.7296 90.0388 85.9132 88.8497 82.9882Z" fill="#191919"/>
<path d="M82.8584 88.156C82.5688 88.196 82.2895 88.2906 82.0352 88.4347C81.9142 88.4952 81.9992 88.6767 82.1202 88.6522C83.0812 88.3903 83.5598 88.5121 83.7282 88.4102C83.7478 88.3991 83.7645 88.3834 83.7768 88.3645C83.7891 88.3456 83.7968 88.3241 83.7992 88.3016C83.8016 88.2792 83.7987 88.2565 83.7906 88.2355C83.7825 88.2144 83.7695 88.1956 83.7527 88.1805C83.4622 88.0919 83.1532 88.0834 82.8584 88.156Z" fill="#191919"/>
<path d="M78.0053 88.1338C77.9807 88.14 77.9591 88.1549 77.9447 88.1757C77.9303 88.1966 77.924 88.2221 77.927 88.2473C77.93 88.2725 77.9421 88.2957 77.9611 88.3126C77.98 88.3295 78.0045 88.3389 78.0298 88.3391C78.5912 88.3536 79.1501 88.4185 79.6999 88.5328C79.7386 88.523 79.7734 88.5015 79.7994 88.4712C79.8255 88.4409 79.8415 88.4033 79.8454 88.3636C79.8454 88.0259 78.6126 87.9447 78.0053 88.1338Z" fill="#191919"/>
<path d="M80.9219 88.035C80.8982 87.914 80.7167 87.95 80.7167 88.0595C80.7294 88.6532 80.5224 89.2307 80.1355 89.6813C80.0383 89.79 79.8936 89.8865 79.8936 90.0442C79.8936 90.3865 80.7535 90.8413 80.9464 90.6009C80.9697 90.574 80.9826 90.5396 80.9826 90.504C80.9826 90.4685 80.9697 90.4341 80.9464 90.4072C80.8737 90.3107 80.6922 90.3222 80.5835 90.2862C80.4977 90.2517 80.2565 90.1124 80.2565 90.0565C80.525 89.8001 80.7261 89.4816 80.8422 89.129C80.9583 88.7764 80.9856 88.4007 80.9219 88.035Z" fill="#191919"/>
<path d="M80.5466 92.4401C80.7053 92.5049 80.8755 92.5362 81.0468 92.5321C81.2181 92.528 81.3867 92.4886 81.5421 92.4164C81.661 92.3661 81.7624 92.2818 81.8335 92.174C81.9046 92.0662 81.9423 91.9398 81.9418 91.8107C81.9781 91.5541 81.936 91.2925 81.8208 91.0603C81.6776 90.8811 81.4793 91.0006 81.4984 91.2066C81.5448 91.3383 81.5668 91.4774 81.5635 91.617C81.5674 91.7261 81.5508 91.8349 81.5145 91.9378C81.3665 92.0563 81.1866 92.1283 80.9977 92.1445C80.8088 92.1607 80.6193 92.1205 80.4532 92.0289C80.2419 91.9455 80.1462 92.2518 80.5466 92.4401Z" fill="#191919"/>
<path d="M27.6831 120.167C26.5575 122.072 24.2183 130.674 24.2458 131.665C24.2458 131.809 24.4641 131.882 24.5246 131.737C24.8309 131.125 25.1992 128.3 27.0415 122.818C27.3026 121.976 27.6057 121.148 27.9496 120.337C28.0461 120.141 27.7903 119.988 27.6831 120.167Z" fill="#191919"/>
<path d="M48.9594 116.634C48.9494 116.597 48.9254 116.566 48.8927 116.548C48.86 116.529 48.8213 116.523 48.7847 116.533C48.7482 116.542 48.7168 116.566 48.6974 116.598C48.6779 116.63 48.6719 116.669 48.6807 116.706C49.5058 120.171 50.0881 123.689 50.4235 127.235C50.6164 129.866 50.5942 129.809 50.6662 130.237C50.7022 130.442 50.9802 130.37 50.9924 130.188C51.1394 128.373 50.314 120.753 48.9594 116.634Z" fill="#191919"/>
<path d="M41.6863 126.291C41.2476 126.406 38.7146 128.741 37.6564 131.386C37.6074 131.519 37.8133 131.604 37.8861 131.483C38.5216 130.282 39.2976 129.161 40.1978 128.143C40.1495 128.699 40.1373 129.268 40.125 129.828C40.0511 130.444 40.0632 131.067 40.161 131.68C40.1705 131.713 40.1906 131.743 40.2183 131.763C40.2459 131.784 40.2796 131.796 40.3142 131.796C40.3488 131.796 40.3825 131.784 40.4101 131.763C40.4377 131.743 40.4578 131.713 40.4673 131.68C40.5745 131.069 40.6072 130.447 40.5646 129.828C40.5961 129.149 40.5851 128.468 40.5316 127.79C40.6082 127.717 40.6251 127.686 40.6978 127.613C41.4918 126.819 41.6986 126.784 41.8349 126.524C41.916 126.388 41.8196 126.256 41.6863 126.291Z" fill="#191919"/>
<path d="M41.3714 117.239C41.3469 117.093 41.105 117.129 41.105 117.275C41.19 118.729 41.3347 120.167 41.4197 121.619C41.51 122.974 41.5813 125.754 41.6617 125.952C41.6717 125.983 41.6912 126.01 41.7173 126.029C41.7435 126.048 41.7749 126.058 41.8071 126.058C41.8394 126.058 41.8708 126.048 41.8969 126.029C41.9231 126.01 41.9426 125.983 41.9526 125.952C42.0063 123.037 41.8119 120.122 41.3714 117.239Z" fill="#191919"/>
<path d="M39.7978 124.5C39.7874 125.248 39.8606 125.995 40.016 126.727C40.0231 126.752 40.0382 126.773 40.0589 126.789C40.0796 126.805 40.1049 126.813 40.1308 126.813C40.1568 126.813 40.1821 126.805 40.2028 126.789C40.2235 126.773 40.2386 126.752 40.2457 126.727C40.298 126.366 40.3021 126 40.2579 125.638C40.0619 122.607 39.9195 120.322 39.5688 117.758C39.5566 117.625 39.3506 117.625 39.3628 117.758C39.454 120.031 39.6569 122.31 39.7978 124.5Z" fill="#191919"/>
<path d="M90.3624 118.69C90.1111 118.425 89.8261 118.193 89.5148 118.001C89.563 117.651 89.7261 117.045 89.7208 116.827C89.1848 116.589 83.582 113.716 83.1732 113.5C82.683 113.266 82.2141 112.99 81.7719 112.675C75.9785 115.572 76.2381 115.671 74.9195 116.197C75.0065 116.837 75.1318 117.472 75.2947 118.097C72.709 119.664 70.6616 121.982 69.4248 124.741C69.016 125.514 68.7339 126.348 68.5894 127.211C68.5901 127.252 68.604 127.291 68.6292 127.324C68.6544 127.356 68.6894 127.38 68.729 127.39C68.7685 127.401 68.8106 127.399 68.8488 127.384C68.887 127.369 68.9193 127.342 68.9408 127.307C69.5205 126.082 69.4531 125.421 70.7785 123.265C74.6209 117.118 78.8132 116.874 86.076 117.77C89.4696 118.199 89.5087 118.419 90.8234 120.034C92.4753 122.126 93.8616 124.415 94.9506 126.848C95.76 128.603 95.8503 129.1 96.1849 129.633C96.2043 129.664 96.2343 129.687 96.2695 129.698C96.3046 129.709 96.3425 129.707 96.3763 129.692C96.4101 129.678 96.4374 129.651 96.4533 129.618C96.4692 129.585 96.4726 129.547 96.4629 129.512C96.358 128.576 93.7691 122.217 90.3624 118.69Z" fill="#191919"/>
<path d="M96.1351 104.458C96.1089 101.527 95.3207 98.6535 93.8479 96.1194C93.2203 95.0322 92.2038 94.2233 91.0033 93.856C90.2003 93.6238 89.3569 93.5659 88.5297 93.6862C87.7024 93.8065 86.9105 94.1023 86.2069 94.5536C85.8889 93.5089 85.8103 92.406 85.9771 91.3268C86.1887 91.3137 86.3952 91.2573 86.5841 91.1611C86.7729 91.0649 86.94 90.931 87.075 90.7676C87.21 90.6042 87.31 90.4149 87.369 90.2113C87.4279 90.0078 87.4444 89.7943 87.4175 89.5841C87.3187 88.8949 86.775 88.2938 86.1464 88.4102C86.1464 88.1591 86.053 88.1759 85.8079 87.3574L85.7352 87.1399C85.7545 87.138 85.7731 87.1317 85.7897 87.1215C85.8062 87.1114 85.8202 87.0976 85.8307 87.0812C85.8411 87.0649 85.8478 87.0464 85.8501 87.0271C85.8523 87.0078 85.8502 86.9883 85.8439 86.9699C85.4251 85.8328 79.8713 84.5196 77.8322 85.6391C77.82 85.6206 77.8026 85.6061 77.7822 85.5973C77.7618 85.5885 77.7393 85.5859 77.7175 85.5897C77.6956 85.5935 77.6753 85.6036 77.6591 85.6188C77.6429 85.634 77.6315 85.6535 77.6263 85.6751C77.4529 86.7723 77.36 87.8807 77.3483 88.9914C77.3207 91.3314 77.9907 94.0497 80.3132 94.4012C80.2917 94.7583 80.2342 95.1123 80.1416 95.4579C78.3522 94.4035 76.0244 94.8644 74.3949 96.0352C72.5189 97.3783 71.3696 99.4603 70.2923 101.444C68.3305 105.052 65.2906 111.399 67.8113 114.624C68.5039 115.455 69.4608 116.023 70.522 116.232C71.9464 116.509 73.4178 116.416 74.7962 115.963C75.3735 115.68 79.4847 113.16 87.9259 109.334C84.9067 107.916 80.6998 108.492 77.4815 109.346C75.9389 109.721 74.4502 110.29 73.0511 111.04C72.5044 111.448 72.3237 111.098 72.5626 110.849C73.199 110.416 73.8878 110.065 74.6124 109.806C74.6136 108.859 74.7861 107.92 75.1216 107.035C75.2123 106.72 75.3736 106.43 75.5933 106.188C75.6158 106.168 75.6441 106.155 75.6741 106.151C75.7042 106.148 75.7346 106.154 75.7611 106.168C75.7877 106.183 75.8091 106.205 75.8224 106.233C75.8356 106.26 75.8401 106.29 75.8353 106.32C75.7395 106.941 75.1392 107.369 74.9761 109.661C77.1046 108.925 79.3088 108.43 81.5475 108.184C83.837 107.954 86.3853 107.973 88.3003 109.237C88.6435 109.168 88.9918 109.128 89.3417 109.116C89.3417 109.039 89.3731 108.614 89.3777 108.536C89.4052 108.084 89.3899 105.954 89.3899 105.788C89.3899 105.643 89.6319 105.594 89.6564 105.751C89.8041 106.871 89.8405 108.002 89.7651 109.128C90.1276 109.148 90.4878 109.196 90.8425 109.274C91.1204 109.334 91.5492 109.38 91.7016 109.637C91.7123 109.656 91.7186 109.678 91.7201 109.7C91.7216 109.722 91.7182 109.744 91.7102 109.765C91.7021 109.786 91.6897 109.805 91.6737 109.82C91.6576 109.836 91.6384 109.848 91.6174 109.855C91.3992 109.928 91.2008 109.789 90.7697 109.709C89.9162 109.54 89.0398 109.519 88.1793 109.649C86.6977 110.323 85.1326 111.02 82.0536 112.541C82.5896 112.719 84.6134 113.762 84.801 113.86C90.8923 116.995 91.197 117.408 92.9092 116.414C93.9992 115.705 94.8345 114.666 95.2936 113.449C96.227 111.193 96.25 106.888 96.1351 104.458ZM81.987 100.936C81.4318 99.1246 80.9773 97.2841 80.6256 95.4226C80.7103 95.1051 80.7411 94.7756 80.7167 94.4479C81.8013 94.4589 82.8475 94.0469 83.6333 93.2993C84.0685 92.9646 84.4204 92.5337 84.6616 92.0405C84.7221 91.8828 84.5085 91.8108 84.4074 91.895C83.8505 92.6042 83.1701 93.207 82.399 93.6745C82.0276 93.8743 81.6203 93.9985 81.2007 94.0399C80.781 94.0813 80.3573 94.0391 79.954 93.9157C79.5326 93.7505 79.1544 93.4915 78.8482 93.1582C78.5419 92.8249 78.3157 92.4261 78.1868 91.9922C77.3613 89.81 77.9433 86.914 77.8966 85.9041C78.4002 85.7606 78.9139 85.6554 79.4333 85.5893C81.0671 85.475 82.7056 85.7318 84.226 86.3405C84.7135 86.4947 85.1602 86.7563 85.533 87.1062C85.5308 87.2233 85.5349 87.3403 85.5453 87.4569C85.6004 87.7748 85.698 88.0839 85.8355 88.3758C85.8665 88.4242 85.9078 88.4652 85.9565 88.496C85.8475 88.5467 85.7583 88.632 85.703 88.7387C85.6901 88.7644 85.6866 88.7938 85.6932 88.8218C85.6997 88.8498 85.7159 88.8746 85.7389 88.8918C85.7619 88.9091 85.7903 88.9177 85.819 88.9162C85.8477 88.9146 85.8749 88.9031 85.896 88.8834C86.236 88.532 87.0147 88.9815 87.0445 89.8023C87.0468 89.9617 87.0158 90.1199 86.9536 90.2667C86.8914 90.4135 86.7993 90.5457 86.6832 90.655C86.5671 90.7642 86.4295 90.8481 86.2792 90.9013C86.1289 90.9545 85.9692 90.9758 85.8102 90.9639C85.7664 90.9629 85.7235 90.9766 85.6884 91.0028C85.6533 91.0291 85.628 91.0663 85.6165 91.1086C85.4472 92.0197 85.4472 92.9541 85.6165 93.8652C85.6471 94.0505 85.7298 94.6477 85.9266 94.807C85.7137 95.186 82.0383 100.859 81.987 100.936Z" fill="#191919"/>
<path d="M124.31 88.7249C124.089 88.865 124.094 89.2387 123.717 89.3421C123.403 89.37 123.09 89.2744 122.845 89.0756C122.824 89.0557 122.797 89.0438 122.768 89.0422C122.739 89.0406 122.71 89.0493 122.687 89.0667C122.664 89.0841 122.648 89.1092 122.641 89.1375C122.635 89.1658 122.639 89.1954 122.652 89.2211C122.776 89.3989 122.947 89.5385 123.146 89.624C123.345 89.7096 123.564 89.7376 123.778 89.705C123.922 89.6695 124.058 89.6033 124.175 89.5108C124.292 89.4183 124.387 89.3018 124.455 89.169C124.527 89.0797 124.565 88.9686 124.564 88.8543C124.561 88.8259 124.552 88.7987 124.536 88.7751C124.52 88.7515 124.498 88.7323 124.473 88.7194C124.447 88.7065 124.419 88.7002 124.391 88.7011C124.362 88.7021 124.334 88.7103 124.31 88.7249Z" fill="#191919"/>
<path d="M126.306 107.29C126.217 107.221 126.112 107.175 126 107.157C125.234 106.901 124.891 105.712 124.329 105.075C123.817 104.592 123.239 104.185 122.611 103.865C122.453 103.732 122.325 103.567 122.236 103.381C122.139 103.188 121.897 103.333 121.921 103.514C122.052 104.342 123.312 104.463 124.112 105.402C124.656 106.052 124.816 106.893 125.625 107.387C125.806 107.484 126.097 107.629 126.29 107.508C126.306 107.495 126.318 107.479 126.328 107.461C126.337 107.443 126.342 107.423 126.344 107.403C126.345 107.382 126.343 107.362 126.336 107.343C126.33 107.324 126.32 107.306 126.306 107.29Z" fill="#191919"/>
<path d="M119.565 105.559C120.146 105.885 120.775 106.118 121.429 106.248C121.695 106.297 122.143 106.43 122.385 106.248C122.401 106.238 122.414 106.225 122.424 106.209C122.434 106.194 122.441 106.176 122.443 106.158C122.445 106.139 122.444 106.121 122.438 106.103C122.432 106.085 122.423 106.069 122.41 106.055C122.16 105.806 121.969 105.992 120.643 105.583C120.064 105.355 119.499 105.097 118.948 104.809C118.923 104.802 118.897 104.804 118.872 104.812C118.848 104.821 118.827 104.836 118.811 104.857C118.795 104.877 118.786 104.902 118.785 104.928C118.783 104.954 118.79 104.979 118.803 105.002C119.014 105.241 119.274 105.431 119.565 105.559Z" fill="#191919"/>
<path d="M121.417 107.736C121.735 107.775 121.769 107.777 121.973 107.676C122.058 107.639 122.034 107.53 121.973 107.481C121.646 107.321 121.294 107.214 120.933 107.167C119.885 106.822 118.965 106.168 118.295 105.291C118.185 105.158 117.989 105.327 118.065 105.473C118.431 106.066 118.919 106.575 119.497 106.965C120.075 107.356 120.729 107.618 121.417 107.736Z" fill="#191919"/>
<path d="M119.384 108.113C119.653 108.266 120.715 108.802 121.006 108.694C121.025 108.687 121.043 108.675 121.058 108.661C121.073 108.646 121.085 108.629 121.092 108.609C121.1 108.59 121.104 108.569 121.104 108.549C121.104 108.528 121.099 108.507 121.091 108.488C120.878 108.135 119.712 108.225 118.306 106.818C118.285 106.798 118.258 106.786 118.229 106.785C118.2 106.783 118.172 106.792 118.148 106.809C118.125 106.827 118.109 106.852 118.103 106.88C118.096 106.908 118.1 106.938 118.113 106.964C118.431 107.45 118.868 107.846 119.384 108.113Z" fill="#191919"/>
<path d="M122.627 110.449C120.816 109.892 119.784 109.663 118.525 108.404C118.504 108.384 118.477 108.373 118.449 108.372C118.421 108.37 118.393 108.379 118.371 108.397C118.349 108.415 118.334 108.44 118.329 108.468C118.323 108.495 118.329 108.524 118.343 108.548C119.456 110.47 122.569 110.577 124.443 111.598C124.688 111.766 124.952 111.905 125.229 112.01C125.254 112.016 125.281 112.015 125.305 112.006C125.329 111.998 125.35 111.982 125.366 111.961C125.381 111.941 125.39 111.916 125.392 111.89C125.394 111.865 125.388 111.839 125.375 111.817C125.041 111.204 123.297 110.656 122.627 110.449Z" fill="#191919"/>
<path d="M130.869 95.1516C129.421 95.2006 127.978 95.3462 126.549 95.5873C122.996 96.1591 119.523 97.146 116.201 98.5276C116.137 98.544 116.078 98.5763 116.03 98.6214C115.982 98.6666 115.946 98.7232 115.925 98.786C115.905 98.8487 115.9 98.9157 115.913 98.9805C115.925 99.0454 115.953 99.1061 115.995 99.1571C117.798 102.199 118.107 102.919 119.117 104.531C119.202 104.676 119.408 104.555 119.347 104.398C118.634 102.858 116.659 99.507 116.491 99.2421C116.28 98.873 116.261 98.9358 116.394 98.8669C120.654 97.1125 125.154 96.0108 129.743 95.5988C130.069 95.5751 130.384 95.5505 130.699 95.5023C130.824 95.8592 130.982 96.2037 131.171 96.5314C134.829 104.091 135.183 106.369 135.697 107.218C135.758 107.326 135.976 107.29 135.952 107.145C135.831 105.822 131.297 95.1991 130.869 95.1516Z" fill="#191919"/>
<path d="M129.623 113.971C128.662 113.894 124.5 114.729 123.559 114.927C121.899 111.209 121.866 111.124 121.645 110.848C121.572 110.751 121.426 110.86 121.451 110.957C121.549 111.447 123.266 115.141 123.302 115.217C123.397 115.404 123.391 115.272 126.582 114.709C127.621 114.604 128.651 114.434 129.669 114.2C129.792 114.168 129.756 113.981 129.623 113.971Z" fill="#191919"/>
<path d="M139.934 93.1424C138.599 90.751 136.827 90.2373 134.162 90.5642C132.835 90.6848 131.551 91.096 130.4 91.7687C129.866 90.5539 129.557 89.2518 129.49 87.9263C129.746 87.9091 129.991 87.8128 130.191 87.6505C130.39 87.4883 130.534 87.2681 130.603 87.0205C133.854 85.2165 134.021 81.3718 132.441 78.0616C129.782 72.5385 121.726 73.4451 119.262 78.0739C118.708 78.9938 118.513 80.0849 118.712 81.1397C118.911 82.1944 119.491 83.139 120.342 83.7938C118.478 84.424 118.585 86.6897 120.303 87.0059C120.273 89.006 120.549 90.9011 122.396 91.6416C122.865 91.8335 123.366 91.9318 123.873 91.931C123.891 92.3422 123.856 92.754 123.768 93.1562C122.589 92.8769 121.379 92.7538 120.169 92.7901C116.535 92.8667 114.962 95.9985 113.634 99.3493C113.092 100.615 112.681 101.933 112.408 103.283C112.408 103.427 112.627 103.501 112.687 103.355C112.899 102.813 113.081 102.259 113.232 101.697C113.765 100.06 114.412 98.463 115.168 96.9166C116.124 95.0888 117.624 93.4073 119.791 93.2373C121.098 93.1738 122.408 93.2469 123.7 93.4556C123.692 93.482 123.69 93.5098 123.695 93.5371C123.699 93.5644 123.709 93.5904 123.724 93.6133C124.39 94.3867 125.552 94.3867 126.496 94.3262C127.598 94.3159 128.671 93.9794 129.582 93.3591C131.258 92.101 129.65 92.2986 131.98 91.5068C133.698 90.9218 136.106 90.5351 137.679 91.3613C138.937 92.0413 139.626 93.3836 140.195 94.6899C141.129 96.9001 141.768 99.2235 142.096 101.6C142.434 103.947 142.67 108.463 142.096 110.762C141.36 113.756 139.127 115.218 136.165 115.191C134.565 115.076 132.99 114.721 131.495 114.138C129.81 113.606 125.675 112.301 125.285 112.166C125.884 110.676 126.318 109.126 126.581 107.542C126.605 107.434 126.605 107.325 126.726 107.276C126.844 107.242 126.966 107.226 127.089 107.228C129.544 106.975 132.022 107.044 134.459 107.434C135.509 107.599 136.547 107.825 137.57 108.111C137.715 108.148 137.872 108.148 138.029 108.172C138.066 108.171 138.101 108.158 138.13 108.136C138.159 108.113 138.18 108.082 138.189 108.046C138.199 108.011 138.197 107.973 138.183 107.939C138.17 107.905 138.145 107.876 138.114 107.857C137.617 107.609 138.098 107.754 136.492 107.349C133.44 106.641 130.291 106.441 127.174 106.756C125.817 106.901 126.459 106.938 125.489 110.29C124.897 112.345 124.87 112.446 125.102 112.516C126.857 113.074 132.085 114.743 132.944 115.01C135.318 115.727 137.878 115.977 140.036 114.538C140.779 120.637 140.846 120.239 140.702 120.311C140.601 120.349 140.495 120.37 140.387 120.371C136.65 120.971 132.867 121.234 129.083 121.158C124.968 121.158 120.915 121.122 116.969 120.251C117.039 116.602 117.326 112.961 117.828 109.346C117.84 109.189 117.598 109.164 117.562 109.31C117.409 110.012 117.284 110.725 117.174 111.44C116.887 111.44 115.987 112.796 113.919 113.291C113.312 113.446 112.679 113.477 112.059 113.381C111.439 113.286 110.845 113.066 110.313 112.735C107.403 110.876 106.581 104.678 105.774 101.528C106.968 101.563 108.225 100.877 109.369 100.39C109.466 100.342 109.561 100.303 109.659 100.257C109.969 100.11 109.895 100.171 110.361 100.793C113.002 104.485 113.203 107.292 113.665 108.151C113.716 108.246 113.836 108.187 113.846 108.103C113.779 107.188 113.566 106.289 113.217 105.44C112.605 103.731 111.762 102.115 110.712 100.636C109.905 99.5346 110.16 99.6165 108.568 100.321C105.973 101.516 105.428 101.082 105.493 101.398C105.478 101.411 105.467 101.428 105.46 101.447C105.454 101.466 105.453 101.487 105.457 101.506C105.84 104.412 106.584 107.258 107.672 109.979C108.132 111.15 108.892 112.179 109.875 112.965C112.045 114.544 115.311 113.893 117.111 111.961C116.755 114.763 116.565 117.584 116.543 120.409C116.546 120.455 116.563 120.498 116.591 120.535C116.619 120.571 116.657 120.599 116.7 120.614C120.64 121.362 124.649 121.683 128.658 121.57C132.682 121.676 136.706 121.393 140.676 120.723C140.779 120.72 140.879 120.687 140.965 120.63C141.05 120.572 141.118 120.491 141.159 120.396C141.198 120.134 141.181 119.866 141.111 119.61C141.038 119.029 140.966 118.448 140.882 117.879C140.409 114.15 140.449 114.356 140.336 114.297C142.44 112.68 142.81 110.135 142.854 107.47C142.933 102.877 142.193 97.0758 139.934 93.1424ZM119.407 85.4753C119.455 85.1707 119.594 84.8877 119.806 84.664C120.018 84.4402 120.293 84.2863 120.595 84.2226C120.762 84.225 120.928 84.2623 121.08 84.332C121.233 84.4017 121.369 84.5024 121.48 84.6276C121.592 84.7528 121.676 84.8998 121.728 85.0593C121.78 85.2188 121.798 85.3873 121.781 85.5541C121.741 85.8112 121.623 86.0499 121.444 86.2381C121.264 86.4263 121.031 86.5551 120.776 86.607C120.61 86.6368 120.439 86.63 120.275 86.5871C120.112 86.5442 119.96 86.4662 119.829 86.3584C119.699 86.2507 119.594 86.1159 119.521 85.9634C119.448 85.8109 119.409 85.6443 119.407 85.4753ZM127.42 93.7718C126.321 94.0354 125.165 93.9349 124.128 93.4854C124.292 92.9785 124.305 92.4345 124.165 91.9203C125.784 91.7033 127.252 90.8601 128.256 89.5718C128.368 89.4294 128.145 89.1821 127.965 89.3421C127.245 90.0766 126.416 90.6964 125.508 91.1799C123.739 91.9877 121.527 91.5573 120.914 89.5581C120.694 88.7462 120.6 87.9053 120.635 87.0649C120.986 87.0349 121.319 86.898 121.59 86.6728C121.86 86.4475 122.055 86.1448 122.148 85.8053C122.17 85.7017 122.187 85.5968 122.197 85.4914L122.487 85.4194C122.346 85.9176 122.229 86.4223 122.136 86.9317C122.063 87.3145 121.882 87.9271 122.426 88.0328C122.899 88.116 123.386 88.0213 123.794 87.7671C123.834 87.7399 123.863 87.6984 123.874 87.6509C123.884 87.6034 123.876 87.5536 123.852 87.5117C123.827 87.4698 123.787 87.439 123.74 87.4255C123.694 87.4121 123.643 87.417 123.6 87.4393C123.428 87.5314 123.245 87.6009 123.056 87.6461C122.869 87.6938 122.673 87.6938 122.487 87.6461C122.383 87.5886 122.406 87.4531 122.62 86.4837C122.705 86.1208 122.801 85.7576 122.91 85.3941C123.09 85.4087 123.266 85.4538 123.431 85.5273C123.421 85.7478 123.457 85.968 123.536 86.1737C123.616 86.3795 123.738 86.5664 123.894 86.7224C124.05 86.8784 124.237 87.0002 124.443 87.0798C124.649 87.1595 124.869 87.1954 125.089 87.1851C125.446 87.1606 125.786 87.0265 126.063 86.8013C126.34 86.5761 126.541 86.2708 126.638 85.9271C126.691 85.6989 126.695 85.4623 126.65 85.2324C126.606 85.0026 126.514 84.7845 126.381 84.5921C126.248 84.3996 126.076 84.2371 125.876 84.1148C125.677 83.9925 125.454 83.9132 125.222 83.8818C124.849 83.8965 124.489 84.0217 124.187 84.2414C123.886 84.4612 123.656 84.7657 123.528 85.1162C123.374 85.0516 123.21 85.0109 123.043 84.9952C123.152 84.6445 123.249 84.306 123.35 83.9538C123.386 83.8213 123.177 83.7241 123.107 83.8573C122.922 84.2245 122.764 84.6048 122.635 84.9952C122.484 85.0094 122.337 85.0503 122.2 85.1162C122.145 84.7984 122.001 84.5029 121.784 84.2647C121.567 84.0265 121.286 83.8556 120.974 83.7723C121.027 83.4492 121.128 82.9201 121.157 82.8068C121.824 82.1766 124.509 82.4362 125.38 82.5502C126.291 82.6802 127.189 82.8866 128.066 83.1674C128.314 83.244 128.365 83.244 128.405 83.5181C128.495 84.1918 128.692 84.8469 128.987 85.4592C128.814 85.6292 128.969 85.8145 129.107 85.7333C129.664 85.3941 130.197 85.927 130.269 86.4837C130.292 86.6166 130.284 86.753 130.246 86.8823C130.207 87.0117 130.14 87.1306 130.049 87.2299C129.958 87.3293 129.845 87.4064 129.72 87.4555C129.594 87.5045 129.459 87.5241 129.325 87.5128C129.293 87.5048 129.26 87.504 129.229 87.5106C129.197 87.5171 129.167 87.5308 129.142 87.5506C129.116 87.5704 129.095 87.5957 129.081 87.6248C129.067 87.6538 129.059 87.6857 129.059 87.7181C129.087 88.8666 129.502 91.1936 130.168 92.0903C129.857 92.5515 129.451 92.9404 128.977 93.2306C128.503 93.5208 127.972 93.7054 127.42 93.7718ZM123.958 85.2632C124.07 84.9393 124.841 84.0978 125.521 84.4408C125.758 84.5464 125.955 84.7256 126.083 84.952C126.21 85.1783 126.261 85.4397 126.229 85.6975C126.196 85.9553 126.081 86.1957 125.901 86.3831C125.721 86.5705 125.486 86.6949 125.23 86.7379C125.035 86.7773 124.834 86.7642 124.646 86.7C124.459 86.6358 124.292 86.5228 124.162 86.3726C124.033 86.2224 123.946 86.0405 123.91 85.8455C123.874 85.6505 123.891 85.4495 123.958 85.2632Z" fill="#191919"/>
<path d="M117.932 120.893C117.284 121.996 115.308 129.992 115.16 131.64C115.136 131.858 115.475 131.894 115.536 131.688C115.714 131.054 115.919 129.691 116.455 127.477C117.233 124.251 117.662 123.07 117.919 122.128C118.051 121.745 118.154 121.352 118.226 120.954C118.246 120.808 118.004 120.772 117.932 120.893Z" fill="#191919"/>
<path d="M127.964 129.486V129.426C127.965 129.394 127.955 129.363 127.935 129.339C127.915 129.314 127.887 129.298 127.856 129.292C127.738 129.09 127.613 128.892 127.48 128.699C127.462 128.671 127.434 128.651 127.402 128.643C127.369 128.636 127.335 128.642 127.306 128.659C127.278 128.676 127.257 128.704 127.249 128.737C127.241 128.769 127.245 128.803 127.262 128.832C127.372 129.062 127.48 129.292 127.589 129.511C127.042 130.744 126.62 132.029 126.33 133.347C126.326 133.365 126.324 133.384 126.327 133.403C126.33 133.422 126.336 133.44 126.345 133.456C126.355 133.472 126.368 133.487 126.383 133.498C126.398 133.51 126.415 133.518 126.433 133.523C126.452 133.527 126.471 133.529 126.489 133.526C126.508 133.523 126.526 133.517 126.543 133.508C126.559 133.498 126.573 133.485 126.585 133.47C126.596 133.455 126.604 133.438 126.609 133.42C126.869 132.704 127.335 130.969 127.807 129.946C128.539 131.441 129.154 132.991 129.645 134.581C129.73 134.787 129.997 134.629 129.972 134.448C129.478 132.729 128.805 131.066 127.964 129.486Z" fill="#191919"/>
<path d="M139.317 123.616C139.117 122.735 138.854 121.87 138.53 121.027C138.482 120.906 138.264 120.966 138.288 121.087C138.425 122.183 138.544 122.17 140.585 130.345C140.76 131.23 140.99 132.104 141.274 132.96C141.335 133.117 141.601 133.116 141.589 132.924C141.489 131.959 139.561 124.554 139.317 123.616Z" fill="#191919"/>
<path d="M50.9562 50.2754C50.4378 46.9116 48.4416 43.4858 45.244 42.4452C42.0453 41.6172 38.6505 42.0561 35.7675 43.6703C31.5438 46.0302 30.1724 50.1827 31.1809 54.7808C32.5523 60.9525 37.6994 65.01 37.8127 69.1946C36.8755 69.507 36.3219 71.1089 37.2683 71.798C37.1062 71.9164 36.9739 72.0708 36.8819 72.2492C36.7899 72.4276 36.7408 72.6249 36.7384 72.8256C36.736 73.0263 36.7804 73.2248 36.8682 73.4053C36.9559 73.5858 37.0845 73.7434 37.2438 73.8655C37.0563 74.0564 36.9397 74.3057 36.9134 74.572C36.8871 74.8383 36.9526 75.1056 37.0991 75.3295C37.3599 75.6516 37.6856 75.915 38.055 76.1028C38.4244 76.2905 38.8292 76.3983 39.2431 76.4191C40.1714 76.6324 41.1252 76.7138 42.0762 76.6611C44.5265 76.472 45.0771 75.0531 44.3872 74.2767C44.5768 74.1728 44.7386 74.0247 44.8588 73.845C44.9791 73.6653 45.0544 73.4593 45.0782 73.2444C45.102 73.0295 45.0737 72.812 44.9956 72.6104C44.9176 72.4087 44.7922 72.2289 44.6299 72.086C45.0051 71.6822 45.2117 71.1501 45.2072 70.5989C45.2353 70.4583 45.2353 70.3135 45.2073 70.1728C45.1793 70.0322 45.1238 69.8984 45.044 69.7793C44.9642 69.6601 44.8616 69.5579 44.7422 69.4784C44.6228 69.399 44.4889 69.3439 44.3481 69.3164C44.7608 65.3729 48.0235 62.9464 50.0243 57.6255C50.9498 55.2932 51.2704 52.7648 50.9562 50.2754ZM40.9958 51.5219C40.6612 51.1873 40.5057 50.6031 40.8986 50.3113C41.1895 50.1061 41.4552 50.4086 41.4797 50.6865C41.4757 50.8552 41.4293 51.0202 41.3447 51.1662C41.2601 51.3122 41.1401 51.4345 40.9958 51.5219ZM40.8021 52.2356C40.8503 52.2111 40.8871 52.1873 40.9353 52.1636C41.6147 52.7062 42.442 53.031 43.309 53.0955C43.0548 53.8336 42.8611 54.6078 42.6796 55.3582C41.5502 59.9082 41.0413 64.5901 41.1666 69.2766L39.6658 69.2038C40.1834 64.3959 39.9629 56.3949 38.6374 52.6835C39.3859 52.7283 40.1328 52.5737 40.8021 52.2356ZM49.9393 56.1691C48.1078 62.3805 44.172 64.8216 43.8274 69.409C43.8159 69.4213 43.7914 69.4458 43.7914 69.458C43.087 69.383 42.3808 69.3263 41.6735 69.288C41.58 65.7152 41.8558 62.1423 42.4966 58.6262C42.8272 56.747 43.2799 54.8913 43.8519 53.071C44.2371 53.0662 44.6149 52.9638 44.9497 52.7732C45.2845 52.5826 45.5654 52.3102 45.7662 51.9814C46.3742 50.6797 44.6498 49.5311 43.5035 52.587C42.7338 52.5695 41.9889 52.3114 41.3733 51.8489C42.6972 50.6858 41.6199 49.4024 40.7439 49.8274C40.1543 50.1138 39.8939 50.9477 40.5747 51.7884C39.9292 52.1182 39.2003 52.2488 38.4804 52.1636C38.2727 51.5354 37.9297 50.9604 37.4758 50.479C36.5723 49.7309 35.5049 50.6107 35.9513 51.3619C36.4967 52.0344 37.2736 52.479 38.1297 52.6085C38.5466 53.901 38.8384 55.2305 39.0011 56.5787C39.8534 62.3055 39.3036 67.9764 39.3036 69.1525C38.6198 69.1219 38.3158 69.1027 38.1902 69.1165C38.1902 65.2474 34.2774 62.049 32.272 56.712C30.6089 52.2762 31.0239 47.7431 34.7407 44.9C37.8533 42.5057 43.4469 41.5156 46.6253 43.6412C48.3747 44.953 49.6151 46.8307 50.1354 48.9545C50.7629 51.3284 50.6949 53.8327 49.9393 56.1691ZM44.0579 52.5503C44.1887 52.2502 44.3466 51.9626 44.5296 51.6912C45.3619 50.4898 45.6781 51.548 45.0656 52.0909C44.7789 52.3346 44.4299 52.4937 44.0579 52.5503ZM37.9092 52.0541C37.4792 51.9358 37.0765 51.7345 36.7239 51.4614C36.5665 51.3628 36.4372 51.2251 36.3487 51.0617C36.2553 50.76 36.8671 50.3512 37.4015 51.1345C37.5988 51.4247 37.7687 51.7326 37.9092 52.0541Z" fill="#191919"/>
<path d="M17.8801 26.0458C17.9605 26.0543 26.7318 26.1745 27.7195 26.1668C28.6009 26.2242 29.4858 26.1836 30.3582 26.0458C30.5037 25.9976 30.5274 25.7556 30.3582 25.7311C29.973 25.6808 29.5835 25.6728 29.1966 25.7074C26.8037 25.7794 19.1611 25.5244 17.8319 25.6951C17.6113 25.7074 17.6879 26.0259 17.8801 26.0458Z" fill="#191919"/>
<path d="M17.8801 29.6891C17.9253 29.6891 26.4791 29.8193 27.7195 29.8101C28.6009 29.8674 29.4858 29.8269 30.3582 29.6891C30.5037 29.6409 30.5274 29.3981 30.3582 29.3744C29.9731 29.3238 29.5835 29.3156 29.1966 29.3499C26.8037 29.4226 19.1611 29.1677 17.8319 29.3377C17.6113 29.3622 17.6879 29.6746 17.8801 29.6891Z" fill="#191919"/>
<path d="M63.8457 27.4984C63.8878 27.4984 72.4424 27.6286 73.6851 27.6194C74.5662 27.6768 75.4509 27.6362 76.323 27.4984C76.4685 27.4502 76.4922 27.2082 76.323 27.1837C75.9378 27.1335 75.5484 27.1253 75.1614 27.1592C72.7686 27.232 65.126 26.977 63.7967 27.1477C63.5792 27.1715 63.6642 27.4847 63.8457 27.4984Z" fill="#191919"/>
<path d="M63.8459 31.1532C63.9225 31.1616 72.595 31.2826 73.6854 31.2742C74.5664 31.3315 75.4511 31.291 76.3232 31.1532C76.4687 31.105 76.4925 30.863 76.3232 30.8385C75.9381 30.7881 75.5485 30.7802 75.1616 30.8148C72.7688 30.8867 65.1262 30.6318 63.7969 30.8025C63.5795 30.8148 63.6637 31.1333 63.8459 31.1532Z" fill="#191919"/>
<path d="M32.6194 41.707C31.5718 39.1994 30.3042 36.7895 28.8314 34.5055C29.2793 34.6265 30.6691 34.9779 30.9134 35.0507C31.1489 35.1549 31.4074 35.1966 31.6638 35.1717C31.7004 35.1614 31.7337 35.1418 31.7604 35.1148C31.7871 35.0877 31.8063 35.0542 31.8161 35.0174C31.8258 34.9807 31.8258 34.942 31.816 34.9053C31.8062 34.8685 31.787 34.835 31.7602 34.8079C31.5234 34.6572 31.2536 34.566 30.9738 34.5422C30.6951 34.4695 29.6063 34.203 29.3398 34.1425C28.6821 33.9894 28.3069 33.7313 28.0932 34.3723C27.8036 35.1775 27.5733 36.0028 27.4041 36.8417C27.3939 36.8786 27.3989 36.9181 27.4178 36.9514C27.4368 36.9848 27.4682 37.0092 27.5052 37.0193C27.5421 37.0295 27.5816 37.0245 27.6149 37.0056C27.6482 36.9866 27.6727 36.9552 27.6828 36.9183C27.9897 36.2419 28.2407 35.5414 28.4332 34.824C29.8586 37.0852 31.1554 39.4248 32.3177 41.8318C32.4034 41.9972 32.6913 41.877 32.6194 41.707Z" fill="#38A1FF"/>
<path d="M58.8223 36.5507C58.7587 36.2 58.4348 36.2299 57.467 36.1035C56.9088 36.0196 56.3464 35.9669 55.7824 35.9458C55.7487 35.947 55.7165 35.9601 55.6915 35.9829C55.6666 36.0056 55.6505 36.0364 55.6462 36.0699C55.6419 36.1034 55.6496 36.1373 55.6679 36.1656C55.6863 36.1939 55.7141 36.2148 55.7464 36.2245C56.4672 36.4225 57.2042 36.556 57.9486 36.6235C55.966 38.4035 53.8766 40.0608 51.6919 41.5861C51.5227 41.707 51.6674 41.985 51.8612 41.8763C53.0761 41.1464 54.2448 40.3422 55.3605 39.4681C57.0742 38.1664 58.2702 37.0178 58.3468 36.9627C58.2985 37.4343 58.1653 38.8869 58.1408 39.1411C58.0784 39.3879 58.0826 39.6469 58.153 39.8915C58.1729 39.9233 58.2006 39.9496 58.2334 39.9677C58.2662 39.9859 58.3031 39.9954 58.3406 39.9954C58.3782 39.9954 58.4151 39.9859 58.4479 39.9677C58.4807 39.9496 58.5083 39.9233 58.5282 39.8915C58.5973 39.77 58.6307 39.6315 58.6247 39.4918C58.6975 38.6687 58.8751 36.7705 58.8223 36.5507Z" fill="#38A1FF"/>
<path d="M62.3933 57.7426C61.8335 57.0979 61.2231 56.499 60.5678 55.9516C60.54 55.9275 60.5041 55.9149 60.4674 55.9162C60.4306 55.9176 60.3958 55.9328 60.3698 55.9588C60.3438 55.9847 60.3286 56.0196 60.3273 56.0564C60.3259 56.0931 60.3386 56.129 60.3626 56.1568C60.7984 56.7536 61.2885 57.3089 61.8267 57.8153C61.3757 57.8919 58.724 57.9363 57.9904 57.9241C56.5937 57.9099 55.1975 57.8655 53.8027 57.7908C53.6213 57.7786 53.573 58.0933 53.7545 58.1178C56.4542 58.4248 59.1759 58.4896 61.8871 58.3115C59.9085 60.3629 59.9637 60.2771 59.9269 60.4555C59.9168 60.4924 59.9166 60.5312 59.9264 60.5682C59.9361 60.6051 59.9555 60.6388 59.9824 60.6659C60.0094 60.6929 60.0431 60.7124 60.08 60.7222C60.1169 60.7321 60.1558 60.732 60.1926 60.722C60.4645 60.6454 60.4882 60.4839 61.9721 58.9065C62.1664 58.7236 62.3457 58.5254 62.5081 58.3138C62.6835 58.1055 62.551 57.9111 62.3933 57.7426Z" fill="#38A1FF"/>
<path d="M91.7907 44.1275C90.0839 42.8036 88.0485 41.9699 85.9034 41.7162C83.7583 41.4624 81.5845 41.7981 79.6159 42.6872C79.5725 42.6673 79.5246 42.6594 79.4772 42.6643C79.4297 42.6692 79.3845 42.6868 79.3461 42.7152C79.3078 42.7436 79.2778 42.7818 79.2592 42.8258C79.2407 42.8697 79.2343 42.9178 79.2407 42.9651C80.0884 47.8483 81.2527 52.6713 82.7262 57.4034C82.7407 57.4485 82.7676 57.4885 82.8039 57.5188C82.8401 57.5492 82.8842 57.5687 82.9311 57.575C82.978 57.5813 83.0257 57.5743 83.0687 57.5546C83.1117 57.5349 83.1483 57.5035 83.1742 57.4639C92.3199 43.6719 91.9822 44.3189 91.7907 44.1275Z" fill="#38A1FF"/>
<path d="M144.485 33.1142C144.393 32.8142 144.228 32.5417 144.005 32.321C143.782 32.1004 143.508 31.9384 143.207 31.8496C142.906 31.7609 142.588 31.7481 142.281 31.8125C141.974 31.8768 141.687 32.0162 141.447 32.2183C141.328 31.5353 141.574 27.3836 141.329 26.0926C141.26 25.7312 141.223 25.7289 140.806 25.7343C140.351 25.7412 134.981 25.7664 134.96 25.771C134.795 25.7986 134.675 26.0857 134.948 26.307C135.104 26.493 135.217 26.7114 135.278 26.9463C135.34 27.1813 135.348 27.4271 135.303 27.6657C135.258 27.9043 135.16 28.13 135.017 28.3262C134.874 28.5224 134.689 28.6843 134.475 28.8002C134.251 28.9174 134.003 28.9835 133.75 28.994C133.497 29.0045 133.245 28.959 133.011 28.8608C132.778 28.7625 132.569 28.614 132.4 28.4258C132.23 28.2376 132.104 28.0143 132.031 27.7718C131.837 27.0827 132.346 26.5735 132.624 25.9923C132.636 25.9679 132.641 25.9408 132.64 25.9136C132.639 25.8864 132.63 25.86 132.616 25.837C132.601 25.8139 132.581 25.795 132.557 25.782C132.533 25.7689 132.506 25.7623 132.479 25.7626L110.67 25.7144C110.641 25.7143 110.613 25.7198 110.587 25.7307C110.56 25.7416 110.536 25.7576 110.516 25.7778C110.496 25.798 110.48 25.822 110.469 25.8485C110.458 25.8749 110.453 25.9032 110.453 25.9318C110.476 26.8637 110.537 31.3056 110.549 32.5882C110.301 32.4043 110.013 32.282 109.709 32.2312C109.404 32.1804 109.092 32.2025 108.798 32.2959C108.503 32.3893 108.236 32.5512 108.016 32.7682C107.797 32.9853 107.632 33.2514 107.535 33.5445C107.361 34.0105 107.34 34.5199 107.475 34.9987C107.61 35.4775 107.894 35.9007 108.286 36.2069C108.624 36.4463 109.028 36.5748 109.442 36.5748C109.856 36.5748 110.26 36.4463 110.597 36.2069C110.597 36.4971 110.658 42.2821 110.658 42.2821C110.658 42.3288 110.674 42.3741 110.703 42.4112C110.731 42.4483 110.771 42.4753 110.816 42.4881C111.073 42.5478 117.597 42.5371 117.52 42.5363C117.197 42.8527 116.963 43.249 116.842 43.6849C116.764 44.0451 116.79 44.4201 116.915 44.7666C117.041 45.1131 117.262 45.417 117.553 45.6434C117.844 45.8698 118.193 46.0094 118.559 46.0461C118.926 46.0829 119.296 46.0153 119.626 45.8511C119.93 45.7211 120.2 45.525 120.419 45.277C120.637 45.029 120.797 44.7355 120.888 44.4178C120.978 44.1 120.996 43.7661 120.942 43.4404C120.887 43.1147 120.76 42.8053 120.57 42.5348C133.187 42.5348 132.371 42.6114 132.552 42.4988C132.684 42.4023 132.515 42.2691 132.455 42.1841C132.25 41.9342 132.116 41.6331 132.069 41.3132C132.022 40.9933 132.063 40.6667 132.187 40.3682C132.312 40.0698 132.515 39.8108 132.775 39.619C133.036 39.4273 133.343 39.31 133.665 39.2797C133.926 39.2777 134.184 39.3317 134.422 39.4382C134.659 39.5447 134.872 39.7012 135.044 39.8969C135.251 40.1302 135.374 40.4259 135.394 40.7372C135.414 41.0485 135.329 41.3575 135.153 41.6152C134.959 41.9835 134.515 42.5516 134.911 42.5953C134.911 42.5953 141.027 42.5524 141.216 42.5471C141.628 42.632 141.628 42.4743 141.628 42.4023C141.628 40.1749 141.543 37.9612 141.518 35.7337C143.044 36.5247 144.966 34.7881 144.485 33.1142ZM143.311 35.1594C142.115 36.0507 141.156 34.6234 141.035 35.2927C141.06 37.5554 141.072 39.8066 141.144 42.07C139.184 42.106 137.235 42.106 135.275 42.106C136.678 40.521 134.739 38.2093 132.901 38.9957C132.618 39.1198 132.365 39.3022 132.157 39.531C131.95 39.7598 131.793 40.0298 131.697 40.3234C131.601 40.617 131.568 40.9275 131.6 41.2347C131.632 41.5419 131.729 41.8388 131.884 42.106C130.057 42.0937 128.229 42.106 126.402 42.07C126.353 40.0485 126.317 38.0278 126.293 36.0209C125.996 36.2954 125.62 36.47 125.218 36.52C124.817 36.57 124.41 36.4929 124.054 36.2996C123.686 36.0946 123.376 35.7992 123.153 35.4413C122.931 35.0833 122.803 34.6745 122.783 34.2536C122.764 33.9412 122.815 33.6284 122.934 33.3387C123.052 33.0489 123.235 32.7897 123.467 32.5803C123.7 32.3709 123.977 32.2167 124.278 32.1292C124.578 32.0417 124.895 32.0233 125.203 32.0751C125.408 32.0892 125.608 32.1461 125.789 32.2421C125.971 32.3381 126.13 32.4711 126.257 32.6326C126.232 30.4779 126.208 28.3239 126.172 26.1692C128.121 26.2059 130.069 26.2059 132.03 26.2059C130.674 27.791 132.622 30.0544 134.438 29.2795C135.563 28.8201 136.217 27.222 135.406 26.2167C137.244 26.2044 139.086 26.2281 140.913 26.1799C141.095 26.8836 140.623 33.5622 141.325 32.9695C142.959 30.8025 145.356 33.6334 143.311 35.1594Z" fill="#38A1FF"/>
<path d="M91.3548 46.7294C91.315 46.806 83.8508 58.0375 83.8991 57.9601C83.7831 58.1383 83.6187 58.2799 83.4253 58.3682C83.2318 58.4565 83.0172 58.4879 82.8066 58.4587C82.5959 58.4296 82.3979 58.3411 82.2357 58.2035C82.0735 58.066 81.9538 57.8852 81.8906 57.6822C80.5654 53.4476 79.4865 49.1399 78.6593 44.7806C75.1045 46.4688 72.3445 49.4718 70.9615 53.156C67.8489 61.9388 74.1829 70.3586 83.7666 69.3126C89.6159 68.6855 94.5333 64.7007 95.5295 58.8682C95.9496 56.6566 95.7855 54.3735 95.0534 52.2447C94.3213 50.1158 93.0464 48.2148 91.3548 46.7294Z" fill="#38A1FF"/>
<path d="M32.1303 86.3107C31.5897 86.3926 31.9419 87.0909 32.3508 86.96C32.4343 86.9287 32.5023 86.8662 32.5405 86.7857C32.5786 86.7051 32.584 86.6128 32.5553 86.5284C32.5266 86.444 32.4662 86.3741 32.3869 86.3335C32.3076 86.2928 32.2155 86.2846 32.1303 86.3107Z" fill="#191919"/>
<path d="M34.8588 85.2877C34.8058 85.3062 34.7579 85.337 34.7191 85.3776C34.6804 85.4183 34.6518 85.4675 34.6358 85.5214C34.6198 85.5752 34.6168 85.6321 34.6271 85.6873C34.6374 85.7425 34.6606 85.7945 34.6949 85.839C34.7552 85.9035 34.8359 85.9453 34.9234 85.9571C35.0109 85.969 35.0998 85.9502 35.175 85.9041C35.2348 85.8512 35.2768 85.7813 35.2956 85.7038C35.3144 85.6263 35.3089 85.545 35.28 85.4707C35.2482 85.3907 35.1861 85.3265 35.1072 85.2922C35.0282 85.2579 34.9389 85.2563 34.8588 85.2877Z" fill="#191919"/>
<path d="M119.885 85.5488C119.807 85.5808 119.745 85.6423 119.713 85.7197C119.681 85.7972 119.681 85.8843 119.713 85.9619C119.745 86.0395 119.806 86.1012 119.884 86.1334C119.961 86.1656 120.048 86.1658 120.126 86.1338C120.443 86.032 120.318 85.3903 119.885 85.5488Z" fill="#191919"/>
<path d="M124.352 85.6835C124.313 85.699 124.278 85.722 124.248 85.7511C124.218 85.7802 124.194 85.8149 124.178 85.8531C124.162 85.8914 124.153 85.9326 124.152 85.9742C124.152 86.0159 124.16 86.0572 124.175 86.0959C124.191 86.1345 124.214 86.1698 124.243 86.1996C124.272 86.2294 124.306 86.2531 124.345 86.2695C124.383 86.2859 124.424 86.2946 124.466 86.2951C124.507 86.2956 124.549 86.2878 124.587 86.2724C124.908 86.143 124.767 85.5403 124.352 85.6835Z" fill="#191919"/>
</svg>
