<svg width="167" height="44" viewBox="0 0 167 44" fill="none" xmlns="http://www.w3.org/2000/svg">
<path d="M51.3552 11.5818H68.3538V14.2284L59.7759 20.8472L59.2457 19.6565H61.1531C62.9347 19.6565 64.422 19.8856 65.615 20.3439C66.8058 20.8023 67.7067 21.4651 68.3156 22.33C68.9244 23.195 69.2278 24.2285 69.2278 25.4282C69.2278 26.628 68.8705 27.7626 68.1561 28.7242C67.4416 29.6858 66.3992 30.4406 65.0309 30.9888C63.6627 31.5348 61.9911 31.8089 60.014 31.8089C58.0369 31.8089 56.4125 31.5303 54.9836 30.9754C53.5547 30.4204 52.4336 29.6386 51.6203 28.632C50.807 27.6255 50.3576 26.4527 50.27 25.1115H53.7906C53.9659 26.3471 54.5725 27.2953 55.6037 27.958C56.6372 28.6208 58.1066 28.9511 60.0118 28.9511C61.917 28.9511 63.229 28.6388 64.2086 28.012C65.1882 27.3851 65.678 26.473 65.678 25.271C65.678 24.5992 65.5004 24.0173 65.1477 23.523C64.795 23.0288 64.2131 22.6491 63.3998 22.384C62.5888 22.1188 61.4946 21.9863 60.1174 21.9863H57.3899V19.3913L66.179 12.613L66.9743 14.4935H51.3529V11.5818H51.3552Z" fill="#1F98FA"/>
<path d="M80.6903 11.2111C82.2607 11.2111 83.6559 11.4492 84.8736 11.9255C86.0913 12.4018 87.0889 13.0511 87.8663 13.8712C88.6436 14.6912 89.1289 15.6326 89.3221 16.6908H85.8801C85.5971 15.9673 85.0691 15.354 84.2918 14.8507C83.5144 14.3475 82.3416 14.0958 80.7711 14.0958C79.2007 14.0958 77.8842 14.3924 76.8799 14.9833C75.8734 15.5742 75.1364 16.4122 74.6691 17.4996C74.2018 18.5848 73.9681 19.8878 73.9681 21.4044C73.9681 22.9209 74.2332 24.3251 74.7634 25.4552C75.2937 26.5853 76.0778 27.4458 77.1202 28.0367C78.1605 28.6275 79.4501 28.9241 80.9868 28.9241C82.1506 28.9241 83.1279 28.7601 83.912 28.4343C84.6984 28.1085 85.2893 27.6525 85.687 27.0706C86.0846 26.4887 86.2823 25.8349 86.2823 25.1114C86.2823 24.388 86.1049 23.8106 85.7521 23.2714C85.3994 22.7322 84.8557 22.3053 84.1233 21.9863C83.3908 21.6695 82.4517 21.51 81.3036 21.51C79.7669 21.51 78.347 21.8807 77.0416 22.6221C75.7341 23.3635 74.6489 24.3251 73.7839 25.5091L72.3011 24.4239C72.883 23.3478 73.6379 22.3727 74.5658 21.4987C75.4914 20.6248 76.5788 19.9283 77.8212 19.407C79.0659 18.8858 80.4566 18.6252 81.9911 18.6252C83.5256 18.6252 84.9343 18.8858 86.1093 19.407C87.2821 19.9283 88.192 20.6652 88.8369 21.6178C89.4817 22.5704 89.8029 23.7005 89.8029 25.0058C89.8029 26.3112 89.4412 27.5311 88.7178 28.5534C87.9943 29.5779 86.9743 30.3755 85.66 30.9506C84.3457 31.5235 82.7864 31.8111 80.9868 31.8111C78.7109 31.8111 76.7945 31.3753 75.242 30.5013C73.6873 29.6273 72.519 28.4141 71.7349 26.8616C70.9485 25.3091 70.5576 23.5253 70.5576 21.5145C70.5576 19.5037 70.9463 17.7198 71.7214 16.165C72.4988 14.6126 73.6401 13.3994 75.1499 12.5254C76.6597 11.6514 78.5087 11.2156 80.697 11.2156L80.6903 11.2111Z" fill="#1F98FA"/>
<path d="M93.2943 11.5818H107.804V14.4149H94.4334L95.8892 13.4892L94.7771 21.856L93.7436 21.8829C94.1503 21.2651 94.7007 20.6832 95.3995 20.135C96.096 19.5891 96.943 19.142 97.9405 18.7982C98.938 18.4545 100.064 18.2815 101.317 18.2815C103.047 18.2815 104.512 18.578 105.712 19.1689C106.912 19.7598 107.826 20.5596 108.453 21.5662C109.08 22.5727 109.392 23.7118 109.392 24.9811C109.392 26.2505 109.021 27.4795 108.28 28.5017C107.538 29.5262 106.491 30.3328 105.143 30.9237C103.793 31.5146 102.191 31.8111 100.338 31.8111C98.4842 31.8111 96.8778 31.537 95.5186 30.9911C94.1593 30.4451 93.0876 29.6992 92.3013 28.7534C91.5149 27.8098 91.0341 26.7538 90.8589 25.59H94.3795C94.6266 26.6325 95.2624 27.4525 96.2869 28.0524C97.3114 28.6523 98.6617 28.9533 100.338 28.9533C101.468 28.9533 102.443 28.7893 103.263 28.4635C104.083 28.1378 104.723 27.6772 105.182 27.0863C105.64 26.4954 105.869 25.7945 105.869 24.9811C105.869 24.1678 105.68 23.4938 105.301 22.9029C104.921 22.3121 104.348 21.8537 103.58 21.5257C102.811 21.1999 101.836 21.0359 100.654 21.0359C99.6839 21.0359 98.8145 21.1505 98.0461 21.3797C97.2777 21.6088 96.6172 21.9009 96.06 22.2536C95.5051 22.6064 95.04 22.9771 94.6693 23.3658H91.7576L93.2943 11.584V11.5818Z" fill="#1F98FA"/>
<path d="M111.747 16.4526H115.189V21.6695L115.029 22.1997V25.217L115.189 26.1427V35.8057H111.747V16.4504V16.4526ZM113.865 23.9454C114.2 22.357 114.757 20.9752 115.532 19.8025C116.31 18.6297 117.267 17.7153 118.406 17.0615C119.545 16.4077 120.81 16.0819 122.205 16.0819C123.67 16.0819 124.966 16.4122 126.096 17.075C127.226 17.7377 128.109 18.6544 128.745 19.8294C129.381 21.0044 129.698 22.3749 129.698 23.9476C129.698 25.5203 129.381 26.8684 128.745 28.0524C128.109 29.2341 127.226 30.1575 126.096 30.8181C124.966 31.4808 123.67 31.8111 122.205 31.8111C120.74 31.8111 119.547 31.4853 118.419 30.8315C117.289 30.1778 116.332 29.2611 115.546 28.0771C114.759 26.8953 114.2 25.5181 113.865 23.9476V23.9454ZM126.204 23.9454C126.204 22.9389 125.997 22.0514 125.582 21.2853C125.166 20.5169 124.598 19.917 123.874 19.4857C123.151 19.0543 122.32 18.8364 121.385 18.8364C120.45 18.8364 119.572 19.0521 118.75 19.4857C117.93 19.9193 117.208 20.5192 116.593 21.2853C115.975 22.0537 115.472 22.9411 115.083 23.9454C115.472 24.9519 115.975 25.8394 116.593 26.6055C117.211 27.3739 117.93 27.9737 118.75 28.4051C119.57 28.8387 120.448 29.0544 121.385 29.0544C122.322 29.0544 123.151 28.8387 123.874 28.4051C124.598 27.9737 125.166 27.3716 125.582 26.6055C125.995 25.8371 126.204 24.9497 126.204 23.9454Z" fill="#1F98FA"/>
<path d="M148.074 26.8841C148.074 27.8906 147.791 28.7646 147.227 29.506C146.663 30.2474 145.807 30.8158 144.659 31.2135C143.511 31.6112 142.073 31.8089 140.343 31.8089C138.613 31.8089 137.016 31.5842 135.71 31.1349C134.403 30.6855 133.394 30.0497 132.679 29.2297C131.965 28.4096 131.581 27.4592 131.527 26.3831H135.023C135.128 26.9492 135.416 27.4458 135.883 27.8794C136.351 28.313 136.968 28.6433 137.737 28.8724C138.505 29.1016 139.384 29.2162 140.372 29.2162C141.801 29.2162 142.877 29.0432 143.603 28.6994C144.326 28.3557 144.688 27.83 144.688 27.1245C144.688 26.6482 144.445 26.2865 143.96 26.0393C143.475 25.7922 142.56 25.608 141.219 25.4844L138.28 25.2193C136.692 25.0777 135.438 24.7924 134.522 24.3588C133.603 23.9274 132.951 23.3972 132.563 22.7704C132.174 22.1435 131.981 21.4785 131.981 20.7708C131.981 19.7463 132.297 18.8903 132.933 18.2028C133.569 17.5153 134.452 16.9896 135.58 16.6279C136.71 16.2661 138.024 16.0842 139.525 16.0842C141.026 16.0842 142.464 16.2998 143.682 16.7335C144.899 17.1671 145.87 17.7669 146.593 18.5331C147.317 19.3015 147.723 20.1889 147.811 21.1932H144.315C144.245 20.7865 144.036 20.3956 143.693 20.0159C143.349 19.6362 142.828 19.3194 142.131 19.0633C141.435 18.8072 140.502 18.6791 139.339 18.6791C138.103 18.6791 137.137 18.8386 136.44 19.1554C135.744 19.4722 135.396 19.9418 135.396 20.5596C135.396 20.9483 135.607 21.2786 136.031 21.5527C136.456 21.8267 137.24 22.0155 138.388 22.1211L142.174 22.4648C143.693 22.6064 144.879 22.876 145.735 23.2714C146.591 23.669 147.195 24.1768 147.548 24.7947C147.901 25.4125 148.078 26.109 148.078 26.8863L148.074 26.8841Z" fill="#1F98FA"/>
<path d="M155.407 30.9619L148.523 16.4526H152.309L158.822 30.9619H155.407ZM153.686 36.1787C152.803 36.1787 152.005 36.0686 151.289 35.8485C150.574 35.6283 149.907 35.3227 149.289 34.934V32.3121C149.961 32.7368 150.599 33.0446 151.208 33.2378C151.817 33.431 152.5 33.5299 153.259 33.5299C154.018 33.5299 154.627 33.3658 155.191 33.0401C155.755 32.7121 156.225 32.1436 156.595 31.3326L163.347 16.4526H167L159.242 32.4986C158.817 33.3816 158.319 34.0915 157.746 34.6307C157.173 35.17 156.546 35.5609 155.865 35.808C155.184 36.0552 154.456 36.1787 153.681 36.1787H153.686Z" fill="#1F98FA"/>
<path d="M34.46 0H8.60265C3.85154 0 0 3.85153 0 8.60264V34.46C0 39.2111 3.85154 43.0626 8.60265 43.0626H34.46C39.2111 43.0626 43.0627 39.2111 43.0627 34.46V8.60264C43.0627 3.85153 39.2111 0 34.46 0Z" fill="#AAD9FF"/>
<path d="M21.5302 35.972C16.9716 35.972 12.4131 34.3993 8.07471 31.2517L10.8808 27.3806C17.8479 32.4335 25.2125 32.4335 32.1773 27.3806L34.9835 31.2517C30.6451 34.3993 26.0865 35.972 21.528 35.972H21.5302Z" fill="#1F98FA"/>
</svg>
