<svg width="144" height="110" viewBox="0 0 144 110" fill="none" xmlns="http://www.w3.org/2000/svg">
<path d="M137.018 53.9475C131.911 47.6496 125.432 43.4475 117.643 41.2958C115.487 40.7001 113.337 40.0968 111.26 39.2866C110.23 38.8854 110.766 38.3517 110.531 36.8242C110.317 35.4313 110.268 34.0378 110.239 32.6289C110.228 32.0937 110.386 31.9175 110.903 31.7537C113.433 30.9528 115.6 29.5822 116.8 27.1204C119.98 20.599 117.036 15.8861 117.01 15.2299C118.862 14.7674 120.241 14.6847 121.077 12.8968C121.948 11.0323 122.051 9.1219 121.644 7.12955C121.177 4.8447 120.04 2.9672 118.063 1.78343C115.389 0.181586 112.493 -0.425615 109.396 0.309457C108.635 0.490163 107.954 0.827837 107.323 1.2819C106.399 1.94576 105.946 2.88527 105.849 4.02004C105.606 3.9718 105.412 3.95419 105.217 3.90672C100.38 2.72754 95.7255 3.50625 91.2691 5.54302C87.7875 7.13414 85.5976 9.80337 84.8862 13.6104C84.3502 16.478 84.7729 19.2475 85.9873 21.9045C87.168 23.0454 86.8839 24.6266 87.008 25.7437C87.2737 28.1442 87.6573 30.5064 88.7898 32.694C90.4758 35.949 93.0333 37.8693 96.7439 38.1373C97.6673 38.2039 98.5907 38.1213 99.5302 38.0562C99.6757 39.0608 99.9835 39.9842 99.9192 41.0049C97.5142 41.0049 95.6749 41.119 92.338 41.9444C85.0026 43.7591 77.6978 48.4237 72.671 53.4299C72.3624 53.7369 72.2353 53.962 72.6228 54.3212C73.1274 54.7882 73.1098 54.8248 73.5784 54.4184C75.1481 53.0547 77.0738 51.2568 79.8801 49.2989C84.9666 45.7507 90.5149 43.3671 96.6466 42.3326C97.1979 42.2392 97.3411 42.3487 97.4077 42.8671C97.8962 46.6511 102.617 49.5034 106.82 48.5853C110.353 47.8142 113.059 45.9291 114.434 42.4452C114.644 41.9107 114.773 41.8502 115.438 42.024C144.871 49.7231 152.605 84.887 125.531 93.1504C125.286 93.2255 124.997 93.4253 124.657 93.1987C125.78 90.0884 123.545 88.4054 121.433 86.2484C122.68 85.5516 123.458 84.3525 124.285 83.2514C125.417 81.7438 126.358 80.1251 126.909 78.3265C128.673 72.5753 126.941 67.7644 122.923 63.5684C122.875 63.5362 122.826 63.4711 122.778 63.439C122.486 63.2123 122.163 62.9535 121.806 63.2935C121.482 63.6021 121.71 63.9083 121.903 64.1848C122.442 64.9589 122.943 65.7376 123.491 66.501C128.095 72.9153 125.84 80.4965 119.943 85.7951C119.764 85.9559 119.586 85.959 119.393 85.9084C118.141 85.5815 116.882 85.5577 115.618 85.6496C113.966 85.7698 112.378 86.1037 111.195 87.4314C110.345 88.3862 109.819 89.4735 109.458 90.6412C109.737 90.9383 110.006 91.2362 110.264 91.5348C111.188 89.2063 112.425 86.9467 115.536 87.0095C117.141 87.0417 118.714 87.2744 120.283 87.6894C121.419 87.9904 122.167 88.6098 122.794 89.5042C124.134 91.4146 123.605 92.5271 123.264 94.2829C123.147 94.8817 123.36 95.0884 123.977 95.044C124.738 94.9896 125.5 94.933 126.245 94.7201C144.751 89.4184 149.4 69.2131 137.017 53.9452L137.018 53.9475ZM86.799 20.8027H86.815C86.6696 20.8187 86.6535 20.7054 86.6205 20.6242C84.6014 14.2835 86.9199 9.54457 90.4115 7.47028C93.9896 5.3447 97.8794 4.52387 102.027 4.8133C106.86 5.15098 109.914 7.67166 113.529 8.68468C113.642 8.71684 113.772 8.79801 113.966 8.65252C113.918 8.21531 113.546 7.97028 113.237 7.71301C112.152 6.81025 108.925 5.19998 107.988 4.8133C107.209 4.49171 107.019 3.90748 107.486 3.16092C107.991 2.35311 108.782 1.93044 109.673 1.68695C111.506 1.18542 114.245 1.34315 116.947 2.72371C118.457 3.49553 119.428 4.78038 119.96 6.33628C120.595 8.1977 120.839 10.0959 120.041 12.0063C119.363 13.6288 118.278 13.4665 117.757 13.7077C116.928 14.0905 116.154 14.3233 115.537 13.3838C115.473 13.3026 115.294 13.3026 115.116 13.2544C114.954 13.8539 115.246 14.3233 115.44 14.7934C115.895 15.8945 116.313 17.0293 116.59 18.1954C117.298 21.1771 116.832 23.9949 115.424 26.6358C114.37 28.612 112.556 29.8103 110.483 30.6855C110.402 29.7299 110.868 28.4466 111.649 27.5753C112.433 26.7008 114.585 25.4037 114.144 22.4397C113.968 21.2567 113.35 20.6702 112.167 20.5446C111.228 20.4443 110.361 20.6296 109.592 21.1763C109.346 21.3509 109.092 21.5186 108.879 21.7269C108.157 22.4313 107.322 22.4428 106.465 22.099C100.853 19.8547 98.8633 14.468 95.9353 12.4764C95.482 12.1679 95.0601 12.0859 94.5256 12.2819C92.2875 13.102 90.3663 14.3585 88.7745 16.1533C87.7239 17.3379 87.1129 18.7123 86.9598 20.2843C86.9429 20.4627 87.0248 20.6893 86.7982 20.8027H86.799ZM106.498 47.1596C103.874 47.6466 101.537 46.8211 99.7423 44.7782C99.1359 44.0876 98.8028 43.2553 98.6405 42.3479C98.9001 42.0562 99.2071 42.2874 99.4828 42.2836C100.585 42.2675 101.093 41.7974 101.054 40.6963C100.967 38.2262 100.418 37.8134 101.265 37.6021C101.688 37.4964 102.092 37.3288 102.48 37.148C102.755 37.0202 103.01 36.8364 103.225 36.6457C103.448 36.4474 103.701 36.1725 103.533 35.8678C103.36 35.5569 103.03 35.8196 102.804 35.8678C101.589 36.1274 100.422 36.5301 99.191 36.6779C94.1351 37.2851 91.3411 35.2729 89.5356 31.3318C88.7867 29.697 88.5187 27.9459 88.2071 26.2123C88.047 25.321 87.9957 24.4145 87.8993 23.5232C87.8342 22.9236 87.8457 22.3226 88.0448 21.7414C88.3388 20.8846 87.6619 19.3478 89.5838 17.2215C90.6374 16.0561 91.7454 14.9527 93.2125 14.2728C93.5547 14.1143 93.8296 13.8539 94.1359 13.6571C94.7377 13.272 94.8633 13.2697 95.335 13.7865C96.5532 15.125 99.9414 19.6732 103.062 22.0163C104.487 23.086 106.043 23.6197 107.809 23.6197C109.46 23.6197 108.967 22.586 111.066 21.8861C111.357 21.7889 111.649 21.7537 111.957 21.7728C112.621 21.8141 112.833 22.0316 112.896 22.6962C113.013 23.9114 112.575 24.9504 111.714 25.7583C108.144 29.1059 109.069 32.9696 109.09 37.9084C109.092 38.184 109.219 38.4428 109.219 38.7024C109.219 40.6266 111.292 40.3188 113.269 41.4888C112.275 44.472 109.99 46.511 106.497 47.1588L106.498 47.1596Z" fill="#191919"/>
<path d="M113.755 89.7492C112.786 90.9406 112.27 92.3342 112.049 93.8181C112.273 94.1336 112.487 94.4475 112.69 94.7591C113.059 93.6856 113.467 92.6596 114.015 91.6925C114.408 90.9988 114.823 90.289 115.732 90.1535C116.088 90.1006 116.343 89.8786 116.299 89.4728C116.245 88.9873 115.862 88.8893 115.489 88.8893C114.776 88.8893 114.192 89.2116 113.755 89.7476V89.7492Z" fill="#191919"/>
<path d="M115.084 97.7684C114.387 97.3633 114.186 96.9253 114.225 96.3916C114.365 94.4621 115.26 92.9276 116.849 91.7905C117.284 91.4797 118.201 91.3556 118.405 91.9529C118.52 92.2921 118.339 92.5685 118.065 92.6979C116.525 93.4253 115.883 94.8633 115.197 96.2622C114.864 96.9414 115.084 97.6206 115.084 97.7684Z" fill="#191919"/>
<path d="M116.51 98.3028C116.478 96.5693 117.196 95.1811 118.405 94.0264C118.662 93.7814 118.992 93.6497 119.296 93.9452C119.608 94.2492 119.493 94.5792 119.264 94.8365C118.349 95.8648 117.638 97.0241 116.899 98.1895C116.836 98.2883 116.753 98.3189 116.51 98.2868V98.3028Z" fill="#191919"/>
<path d="M102.237 24.0594C102.076 24.6735 100.386 23.6965 98.9974 24.4806C98.7891 24.5985 98.5609 24.6253 98.3657 24.4155C98.1237 24.1551 98.2845 23.8971 98.4468 23.7026C99.5571 22.1926 102.44 23.2861 102.238 24.0587L102.237 24.0594Z" fill="#191919"/>
<path d="M96.648 28.9513C94.7498 28.9513 94.9351 26.9513 95.0438 25.096C95.0438 24.5968 95.7452 24.4498 95.7888 25.1443C95.7888 25.6787 95.8011 26.2132 95.821 26.7484C95.8608 27.8005 96.0316 28.0279 97.0523 28.1742C97.1495 28.1742 97.2467 28.1902 97.344 28.2063C97.4895 28.2063 97.6036 28.3036 97.6196 28.449C97.6196 28.8128 97.0645 28.9912 96.664 28.9674L96.648 28.9513Z" fill="#191919"/>
<path d="M101.946 29.3886C101.938 30.4743 100.668 31.9024 99.5645 32.0126C99.3708 32.0318 99.1756 32.0165 98.965 31.9965C98.6893 31.9705 98.5461 31.4376 98.9328 31.3327C100.108 31.0119 100.722 30.1619 101.217 29.1458C101.297 28.9827 101.395 28.7768 101.654 28.8059C101.888 28.8319 101.947 29.237 101.946 29.3886Z" fill="#191919"/>
<path d="M91.8419 20.9282C91.1336 20.9971 90.4238 20.9695 89.2125 21.71C88.7921 21.9665 88.4567 21.5032 88.6459 21.1594C89.0708 20.3838 89.7952 20.1005 90.6061 19.9772C91.5823 19.8279 93.8947 20.7291 91.8427 20.9289L91.8419 20.9282Z" fill="#191919"/>
<path d="M92.6306 25.468C91.6099 25.7276 90.7554 25.9443 89.9897 26.4397C89.5219 26.7429 89.1237 26.1594 89.4552 25.6617C89.8113 25.0461 90.4277 24.9205 91.0594 24.8195C91.6429 24.7261 92.1612 24.8524 92.6306 25.468Z" fill="#191919"/>
<path d="M113.006 78.4597C113.36 77.8854 113.183 77.132 112.608 76.7767C112.033 76.4214 111.28 76.5998 110.925 77.1741C110.57 77.7484 110.748 78.5018 111.322 78.8571C111.897 79.2124 112.65 79.034 113.006 78.4597Z" fill="#38A1FF"/>
<path d="M77.7995 56.6364C78.4748 56.6364 79.0223 56.089 79.0223 55.4136C79.0223 54.7383 78.4748 54.1908 77.7995 54.1908C77.1241 54.1908 76.5767 54.7383 76.5767 55.4136C76.5767 56.089 77.1241 56.6364 77.7995 56.6364Z" fill="#38A1FF"/>
<path d="M90.9865 47.8724C91.6618 47.8724 92.2093 47.3249 92.2093 46.6496C92.2093 45.9742 91.6618 45.4268 90.9865 45.4268C90.3111 45.4268 89.7637 45.9742 89.7637 46.6496C89.7637 47.3249 90.3111 47.8724 90.9865 47.8724Z" fill="#38A1FF"/>
<path d="M120.522 46.9839C120.876 46.4094 120.699 45.6559 120.124 45.3008C119.55 44.9458 118.796 45.1237 118.441 45.6982C118.086 46.2727 118.264 47.0262 118.839 47.3812C119.413 47.7363 120.166 47.5584 120.522 46.9839Z" fill="#38A1FF"/>
<path d="M126.273 56.2499C126.628 55.6756 126.451 54.9214 125.876 54.5667C125.301 54.2116 124.548 54.3895 124.193 54.9643C123.837 55.5385 124.016 56.292 124.59 56.6473C125.164 57.0018 125.918 56.8241 126.273 56.2499Z" fill="#38A1FF"/>
<path d="M104.124 57.1258C104.48 56.5515 104.302 55.7981 103.727 55.4428C103.153 55.0875 102.399 55.2651 102.044 55.8402C101.689 56.4144 101.867 57.1679 102.441 57.5232C103.016 57.8785 103.77 57.7001 104.124 57.1258Z" fill="#38A1FF"/>
<path d="M116.488 55.2781C116.843 54.7034 116.665 53.9499 116.091 53.5949C115.516 53.2399 114.762 53.4177 114.408 53.9923C114.052 54.5667 114.23 55.3202 114.805 55.6755C115.379 56.03 116.133 55.8524 116.488 55.2781Z" fill="#38A1FF"/>
<path d="M120.522 70.1664C120.877 69.5914 120.7 68.8379 120.125 68.4834C119.55 68.1281 118.797 68.3058 118.442 68.8808C118.086 69.4551 118.265 70.2085 118.839 70.5638C119.413 70.9183 120.167 70.7407 120.522 70.1664Z" fill="#38A1FF"/>
<path d="M120.522 80.5991C120.877 80.024 120.699 79.2706 120.124 78.916C119.55 78.5608 118.797 78.7384 118.441 79.3134C118.087 79.8877 118.264 80.6412 118.839 80.9964C119.414 81.351 120.167 81.1733 120.522 80.5991Z" fill="#38A1FF"/>
<path d="M138.552 77.2446C138.907 76.6703 138.73 75.9161 138.155 75.5616C137.58 75.2063 136.827 75.3839 136.472 75.959C136.117 76.5332 136.295 77.2867 136.869 77.642C137.443 77.9965 138.197 77.8188 138.552 77.2446Z" fill="#38A1FF"/>
<path d="M131.943 68.9343C132.298 68.3601 132.12 67.6066 131.546 67.2513C130.971 66.8968 130.218 67.0745 129.863 67.6487C129.507 68.223 129.686 68.9765 130.26 69.3317C130.834 69.687 131.588 69.5094 131.943 68.9343Z" fill="#38A1FF"/>
<path d="M135.329 60.8501C135.683 60.2751 135.506 59.5217 134.931 59.1671C134.356 58.8119 133.603 58.9895 133.248 59.5645C132.893 60.1388 133.071 60.8923 133.645 61.2475C134.22 61.6021 134.974 61.4244 135.329 60.8501Z" fill="#38A1FF"/>
<path d="M127.68 83.1887C128.355 83.1887 128.903 83.7362 128.903 84.4115C128.903 85.0869 128.355 85.6344 127.68 85.6344C127.005 85.6344 126.457 85.0869 126.457 84.4115C126.457 83.7362 127.005 83.1887 127.68 83.1887Z" fill="#38A1FF"/>
<path d="M63.7531 47.8509L62.9368 46.0262L61.227 44.8646C61.1313 45.5767 61.0494 46.3378 61.0088 47.1112C61.4774 47.4427 62.0142 47.8432 62.5976 48.2957C62.8763 48.0645 63.2783 47.9136 63.7538 47.8501L63.7531 47.8509Z" fill="#38A1FF"/>
<path d="M17.4955 41.5558L16.9932 41.9111L12.1509 53.3338C13.9105 51.9035 15.3546 50.9586 16.948 50.0474C17.095 47.3345 17.2772 44.356 17.4955 41.5558Z" fill="#38A1FF"/>
<path d="M18.4022 40.9141C18.1809 43.725 17.988 46.7641 17.8325 49.5551C19.8815 48.4478 21.7123 47.6929 23.9267 46.9616C24.1564 43.2847 24.4452 39.4501 24.7859 36.4019C23.8847 36.9394 18.4022 40.9141 18.4022 40.9141Z" fill="#38A1FF"/>
<path d="M38.8471 34.394C35.808 34.5686 30.2177 34.8887 33.2253 34.7179C32.9175 37.061 32.6495 40.1307 32.4229 43.3083C33.1694 43.4492 33.9237 43.6896 34.6817 44.0327C35.8815 43.78 37.1365 43.548 38.3578 43.3711C38.5983 40.0556 38.8869 36.855 39.2192 34.4607L38.8471 34.394Z" fill="#38A1FF"/>
<path d="M45.7155 35.6278L40.0608 34.6117C39.7399 36.9302 39.4628 40.0283 39.23 43.2534C41.0899 43.0237 42.8165 42.9471 44.0792 43.1577C44.4628 42.4999 44.8357 41.807 45.1825 41.0964C45.341 39.1293 45.5187 37.2549 45.7155 35.6278Z" fill="#38A1FF"/>
<path d="M27.3775 43.9036C28.716 43.3109 30.1248 43.0644 31.5697 43.1907C31.7941 40.0996 32.0605 37.1057 32.3676 34.7665L29.2412 35.8844H25.6937C25.3584 38.7619 25.0705 42.4985 24.8369 46.1578C25.4855 45.1187 26.3354 44.363 27.3783 43.9028L27.3775 43.9036Z" fill="#38A1FF"/>
<path d="M32.2146 26.0557C31.9948 25.5978 31.4182 25.5304 31.2283 25.5089C30.5683 25.4324 30.0959 24.9906 29.4994 24.3749C29.0491 23.9117 28.4603 24.0442 28.2268 24.5656C27.2957 26.6391 28.6096 28.2272 30.187 28.2272C31.6747 28.2272 32.5346 26.7233 32.2146 26.0557ZM31.3631 26.7869C30.4343 28.2624 27.8952 27.1789 28.9236 24.8841C29.3317 25.231 29.955 26.133 31.1403 26.2701C31.4565 26.3068 31.5239 26.3857 31.5239 26.3857C31.5239 26.3857 31.5476 26.4944 31.3631 26.7869Z" fill="#191919"/>
<path d="M26.0981 22.0657C25.9863 22.2128 25.7903 22.1951 25.6448 22.0818C25.4342 21.9363 25.4694 21.7426 25.5636 21.5474C25.68 21.3062 25.84 21.0964 26.082 20.9639C27.0429 20.4386 28.0001 20.4647 28.9656 20.9317C29.1287 21.0106 29.2558 21.1262 29.2252 21.3207C29.1915 21.5313 29.0146 21.5474 28.8523 21.5634C26.9158 21.5634 26.5253 21.506 26.0981 22.0657Z" fill="#191919"/>
<path d="M32.4479 21.2396C32.4479 21.2396 32.6263 21.2879 32.6906 21.3529C33.1485 21.8185 33.5819 22.3415 33.7274 23.0053C33.8729 23.6692 33.0643 24.3315 32.4479 24.0742C32.173 23.9594 32.3223 23.7695 32.4479 23.6041C32.5819 23.4288 32.9027 23.4586 32.9341 23.1508C32.9686 22.8108 32.7182 22.6194 32.5612 22.3568C32.2595 21.8522 31.866 21.4219 32.464 21.2228L32.4479 21.2396Z" fill="#191919"/>
<path d="M36.6923 19.6523C36.4166 19.8628 36.19 19.7977 35.9633 19.7977C35.3316 19.7977 34.6961 19.8245 34.1655 20.2028C33.9863 20.3307 33.7979 20.3927 33.631 20.2028C33.3592 19.8927 33.7221 19.5826 33.7604 19.506C34.4411 18.7771 35.9312 18.8261 36.6923 19.6523Z" fill="#191919"/>
<path d="M15.3899 21.7909C13.1533 24.9931 14.3723 27.9548 17.0262 28.2549C17.416 28.2986 17.8042 28.3032 18.1924 28.3193C18.3218 29.5987 19.0194 30.4242 20.0553 31.0406C21.223 31.7358 22.2912 31.3644 23.295 30.6845C23.5707 30.9601 23.599 31.2526 23.684 31.5428C24.0102 32.6646 24.3387 33.7818 24.7529 34.8798C24.9428 35.3836 24.8325 35.5582 24.38 35.7871C22.0408 36.9732 19.9221 38.4893 18.0301 40.2902C14.0836 44.0467 12.0178 48.6739 11.4175 53.9442C11.8999 53.533 12.3983 53.1272 12.9121 52.7313C13.6801 48.0996 15.9497 44.2389 19.3586 40.9878C21.0584 39.3668 23.0293 38.0949 24.9635 36.7917C25.3027 36.5635 25.5799 36.5299 25.9842 36.6141C27.9474 37.0214 29.8525 36.7534 31.6052 35.804C32.2683 35.4449 32.9183 35.2106 33.6626 35.1233C35.8678 34.866 38.0692 34.8645 40.2721 34.9456C42.4904 35.0268 44.449 35.8116 46.8066 36.8231C46.9199 36.3813 47.0348 35.8308 47.1236 35.3836C42.1435 33.2128 40.9842 33.3491 35.704 33.5689C34.586 33.6156 33.4681 33.7795 32.3341 34.1355C32.3341 33.585 32.0424 33.2121 32.1396 32.7266C32.9007 32.7266 33.5477 32.3354 34.2131 32.062C38.5332 30.2871 40.1328 26.0444 39.802 21.5482C39.6986 20.1439 40.6274 19.892 41.5034 19.1829C43.2668 17.7549 43.3234 15.5129 41.7461 13.3835C41.3877 12.8996 41.1688 12.5665 41.5355 12.055C41.6297 11.9233 41.6657 11.7472 41.7139 11.5849C42.2706 9.70738 40.4988 7.79083 39.0248 7.9723C38.377 8.05194 37.7285 8.08563 37.1128 8.32835C36.5906 6.87812 36.1159 5.63003 34.3915 5.16984C32.6258 4.69894 30.9421 4.89649 29.4183 5.91487C29.0301 6.17444 28.8188 6.19052 28.511 5.81762C27.5071 4.60246 25.1434 4.20123 23.5056 5.02359C20.8096 6.37888 21.7406 7.41641 19.7307 8.06955C17.9328 8.65378 16.357 9.63923 15.5025 11.4876C14.8516 12.8958 14.9152 13.5489 15.9887 14.6301C16.1985 14.8414 16.3448 15.0673 16.442 15.359C15.3402 15.9425 14.602 16.8207 14.0607 17.8866C13.5163 18.9586 13.7207 20.4463 14.5147 21.2396C14.7735 21.4984 15.1625 21.5313 15.3892 21.7901L15.3899 21.7909ZM38.7177 23.8805C38.1894 28.0099 36.6182 30.1209 32.8211 31.4778C30.5868 32.2756 28.4145 31.8338 26.2767 31.0406C26.1817 31.0168 25.6748 30.6202 25.4987 31.0566C25.4145 31.2657 25.5485 31.4119 25.7414 31.5428C26.6373 32.1508 27.6205 32.5681 28.6901 32.6769C29.5156 32.7611 30.3264 32.9686 31.1687 32.8713C31.282 33.2925 31.3479 33.5834 31.4444 33.8759C31.6327 34.4464 31.6925 34.6156 31.4214 34.804C30.56 35.4027 28.5094 36.088 27.0217 35.82C26.2774 35.6853 25.8356 35.3346 25.6289 34.5076C25.0531 32.2098 24.1978 30.0153 23.2154 27.8491C22.5278 26.3346 21.3946 26.2901 20.4612 25.9372C19.3892 25.5329 19.3187 24.1546 20.5255 23.7342C21.1128 23.5298 22.9551 23.8575 23.0362 21.725C23.0699 20.8498 23.0362 21.0612 23.0362 17.2051C23.7973 17.48 24.3325 17.8514 25.0286 17.869C26.1947 17.8988 27.3563 17.3812 27.7828 16.0543C28.0225 15.31 27.9842 15.2304 29.1756 15.8927C30.6986 16.6056 31.8969 16.3628 33.0309 15.1316C33.7866 14.3108 34.5761 14.2932 35.3961 15.0834C35.8663 15.5359 36.3992 15.7097 37.0324 15.5857C37.2913 15.5351 37.5187 15.3751 37.8426 15.4073C38.1343 16.104 38.3311 16.8491 38.4092 17.5941C38.6282 19.6829 38.9888 21.7572 38.717 23.8797L38.7177 23.8805ZM15.2605 17.8697C15.6503 17.1576 16.2 16.5742 16.8478 16.088C17.4956 15.6017 17.5615 14.9693 17.0584 14.3383C16.3471 13.4455 15.8907 12.9823 16.4588 11.8598C17.0844 10.6255 18.1105 9.78548 19.3425 9.18671C19.8769 8.92713 20.3792 8.62085 21.0109 8.555C21.465 8.50753 21.7238 8.06878 21.9665 7.72881C23.3586 5.78394 25.6963 4.80537 27.7016 6.44933C28.0546 6.738 28.7154 7.70278 29.7912 6.88654C31.2009 5.81762 32.7706 5.82375 34.3762 6.22191C35.1044 6.40262 35.4505 7.07797 35.802 7.67981C35.9337 7.90569 35.9796 8.19895 36.1259 8.40875C36.6909 9.22039 36.4145 9.35363 37.5998 9.05654C40.3089 8.37736 41.3931 10.2916 40.5317 11.8429C39.8219 13.1224 39.7185 13.0366 40.6772 13.5114C41.0991 13.7204 41.3265 14.0941 41.4551 14.4999C42.2323 16.9509 41.7109 18.0995 39.7867 19.1653C39.5922 18.258 39.3785 17.4325 39.2522 16.5895C39.1527 15.9256 38.8326 15.3253 38.6366 14.6944C38.2116 13.3245 37.3112 15.5558 35.769 14.0137C34.635 12.8797 33.8257 12.9448 32.7399 14.1109C31.6473 15.2832 30.926 15.7687 29.6457 15.0834C29.2882 14.8919 28.9489 14.6974 28.5439 14.6132C27.6358 14.4249 27.2307 14.6132 26.9076 15.4723C26.4206 16.7679 25.6817 17.1102 24.3639 16.6546C23.7414 16.4394 22.7154 15.6684 22.4037 17.0267C22.1472 18.1446 22.1044 19.2786 22.112 20.4126C22.125 22.271 22.223 22.7557 20.8968 22.7779C20.6212 22.7825 20.3616 22.8093 20.1189 22.9073C19.4527 23.1783 18.8593 23.4907 18.7743 24.333C18.6817 25.2572 18.9359 25.9532 19.7299 26.4709C20.1028 26.7143 20.5079 26.8882 20.929 26.941C22.1817 27.098 22.4145 28.1301 22.9864 29.2733C21.269 30.7312 19.9083 30.3101 19.2605 28.1722L19.2445 28.2044C19.1151 27.7833 18.9367 27.4931 18.4665 27.4104C18.0125 27.3307 17.5752 27.1232 17.1059 27.0704C15.906 26.9349 15.2942 25.7909 15.3402 24.8836C15.3915 23.879 15.5523 22.9088 16.3608 22.1623C16.8141 21.7434 16.8172 21.48 16.1013 21.0283C14.7927 20.2013 14.5147 19.2304 15.259 17.869L15.2605 17.8697Z" fill="#191919"/>
<path d="M63.1897 47.9786C63.6185 47.8339 64.1537 47.7841 64.7364 47.837C63.8505 46.5521 62.6805 45.2979 61.3367 44.1003C61.2593 44.6072 61.1843 45.1493 61.123 45.7114C61.8972 46.4503 62.5947 47.2083 63.1897 47.9786Z" fill="#191919"/>
<path d="M77.0876 76.0171C76.619 75.2805 76.2782 74.5018 76.0416 73.6994C73.0286 74.0279 66.7169 74.4207 65.7713 74.4406C34.2574 75.1129 15.4648 66.8027 7.32235 61.5615C6.82005 61.2384 6.36675 60.9459 5.94562 60.6381C5.41116 61.2866 4.92494 61.9505 4.45557 62.6312C7.68605 64.9918 13.6302 68.2981 21.0284 71.0386C38.3041 77.4383 58.4504 78.07 77.0891 76.0171H77.0876Z" fill="#38A1FF"/>
<path d="M74.9083 62.8899C49.4366 65.3547 26.9388 60.2643 13.7534 53.0732C14.5314 52.4897 15.3407 51.9392 16.1669 51.4369C29.2588 57.9826 50.3401 62.4726 73.7093 60.5247C74.0982 61.2215 74.5033 62.0147 74.9083 62.8899Z" fill="#38A1FF"/>
<path d="M34.918 48.8538C35.0084 49.3178 34.9831 49.7366 34.8774 50.0766C42.4096 51.8691 51.294 53.0598 61.0958 53.203C61.1808 51.7887 60.8377 51.3301 60.8821 50.683C59.2635 50.6493 57.7964 50.6004 56.9579 50.5606C53.7941 52.8416 49.6907 52.0261 46.9142 49.6693C44.1194 49.2604 40.8805 48.7106 37.7044 48.036C38.1592 50.3836 36.0865 50.7719 34.9173 48.8522L34.918 48.8538Z" fill="#38A1FF"/>
<path d="M61.5064 91.2316C62.4076 90.3143 63.3793 89.4452 64.4161 88.6305C46.2713 89.4582 30.2145 86.8686 18.8891 82.7354C10.0651 79.5141 4.43264 75.8578 1.74962 73.8249C1.06739 73.3088 0.566618 72.9015 0.259572 72.6266C0.081164 73.599 0 74.6029 0 75.6075C16.5208 88.1397 39.5806 91.962 61.5072 91.2323L61.5064 91.2316Z" fill="#38A1FF"/>
<path d="M55.2099 101.49C42.1026 101.584 28.415 99.714 16.3828 95.3717C16.3667 95.9337 16.2174 96.0264 15.7939 97.9307C28.075 102.293 41.3622 104.031 54.5835 103.961C54.7451 103.126 54.9557 102.302 55.2099 101.49Z" fill="#38A1FF"/>
<path d="M70.4481 56.4244C70.3647 57.0056 70.22 57.5822 70.063 58.1901C72.2928 60.7445 74.1756 63.7001 75.756 68.1534C75.864 67.3663 76.0202 66.5929 76.2032 65.8502C74.0194 60.5156 73.024 59.1396 70.4481 56.4244Z" fill="#191919"/>
<path d="M21.7726 69.9849C21.4487 69.9367 21.2756 70.1488 21.1891 70.4222C20.8315 71.563 18.4349 85.7262 16.5558 94.2852C15.503 93.9123 14.6791 93.3893 13.8177 92.9567C4.67754 88.3617 0.969271 80.1756 1.76483 73.8081V73.7438C2.15381 70.6174 3.3391 67.7606 4.89117 65.0446C7.14846 61.0967 11.7312 56.527 15.4532 53.9153C18.4869 51.7859 21.6255 50.276 24.902 49.093C24.4456 48.8993 24.1072 48.4153 24.1769 47.7262C22.3185 48.2913 19.9418 49.0853 16.1661 51.4207C11.5145 54.2974 7.05045 58.8386 4.45319 62.6143C2.57494 65.3456 0.862839 69.1067 0.25717 72.6098C-0.636402 77.7805 0.974631 82.9873 4.11245 87.0761C5.79317 89.266 7.98613 90.9291 10.1875 92.5517C11.8736 93.7944 13.5313 94.6711 15.4035 95.7109C16.2465 96.1788 16.1791 96.1803 15.9869 97.0394C15.7595 98.0532 14.8843 101.905 14.9502 102.952C15.0153 103.99 15.258 104.15 16.3759 103.876C16.0758 102.765 16.6202 102.1 17.8989 95.8886C19.3392 88.8916 21.4816 78.377 22.1432 70.5845C22.1677 70.2928 22.0949 70.0339 21.7703 69.9849H21.7726Z" fill="#191919"/>
<path d="M79.2823 5.2665C78.3704 3.73051 77.0442 2.64858 75.3459 2.02683C73.5939 1.38517 71.8144 1.13862 69.9515 1.26572C67.2792 1.44719 64.7501 2.03984 62.3374 3.24199C60.7815 4.01765 59.2508 4.80938 57.7692 5.73665C57.0602 6.18075 56.2952 6.45793 55.42 6.44951C54.5617 6.44186 53.6865 6.5636 52.8281 6.72516C49.6214 7.327 47.5425 9.13789 46.8021 12.3791C46.3618 14.3064 46.1321 16.2497 46.3319 18.2436C46.3664 18.5836 46.4966 18.9457 46.0081 19.167C44.6865 19.765 44.2485 20.9006 44.2424 22.2612C44.2347 24.0591 45.0701 25.4343 46.5104 26.3922C47.7753 27.2329 48.2393 28.3853 48.3894 29.8263C48.6252 32.0951 48.1681 34.2819 47.7255 36.468C47.3741 38.2023 46.6834 39.8509 45.9437 41.4573C45.6007 42.2016 45.162 42.9221 44.7447 43.6442C44.1681 44.6411 44.1788 42.9696 35.7393 44.6304C36.2316 44.9964 36.6045 45.4351 36.8939 45.9122C38.9958 45.5178 40.9927 45.2376 42.8174 45.086C43.7247 45.0102 43.6911 45.0538 43.8059 45.9443C44.044 47.795 44.7699 49.6442 46.2194 50.8532C47.1842 51.658 48.3924 52.3165 49.3297 52.6519C53.0089 53.9681 54.9782 52.9918 55.2424 52.9918C56.8458 52.524 59.3726 51.0454 59.9729 49.1358C60.345 49.4083 60.7286 49.6963 61.1214 49.9972C61.2478 49.8257 61.4346 49.6717 61.7064 49.5569C61.8519 49.4757 62.0303 49.4597 62.2087 49.4436C62.1766 49.282 62.172 49.1312 62.1927 48.9918C61.4407 48.4068 60.757 47.9045 60.1835 47.5155C60.2317 45.9282 60.443 44.3379 60.734 42.769C60.8994 41.8785 61.626 42.1533 61.9002 42.1533C64.476 42.3961 66.9844 42.2468 69.2708 40.8739C71.2455 39.6878 72.672 37.9902 73.7256 35.965C76.2134 31.1839 77.0365 24.4703 76.7226 19.2949C76.6514 18.118 77.6629 18.6234 78.7961 17.4802C82.3689 13.8791 81.8612 9.61109 79.2823 5.2665ZM75.5243 21.1908C75.4423 27.0614 74.2662 34.4397 70.0648 38.5408C68.2861 40.2774 66.0962 40.9144 63.6659 40.906C62.4025 40.9022 61.1391 40.7605 59.8917 40.4688V40.4849C56.1865 39.6388 54.6896 37.0117 54.1896 36.8241C53.7194 36.6158 53.4989 36.9627 53.639 37.2774C53.7845 37.6985 54.0479 38.0515 54.3197 38.3792C55.5188 39.8233 56.9423 40.9282 58.7746 41.4734C59.8756 41.8004 59.8726 41.8287 59.6819 42.9474C59.4009 44.599 59.0824 46.236 59.0985 47.9214C59.1015 48.2452 58.9369 48.4719 58.7585 48.7315C56.0648 52.6457 50.7454 52.9206 46.9162 49.671C46.9001 49.671 46.884 49.671 46.8679 49.6388C45.6857 48.6181 45.2515 47.2238 44.8587 45.7988C44.7783 45.5071 44.871 45.2766 45.0854 45.0699C46.3741 43.8295 47.0999 42.2697 47.7424 40.6472C49.1321 37.1365 49.9124 33.5032 49.6375 29.6962C49.5073 27.8975 48.9208 26.4144 47.3044 25.4037C46.0701 24.6311 45.3442 23.4917 45.4254 21.9695C45.4254 20.9258 46.1612 19.8523 47.3534 20.0897C48.4407 20.3072 49.2439 20.8868 49.7508 21.8722C50.2018 22.7474 50.2523 23.5629 51.0471 24.0752C51.3902 24.2972 51.7271 24.3332 52.0678 24.0912C52.6176 23.7007 53.113 23.2628 53.3151 22.5683C53.4713 22.0315 53.6406 21.4833 53.672 20.9159C53.8726 17.2872 55.9239 15.458 58.6773 14.4848C61.7884 13.3852 64.9798 13.1869 68.2356 13.8852C69.2884 14.1111 70.3405 14.2451 71.3619 14.5659C73.3642 15.1946 75.5779 17.4296 75.525 21.1915L75.5243 21.1908ZM77.3711 17.043C76.6567 17.7551 76.5419 17.7421 76.0587 16.8975C74.672 14.4725 72.5618 13.144 69.8221 12.7015C68.074 12.4189 66.355 12.007 64.5571 12.0698C58.7325 12.2742 53.3519 14.1249 52.6505 19.9105C52.4713 21.3899 52.4866 21.775 52.2615 22.373C52.1589 22.6464 52.067 23.0047 51.711 23.0047C51.4032 23.0047 51.3549 22.6487 51.2248 22.4212C50.8128 21.8332 50.4445 19.7566 48.0012 19.1486C47.5816 19.0445 47.4828 18.8087 47.4667 18.4358C47.3526 15.7949 47.6444 13.2275 48.7952 10.8056C49.0349 10.3017 49.4085 9.94417 49.832 9.60649C51.1046 8.59347 52.5854 8.12333 54.1735 7.97019C54.7079 7.91889 55.2263 7.81093 55.7608 7.7757C56.8948 7.70066 57.8994 7.30633 58.855 6.72287C59.9407 6.059 61.0747 5.49239 62.1919 4.89208C65.2386 3.25731 68.4936 2.49237 71.9278 2.73816C73.953 2.88212 75.8818 3.48242 77.306 5.07048C78.2793 6.15548 78.8283 7.50082 79.3474 8.82854C80.594 12.02 79.6996 14.7221 77.3711 17.043Z" fill="#191919"/>
<path d="M79.7822 81.8112C79.7554 80.7117 79.7011 79.6504 79.6199 78.6466C78.9583 78.1757 78.3948 77.665 77.917 77.1221C78.1138 78.7285 78.2401 80.4391 78.3067 82.1259C78.4637 82.0899 79.4806 81.8709 79.7822 81.8112Z" fill="#191919"/>
<path d="M66.207 87.3211C67.0539 81.8893 67.0661 78.6197 67.1328 72.367C67.1381 71.8647 67.0998 71.3624 67.0516 70.8601C67.0187 70.5201 66.89 70.1633 66.4681 70.1963L66.4842 70.1802C66.1113 70.2123 66.0577 70.5523 66.0141 70.8609C65.3203 75.7667 66.0952 78.4061 64.5332 88.5394C65.0738 88.1182 65.632 87.7116 66.2063 87.3219L66.207 87.3211Z" fill="#191919"/>
<path d="M59.923 29.632C59.6167 30.3977 59.5961 31.5814 59.7125 32.0945C59.946 33.1266 60.3932 33.988 61.4782 34.3142C62.4989 34.6205 63.3901 34.3142 64.1672 33.6335C65.9789 32.0485 63.5792 32.1588 61.6565 30.3127C60.9865 29.6695 60.3441 28.5799 59.923 29.632ZM63.9406 32.7101C63.1305 33.3739 62.3848 33.9421 61.446 33.3908C60.3442 32.7438 60.4743 31.6251 60.5064 30.4421C60.7989 30.975 61.5271 31.4306 62.0937 31.8027C63.0064 32.4023 64.0409 32.7101 63.9406 32.7101Z" fill="#191919"/>
<path d="M69.0601 19.2797C69.5058 19.3594 70.4958 18.7828 72.5272 19.7981C72.8189 19.9436 73.0938 20.1381 73.4989 20.171C73.564 19.8471 73.4836 19.6358 73.3695 19.426C72.6137 18.0355 69.9001 17.6273 68.8825 18.6809C68.6512 18.9198 68.7538 19.2254 69.0609 19.2805L69.0601 19.2797Z" fill="#191919"/>
<path d="M61.041 24.253C62.335 24.6297 62.123 24.132 61.8833 23.9291C60.7255 22.9497 58.662 22.7828 57.3794 23.5891C56.9851 23.8372 56.4254 24.2912 56.7317 24.6419C57.2102 25.1902 57.8825 23.3341 61.041 24.253Z" fill="#191919"/>
<path d="M67.3105 27.8009C67.3105 27.4609 67.2944 27.1371 67.1811 26.8124C66.4024 24.5835 66.407 24.2098 65.9989 24.3499C65.5004 24.5207 66.0165 25.7718 66.2745 26.683C66.6107 27.8721 66.6566 28.0306 65.0923 28.951C66.5019 29.4533 67.2791 28.951 67.2952 27.8009H67.3105Z" fill="#191919"/>
<path d="M61.608 19.0049C61.6731 18.4214 61.3316 18.1511 60.8791 18.0654C59.4993 17.8043 58.2313 18.0409 57.1693 19.0209C56.9082 19.2621 56.6509 19.5554 56.9097 20.0255C58.3178 19.001 59.8944 19.0056 61.608 19.0049Z" fill="#191919"/>
<path d="M68.8172 24.5125C68.896 24.6435 69.0438 24.658 69.1732 24.6259C71.0232 24.3173 72.0622 25.0991 72.818 24.9988C72.8991 24.8043 72.883 24.707 72.818 24.6259C72.1625 23.8119 70.6694 23.55 69.7222 23.7162C69.2429 23.8004 68.6235 24.1909 68.8172 24.5125Z" fill="#191919"/>
<path d="M37 48.5689C37 48.8928 36.9831 49.1026 36.7894 49.2167C36.5451 49.3607 36.3491 49.2206 36.1577 49.0712C35.8943 48.866 35.7481 48.5559 35.5742 48.2611C34.3568 46.1914 32.3506 45.1708 29.9693 45.5069C28.4632 45.7198 27.1378 46.2711 26.2595 47.5965C26.0979 47.84 25.8866 48.0666 25.66 48.2604C25.3774 48.5031 24.9961 48.3369 24.9961 47.9043C24.9961 47.6287 25.1064 47.3844 25.2227 47.1432C25.7587 46.0345 26.5658 45.1639 27.7174 44.6486C30.0803 43.5904 32.4173 43.8032 34.6669 44.9242C36.1906 45.6838 36.6922 47.144 37 48.5689Z" fill="#191919"/>
<path d="M31.4068 47.8317C31.6274 48.3654 31.916 49.1235 31.9459 49.5086C32.0102 50.3348 31.8961 51.2422 31.2981 50.1893C29.854 47.6472 29.0424 47.8149 29.3862 47.1763C29.7506 46.5002 30.8249 46.4259 31.4068 47.8317Z" fill="#191919"/>
<path d="M33.549 47.2053C33.7733 47.739 34.101 48.5782 34.1324 48.9902C34.1967 49.8164 34.0826 50.7237 33.4846 49.6709C32.0405 47.1288 31.2289 47.2964 31.5727 46.6579C31.9486 45.9603 33.029 45.9695 33.5482 47.2061L33.549 47.2053Z" fill="#191919"/>
<path d="M27.6853 48.6501C27.5077 48.4709 27.4747 48.2128 27.6202 48.0023C27.7986 47.7435 28.072 47.7649 28.3492 47.8399C28.99 48.0138 29.8645 49.2113 29.7642 50.7029C29.5789 53.474 29.3185 50.2986 27.6853 48.6501Z" fill="#191919"/>
<path d="M69.1897 58.3218C69.1537 58.4834 69.0602 58.6296 68.963 58.759C68.9148 58.8241 68.8007 58.8723 68.7203 58.8884C68.558 58.8884 68.5112 58.7583 68.4936 58.6288C68.2991 57.2046 69.6131 55.4466 67.2463 51.5333C66.0886 49.619 62.953 50.4659 63.002 49.2653C63.0189 48.8602 63.3581 48.763 63.7149 48.7147C65.7241 48.4398 67.8259 49.6075 68.7693 51.3878C70.1253 53.9475 69.7402 55.8325 69.1904 58.321L69.1897 58.3218Z" fill="#191919"/>
<path d="M63.3418 52.3113C63.2767 53.4774 62.9927 54.6091 62.678 55.7291C62.6282 55.9068 62.4988 56.0844 62.3701 56.2314C62.0593 56.5875 61.6519 56.3401 61.6573 56.0208C61.6871 54.2715 62.1527 53.0073 61.7545 51.2584C61.6772 50.9177 61.5746 50.4935 62.0302 50.3028C62.3855 50.1543 62.8564 50.4001 63.0991 50.8534C63.3418 51.3067 63.3747 51.809 63.3587 52.3113H63.3418Z" fill="#191919"/>
<path d="M65.4796 54.5308C65.5117 55.5193 65.0768 56.3792 64.6212 57.2199C64.5248 57.3983 64.3785 57.5438 64.135 57.4956C63.8111 57.4305 63.8433 57.1395 63.8594 56.945C63.8915 56.556 63.9865 56.1671 64.086 55.7789C64.7261 53.2851 63.4681 52.3815 64.3456 51.9719C64.6672 51.8218 65.0102 52.1174 65.2039 52.733C65.5738 53.9068 65.403 54.4543 65.4796 54.5308Z" fill="#191919"/>
<path d="M66.5654 57.0094C67.1932 54.2898 65.8556 53.531 66.7759 53.0892C67.1159 52.9261 67.3893 53.1872 67.6504 53.8503C68.1542 55.1288 67.9643 56.7391 67.22 57.8433C66.269 59.2552 66.2729 58.2728 66.5646 57.0086L66.5654 57.0094Z" fill="#191919"/>
<path d="M68.2819 101.754C68.5277 100.414 69.0062 98.9644 70.2099 98.3358C70.6762 98.0923 71.1992 98.1688 71.6035 98.4652H71.6196C72.0247 98.7569 72.1962 99.1956 72.0898 99.7768C71.9366 100.614 71.2513 100.5 71.1342 104.426C71.0798 106.235 71.3332 108.353 70.7895 109.455L102.849 109.049C102.607 108.454 102.836 108.108 102.627 106.111C102.503 104.922 102.242 101.348 101.622 100.343C100.538 98.5838 103.609 96.7454 104.814 99.9062C105.719 102.284 105.915 105.771 105.964 108.314C105.968 108.544 105.94 108.739 105.884 108.903L115.232 107.962C115.026 107.3 115.044 106.711 113.804 103.939C110.16 95.9659 105.947 88.0348 94.2346 84.8395C92.9275 88.8219 86.8486 89.5915 84.4176 85.9245C83.9313 85.1956 83.8019 84.6121 83.7368 84.2231C73.9037 84.5631 59.0154 91.0922 56.9909 107.875C56.987 108.183 56.9373 108.428 56.8584 108.623L68.0928 109.422C67.8876 106.874 67.8868 103.909 68.2819 101.752V101.754Z" fill="#38A1FF"/>
<path d="M68.8978 109.335C68.7354 107.683 68.7684 108.736 68.7684 107.067C68.7684 104.957 68.678 99.9897 70.5662 99.064C70.7615 98.9683 70.956 98.9981 71.1328 99.129C71.3281 99.2738 71.3113 99.469 71.2783 99.6635C71.2783 100.014 70.41 100.539 70.3227 104.426C70.2377 108.196 70.4544 107.455 70.3733 108.538C70.3204 109.24 69.6803 109.427 68.9131 109.351L68.8978 109.335Z" fill="#191919"/>
<path d="M105.186 107.796C105.186 108.445 105.289 108.895 104.668 108.882C104.052 108.869 103.529 109.265 103.534 108.347C103.542 106.766 103.158 101.277 102.302 99.923C102.139 99.665 102.173 99.4046 102.4 99.1941C102.643 98.9674 102.934 98.9345 103.226 99.0968C104.877 100.015 105.067 105.968 105.186 107.812V107.796Z" fill="#191919"/>
<path d="M109.932 69.5806C110.078 68.7544 109.868 67.9925 109.608 67.2644C109.204 66.1304 108.702 65.0278 108.004 64.0569C107.049 62.7276 106.246 62.5377 104.715 63.1173C104.538 63.1847 104.359 63.3601 104.197 63.1173C103.651 62.1824 106.851 60.442 108.684 62.8746C109.757 64.2973 110.411 65.8869 110.547 67.6694C110.599 68.3494 110.547 69.063 109.931 69.5975V69.5814L109.932 69.5806Z" fill="#191919"/>
<path d="M88.1252 72.2882C87.4897 74.9245 83.979 75.1083 82.7324 73.0631C81.8227 71.5692 83.8151 73.1029 86.7339 70.5034C87.0257 70.2438 87.3496 69.887 87.7868 70.0822C88.4093 70.3602 88.283 71.6335 88.1252 72.2882ZM84.126 73.047C85.9889 73.9544 87.2684 73.1282 87.3496 70.9896C86.4261 71.9942 85.4215 72.7231 84.126 73.047Z" fill="#191919"/>
<path d="M93.7485 71.1198C93.6313 70.4413 93.8871 69.8043 94.1045 68.1879C94.5303 65.0317 93.3404 64.305 93.2944 63.4413C93.2944 63.2307 93.3434 63.0378 93.5372 62.9229C93.7814 62.779 93.9905 62.8418 94.1689 63.0202C94.3143 63.1657 94.443 63.3127 94.5418 63.4903C95.0846 64.4666 95.4683 65.4834 95.368 66.6327C95.2424 68.0746 94.966 69.4597 94.1857 70.7315C94.0869 70.8923 94.0402 71.0876 93.7485 71.1366V71.1198Z" fill="#191919"/>
<path d="M92.7117 65.5309C91.6749 65.4826 91.0884 64.9826 90.5892 64.4129C89.8556 63.5745 89.3947 62.5691 89.1313 61.4811C89.0294 61.0607 89.0317 60.6212 89.2768 60.2177C89.4054 60.0063 89.5853 59.8563 89.8434 59.9099C90.0547 59.9543 90.2125 60.1043 90.2163 60.331C90.2324 61.3195 90.6512 62.1947 91.0425 63.0852C91.6458 64.4589 92.6252 65.4887 92.7109 65.5316L92.7117 65.5309Z" fill="#191919"/>
<path d="M87.4148 63.3433C85.0258 62.2384 84.4232 58.612 85.8918 58.4183C86.2647 58.3693 86.4868 58.563 86.4102 58.9206C86.0993 60.3746 86.5465 61.6886 87.2525 62.9221C87.2992 63.0041 87.3176 63.1005 87.4148 63.3433Z" fill="#191919"/>
<path d="M83.7698 70.2446C82.9597 70.2124 82.5393 69.7905 82.2308 69.2239C81.9398 68.6887 82.0891 68.207 82.4735 67.766C82.8663 67.3158 83.2683 66.8763 83.7369 66.5026C83.8992 66.3732 84.1136 66.2874 84.2874 66.4544C84.4697 66.6282 84.3694 66.828 84.2392 66.9888C83.9498 67.3472 83.6404 67.7024 83.3318 68.0577C83.0087 68.4306 82.9429 68.7867 83.2346 69.2239C83.4245 69.5087 83.8808 70.4666 83.7698 70.2446Z" fill="#191919"/>
<path d="M79.8818 64.9152C79.963 64.1863 80.4653 63.6357 80.8864 63.733C81.3076 63.8302 81.3573 64.1541 81.3076 64.5109C81.1039 65.9696 79.79 65.7812 79.8979 64.916L79.8818 64.9152Z" fill="#191919"/>
<path d="M88.3544 66.9237C88.5351 65.5515 89.9746 65.6327 89.7802 66.7453C89.6806 67.3119 89.2296 67.7499 88.7916 67.6687C88.3537 67.5875 88.3383 67.2476 88.3544 66.9397V66.9237Z" fill="#191919"/>
<path d="M117.433 106.986C116.899 104.605 116.122 103.632 115.246 101.365C111.448 91.534 103.634 85.1986 94.1054 82.6052C95.2233 78.2637 95.6445 76.7392 96.6161 76.6925C98.6896 76.5922 100.386 75.6358 101.816 74.1978C103.755 72.2483 104.019 68.9489 103.824 66.2116C106.546 68.3172 105.818 72.5784 106.595 70.3104C107.211 68.5125 105.961 65.0852 103.906 64.7376C102.122 64.4359 102.883 66.001 102.059 70.2453C101.263 74.3433 97.1016 75.753 96.7616 75.413C97.9438 72.06 99.2501 73.3188 100.634 71.5087C102.408 69.1863 99.8144 66.2246 96.4706 67.9122C96.1797 68.0592 95.8213 68.269 95.9844 68.6733C96.1291 69.0301 96.5028 68.8999 96.7785 68.8188C99.0304 68.1557 100.544 69.4076 99.4998 70.8272C98.6628 71.9658 97.2792 71.7016 96.4538 73.1925C94.9293 75.9459 93.6023 78.7974 93.0196 81.9077C91.8359 88.2254 84.3335 86.459 85.7623 81.5838C86.2799 79.8181 86.0372 79.4919 86.8963 79.3969C88.9859 79.1657 94.0403 76.756 93.4898 74.8127C92.113 74.7315 88.9852 78.9965 83.2516 77.8908C79.7355 77.2131 77.1834 74.5041 77.5977 69.2078C77.7248 67.5875 78.8611 62.0959 79.8978 60.8325C80.724 61.756 81.3396 62.906 83.0081 62.955C82.1658 62.3233 81.7294 61.6258 81.3236 60.9137C77.4001 54.0377 91.6092 46.9182 98.8841 56.086C102.188 60.2498 101.589 62.4367 103.112 60.7192C105.396 58.1434 110.117 58.5944 111.537 61.8693C112.351 63.7468 112.812 65.6595 112.444 67.7016C112.231 68.8839 112.944 67.9765 113.173 67.135C114.185 63.4068 112.51 59.9083 110.484 58.6135C107.666 56.8134 103.517 57.8034 102.287 60.1526C101.703 59.8287 99.7264 48.6449 87.7394 50.4489C82.0525 51.3049 78.9346 56.1526 79.283 58.9213C79.4729 60.4282 71.6505 73.0232 80.8703 78.4582C82.2654 79.2805 82.8948 78.9452 84.4507 79.1871C85.3902 79.3334 84.842 80.0462 84.3052 81.9896C84.2248 82.2813 84.0786 82.3311 83.7868 82.2974C82.1337 82.1083 80.5142 82.4276 78.9269 82.7675C65.6604 85.6068 55.3794 95.433 54.9835 107.683C54.9544 108.582 56.0356 108.742 56.1657 107.585C58.0065 91.2423 72.6244 83.4184 83.9323 83.2048C84.9208 83.1864 84.0617 83.7714 85.0663 85.2783C87.172 88.4375 92.5005 87.6757 93.4905 84.2415C93.7011 83.5126 94.4469 83.851 95.1912 84.1443C101.2 86.508 105.446 88.9766 108.943 93.4766C112.744 98.3679 115.213 104.366 115.943 107.359C115.975 107.488 116.008 107.683 116.089 107.699C116.51 107.828 116.965 107.8 117.368 107.65C117.71 107.524 117.481 107.164 117.416 106.938L117.432 106.986H117.433Z" fill="#191919"/>
</svg>
