<svg width="154" height="154" viewBox="0 0 154 154" fill="none" xmlns="http://www.w3.org/2000/svg">
<path d="M51.4285 37.8263C51.2562 37.9986 52.1942 38.8102 52.3267 38.9036C52.6405 39.1273 53.0098 39.2601 53.3941 39.2875C53.7784 39.315 54.1629 39.236 54.5052 39.0592C54.8476 38.8824 55.1346 38.6148 55.3348 38.2856C55.535 37.9563 55.6406 37.5783 55.64 37.193C55.621 36.6955 55.4369 36.2185 55.1168 35.8372C54.7966 35.4559 54.3587 35.1921 53.8719 35.0873C54.0498 34.3608 53.9573 33.5943 53.6116 32.9309C53.266 32.2675 52.6908 31.7525 51.9934 31.482C51.296 31.2115 50.524 31.2039 49.8214 31.4607C49.1188 31.7174 48.5336 32.221 48.175 32.8775C47.2346 32.0836 46.0471 31.6422 44.8165 31.629C43.5859 31.6159 42.3892 32.0319 41.432 32.8055C40.4749 33.5791 39.8172 34.662 39.572 35.8679C39.3267 37.0739 39.5093 38.3277 40.0883 39.4136C39.2654 39.0825 38.3561 39.0324 37.5018 39.2714C36.6475 39.5103 35.8961 40.0248 35.3644 40.7348C34.8327 41.4449 34.5504 42.3107 34.5615 43.1977C34.5727 44.0847 34.8765 44.9431 35.4259 45.6396C34.7437 45.5583 34.0519 45.6271 33.3991 45.8411C32.7462 46.0551 32.148 46.4092 31.6463 46.8786C30.9807 47.443 30.452 48.1513 30.1001 48.95C29.7482 49.7486 29.5823 50.6168 29.6149 51.4889C29.6983 53.5816 31.6019 56.0725 33.6793 55.9492C36.0149 55.4926 38.3189 54.8864 40.5768 54.1345C41.2486 53.9608 41.8585 53.6031 42.338 53.1015C43.9199 51.149 44.3334 47.0325 44.3288 44.7552C44.3288 43.733 44.1351 42.7215 44.116 41.7123C44.6048 41.708 45.0862 41.5928 45.5239 41.3753C45.9617 41.1577 46.3443 40.8436 46.6428 40.4565C47.1588 39.7582 47.4077 38.8982 47.3442 38.0323C47.9313 38.506 48.6723 38.7469 49.4257 38.7089C50.1791 38.6709 50.8921 38.3567 51.4285 37.8263Z" fill="#38A1FF"/>
<path d="M55.4628 50.5425C54.5801 49.2432 53.4763 48.1088 52.2017 47.1909C52.2989 47.2614 51.0531 48.3395 50.9268 48.4214C50.5378 48.6841 49.8387 48.8104 49.5561 49.1802C49.3504 49.638 49.2585 50.1387 49.2881 50.6397C49.2049 51.3916 49.1447 52.1474 49.1074 52.907C51.103 52.8123 53.0873 52.5529 55.0402 52.1313C55.7622 52.0425 56.0992 51.4559 55.4628 50.5425Z" fill="#38A1FF"/>
<path d="M93.4784 63.3245C92.7985 62.5588 90.0748 60.9792 88.6613 58.9431C84.3243 52.6941 82.982 45.2575 82.9629 37.6478C82.9858 37.6371 85.1834 36.0766 86.7363 36.0054C87.8051 35.9767 88.8636 36.2196 89.8129 36.7114C89.7793 37.6653 89.8809 38.6191 90.1146 39.5445C91.3398 46.3846 94.7755 54.0494 101.557 55.5296C101.591 55.5389 101.626 55.5415 101.661 55.5372C101.696 55.5329 101.729 55.5218 101.759 55.5046C101.79 55.4874 101.816 55.4644 101.838 55.4369C101.859 55.4094 101.875 55.3779 101.884 55.3443C101.894 55.3106 101.896 55.2755 101.892 55.2409C101.888 55.2062 101.877 55.1728 101.86 55.1424C101.842 55.1121 101.819 55.0854 101.792 55.0639C101.764 55.0424 101.733 55.0266 101.699 55.0173C98.2429 53.575 95.4452 50.9009 93.8483 47.5133C91.1507 42.0859 91.2961 38.435 90.5779 36.4663C90.2601 35.595 87.7333 34.8538 86.5556 34.9196C85.3128 34.9893 82.5632 36.3132 82.4292 36.7726C80.9131 41.9856 82.4414 47.9865 84.3251 53.0127C85.2543 55.4624 86.4909 57.7843 88.0051 59.9225C89.7019 62.3398 92.1713 63.9731 93.1813 64.0213C93.2625 64.0223 93.3421 63.9992 93.41 63.9549C93.478 63.9105 93.5313 63.847 93.5631 63.7724C93.5949 63.6977 93.6039 63.6153 93.5888 63.5356C93.5737 63.4559 93.5353 63.3824 93.4784 63.3245Z" fill="#38A1FF"/>
<path d="M101.757 55.6123C100.553 57.4722 102.057 60.2387 104.095 60.6882C106.082 61.127 108.695 60.2127 109.313 58.1384C109.422 57.7731 108.89 57.4217 108.635 57.7456C108.195 58.389 107.593 58.9054 106.89 59.2429C106.187 59.5803 105.407 59.727 104.63 59.6683C102.617 59.434 102.205 57.4531 102.333 55.7631C102.357 55.4446 101.91 55.3757 101.757 55.6123Z" fill="#38A1FF"/>
<path d="M132.714 83.8656C132.433 79.0233 131.968 75.3264 129.756 70.6188C127.298 65.3859 123.437 60.2051 118.397 57.2096C115.805 55.669 112.727 54.8252 109.766 55.7027C109.471 55.79 109.511 56.2854 109.842 56.2593C117.23 55.6858 123.012 61.493 126.679 67.2956C130.254 72.958 131.212 77.1733 131.549 83.139C131.559 84.9567 131.709 86.771 131.998 88.5656C132.103 89.0518 132.779 88.8971 132.818 88.453C132.895 86.9234 132.86 85.3902 132.714 83.8656Z" fill="#38A1FF"/>
<path d="M131.301 88.3811C130.38 88.6141 129.438 88.7522 128.489 88.793C128.02 88.7785 127.438 88.5809 126.926 88.5809C126.745 85.2156 124.444 79.8058 122.408 76.537C120.181 72.9588 117.189 69.3477 113.433 67.3117C113.167 67.1669 112.868 67.5238 113.102 67.7366L113.144 67.7788C113.1 67.8063 113.063 67.8445 113.038 67.8899C113.013 67.9354 113 67.9864 113 68.0383C112.851 76.3785 115.691 84.6919 119.856 91.7533C120.277 92.4677 120.763 93.6898 121.535 94.0611C121.598 94.0918 121.667 94.1065 121.737 94.1041C121.807 94.1017 121.875 94.0823 121.935 94.0474C121.996 94.0126 122.047 93.9634 122.084 93.9043C122.121 93.8451 122.143 93.7778 122.148 93.7081C122.118 92.8965 121.377 92.1354 120.97 91.4539C117.088 84.9453 113.772 75.8547 113.641 68.2481C118.323 72.6954 121.758 76.1618 124.26 82.7546C125.012 84.7386 125.337 86.7914 125.944 88.8037C125.945 88.9059 125.974 89.0058 126.028 89.0925C126.082 89.1791 126.159 89.2491 126.25 89.2946C127.953 89.9745 130.462 90.3015 131.701 89.0549C132.005 88.7517 131.675 88.3198 131.301 88.3811Z" fill="#38A1FF"/>
<path d="M120.957 93.9333C118.229 95.3269 116.633 97.7618 110.6 98.1386C106.466 98.3951 102.15 98.0704 98.3252 96.3943C98.3252 96.3682 96.5748 93.5336 95.4921 87.7073C92.8542 73.5576 94.2164 69.1004 96.0403 60.31C96.0977 60.0359 95.6781 59.81 95.5541 60.0979C94.4064 62.9947 93.6593 66.0345 93.3335 69.1333C92.5179 75.3757 92.8734 81.7154 94.3818 87.8275C95.128 90.8883 96.1704 93.8693 97.4944 96.7281C101.165 99.477 106.601 99.5299 110.998 99.2267C113.013 99.0989 114.988 98.6035 116.826 97.7649C118.348 97.0605 120.654 95.9869 121.42 94.3889C121.457 94.3245 121.471 94.2497 121.461 94.1763C121.45 94.1029 121.416 94.0349 121.363 93.983C121.311 93.931 121.242 93.8979 121.169 93.889C121.095 93.88 121.02 93.8955 120.957 93.9333Z" fill="#38A1FF"/>
<path d="M76.0294 4.11039C75.9245 3.65096 75.292 3.79798 75.256 4.21682C75.0592 6.4864 75.5439 8.92903 75.8686 11.1756C76.2104 13.575 76.6792 15.9547 77.2729 18.3044C77.3816 18.7294 77.9996 18.5464 77.9276 18.1237C76.1174 7.47953 76.7438 7.22838 76.0294 4.11039Z" fill="#38A1FF"/>
<path d="M84.2334 17.1313C88.3568 12.5799 91.0651 10.2444 92.4143 8.55528C92.6532 8.25666 92.3446 7.70917 91.9656 7.97487C89.2381 9.88916 85.738 14.1006 83.715 16.7293C83.486 17.0294 83.983 17.4077 84.2334 17.1313Z" fill="#38A1FF"/>
<path d="M89.8041 17.5968C92.3394 16.4996 95.1642 15.5685 97.4429 13.9842C97.7729 13.7545 97.5838 13.1588 97.1519 13.2951C94.5041 14.1504 92.0316 15.8097 89.6234 17.1726C89.4037 17.3005 89.5522 17.7056 89.8041 17.5968Z" fill="#38A1FF"/>
<path d="M68.378 14.7346C67.1499 13.0291 65.7948 11.4189 64.3243 9.91748C64.2555 9.85591 64.1672 9.82044 64.0749 9.81725C63.9827 9.81407 63.8922 9.84337 63.8193 9.90004C63.7464 9.95672 63.6957 10.0372 63.676 10.1274C63.6564 10.2176 63.669 10.3119 63.7117 10.3938C64.8259 12.056 66.0654 13.6308 67.4193 15.1044C68.7547 16.7247 70.1307 18.2929 71.5052 19.8894C71.7601 20.1849 72.2961 19.7806 72.0534 19.4644C70.8382 17.8817 69.6337 16.2913 68.378 14.7346Z" fill="#38A1FF"/>
<path d="M66.1891 22.4668C63.9601 21.0794 61.4788 20.1465 58.888 19.7217C58.5465 19.6765 58.525 20.1895 58.8114 20.2929C61.2106 21.0611 63.5487 22.0081 65.8062 23.126C65.8928 23.166 65.9912 23.1723 66.0821 23.1436C66.173 23.1149 66.25 23.0532 66.2979 22.9708C66.3458 22.8883 66.3611 22.7909 66.341 22.6977C66.3209 22.6045 66.2667 22.5221 66.1891 22.4668Z" fill="#38A1FF"/>
<path d="M24.5639 145.598C23.459 145.369 22.6986 145.758 21.6634 144.942C20.1427 143.744 18.4719 139.731 17.4604 138.28C17.2919 138.039 16.8639 138.177 16.9588 138.493C17.3363 139.754 19.4926 145.385 22.1351 146.516C22.7891 146.679 23.4658 146.729 24.1366 146.665C24.5448 147.003 20.2606 148.286 19.4658 148.248C18.4199 148.131 17.3819 147.952 16.357 147.712C14.2206 145.981 12.3194 142.812 11.0131 140.398C11.3661 137.689 11.8791 137.146 11.3959 137.039C11.3451 137.028 11.2922 137.033 11.2442 137.053C11.1961 137.072 11.1551 137.106 11.1264 137.149C10.7726 137.675 10.0444 139.84 10.3147 140.246C10.7377 141.961 11.5015 143.574 12.5606 144.988C13.4029 146.117 14.9672 148.852 19.0837 149.293C21.0876 149.508 25.0808 148.168 25.4835 147.729C26.2462 146.897 25.531 145.797 24.5639 145.598Z" fill="#38A1FF"/>
<path d="M105.306 48.6343C106.162 48.4896 106.678 47.4965 106.123 47.3586C105.853 47.2912 105.808 47.5623 105.072 47.7859C104.773 47.8393 104.468 47.8473 104.166 47.8096C104.089 47.8106 104.015 47.8422 103.96 47.8976C103.906 47.9529 103.875 48.0275 103.875 48.1052C103.878 48.3977 104.491 48.8211 105.306 48.6343Z" fill="#191919"/>
<path d="M103.55 51.6367C103.374 51.9935 102.696 54.1551 102.478 54.858C102.389 55.1398 102.828 55.3343 102.962 55.0701C103.292 54.4185 104.28 52.4055 104.403 52.0379C106.6 52.7554 108.855 51.2929 109.087 49.6137C109.126 49.3204 108.76 48.9774 108.515 49.2798C107.74 50.2339 107.001 51.178 105.64 51.1604C105.019 51.1452 104.416 50.943 103.912 50.5802C103.407 50.2174 103.024 49.7108 102.812 49.1267C101.918 46.8923 102.443 44.2368 103.33 42.0921C103.406 41.8983 103.118 41.8118 103.014 41.9581C101.013 44.7567 100.63 49.8794 103.55 51.6367Z" fill="#191919"/>
<path d="M104.444 44.0286C104.597 43.8517 104.398 43.5432 104.18 43.6863C103.508 44.1266 102.572 44.8571 102.572 45.7645C102.572 46.459 103.547 47.1994 104.115 46.5654C104.159 46.5165 104.184 46.4529 104.184 46.387C104.184 46.3211 104.159 46.2576 104.115 46.2086C103.788 45.8418 103.251 45.9153 103.59 45.2898C103.828 44.8399 104.114 44.417 104.444 44.0286Z" fill="#191919"/>
<path d="M106.081 43.1097C106.014 43.0808 105.939 43.0774 105.87 43.1001C105.801 43.1228 105.743 43.1701 105.707 43.2329C105.564 43.4024 105.446 43.5921 105.358 43.7957C105.327 43.8838 105.331 43.9809 105.371 44.0657C105.41 44.1505 105.482 44.2162 105.57 44.2483C106.35 44.3861 106.368 43.236 106.081 43.1097Z" fill="#191919"/>
<path d="M106.801 43.8042C106.82 43.8623 106.854 43.914 106.901 43.9532C106.948 43.9923 107.004 44.0174 107.065 44.0254C107.125 44.0335 107.187 44.0241 107.242 43.9985C107.297 43.9729 107.344 43.9321 107.377 43.8808C107.485 43.6566 107.533 43.4084 107.517 43.1602C107.501 42.9119 107.422 42.6719 107.286 42.4635C107.194 42.2422 107.039 42.0527 106.84 41.9187C106.641 41.7846 106.408 41.7118 106.168 41.7092C106.109 41.7107 106.052 41.7332 106.008 41.7727C105.964 41.8121 105.935 41.866 105.928 41.9247C105.92 41.9833 105.933 42.0428 105.965 42.0926C105.997 42.1424 106.046 42.1791 106.102 42.1962C106.38 42.2774 106.57 42.7184 106.644 42.9696C106.719 43.2207 106.695 43.5362 106.801 43.8042Z" fill="#191919"/>
<path d="M108.514 41.0062C108.189 42.775 109.528 45.7666 111.693 45.6296C110.71 46.9843 110.018 48.5273 109.66 50.1618C109.113 51.8565 108.976 53.657 109.262 55.4146C109.332 55.7546 109.787 55.6267 109.82 55.3381C109.955 53.6218 110.255 51.9225 110.716 50.2637C111.048 49.1672 113.235 46.0331 114.059 43.4833C114.317 42.547 114.291 41.5551 113.983 40.6341C113.785 40.0221 113.373 39.5019 112.823 39.169C112.273 38.8361 111.621 38.7127 110.987 38.8216C110.696 37.6233 108.866 36.6301 107.109 37.3361C106.516 36.2971 105.052 36.0658 103.888 36.111C102.414 36.17 101.591 37.4387 101.551 38.8369C101.457 42.043 106.068 41.7313 108.514 41.0062Z" fill="#191919"/>
<path d="M83.2536 34.8293C81.4297 34.6333 81.4274 32.0199 81.3983 30.6577C81.3677 29.1875 81.7857 27.7686 81.7766 26.313C81.7745 26.2345 81.7471 26.1587 81.6985 26.097C81.65 26.0352 81.5828 25.9908 81.507 25.9702C81.4311 25.9497 81.3507 25.9541 81.2776 25.9829C81.2045 26.0117 81.1427 26.0633 81.1012 26.13C80.0874 28.006 79.4166 36.2711 83.3363 35.4365C83.7085 35.3576 83.5806 34.8645 83.2536 34.8293Z" fill="#191919"/>
<path d="M82.9375 30.4156C83.2438 28.6093 83.8916 26.8888 84.2124 25.1039C84.2309 25.0256 84.2211 24.9432 84.1847 24.8715C84.1484 24.7997 84.0877 24.7431 84.0136 24.7118C83.9395 24.6804 83.8567 24.6763 83.7799 24.7001C83.703 24.7239 83.6371 24.7742 83.5938 24.842C82.687 26.5279 82.2573 28.4293 82.351 30.3414C82.3479 30.6706 82.8801 30.7579 82.9375 30.4156Z" fill="#191919"/>
<path d="M85.8824 24.4171C84.5632 26.0586 83.8783 28.1198 83.9528 30.2243C83.9535 30.2993 83.9812 30.3716 84.0308 30.4278C84.0804 30.4841 84.1486 30.5206 84.223 30.5307C84.2973 30.5409 84.3728 30.5239 84.4356 30.483C84.4985 30.442 84.5445 30.3798 84.5653 30.3078C84.8647 29.3698 85.0814 28.408 85.4007 27.4746C85.72 26.5412 86.1358 25.6614 86.3847 24.7119C86.3985 24.6488 86.392 24.5829 86.3661 24.5237C86.3402 24.4645 86.2962 24.4149 86.2405 24.3822C86.1848 24.3495 86.1201 24.3353 86.0558 24.3415C85.9914 24.3478 85.9307 24.3743 85.8824 24.4171Z" fill="#191919"/>
<path d="M89.6537 25.097C89.8543 24.8068 89.4706 24.4998 89.1988 24.6422C87.2378 25.6705 86.103 28.1913 85.6765 30.248C85.6619 30.3156 85.6737 30.3862 85.7096 30.4454C85.7455 30.5045 85.8027 30.5476 85.8694 30.5659C85.9361 30.5841 86.0073 30.5761 86.0683 30.5435C86.1293 30.5108 86.1754 30.456 86.1972 30.3904C87.4216 27.2379 88.7111 26.4615 89.6537 25.097Z" fill="#191919"/>
<path d="M89.9711 29.0619C88.1418 29.6637 86.8087 31.9425 86.3952 33.7327C86.3763 33.8163 86.3912 33.904 86.4369 33.9765C86.4826 34.049 86.5552 34.1004 86.6387 34.1194C87.1104 34.2266 87.0438 33.5267 88.6296 31.516C89.237 30.8834 89.7967 30.2067 90.3042 29.4914C90.3312 29.4407 90.343 29.3833 90.3381 29.3261C90.3333 29.2688 90.3119 29.2142 90.2767 29.1688C90.2415 29.1234 90.194 29.0892 90.1397 29.0702C90.0855 29.0512 90.027 29.0483 89.9711 29.0619Z" fill="#191919"/>
<path d="M125.577 95.1293C125.457 95.5504 125.48 95.9995 125.642 96.4062C125.805 96.8129 126.098 97.154 126.475 97.3759C128.035 98.2749 130.401 98.0521 132.084 97.7113C133.698 97.3843 135.058 96.8483 135.058 94.9854C134.907 92.9752 134.033 91.0878 132.597 89.6728C132.512 89.5924 132.401 89.5451 132.284 89.5393C132.166 89.5335 132.051 89.5697 131.958 89.6414C131.865 89.7131 131.801 89.8155 131.777 89.9303C131.753 90.0451 131.77 90.1648 131.826 90.2678C132.444 91.4707 133.378 92.4317 133.766 93.7679C133.925 94.3138 134.157 95.3039 133.802 95.8476C133.447 96.3912 132.386 96.5367 131.794 96.6577C130.457 96.9434 129.075 96.9483 127.736 96.6722C125.73 96.2442 126.845 94.5282 126.792 93.1599C126.791 93.094 126.766 93.0308 126.722 92.9816C126.678 92.9324 126.618 92.9004 126.553 92.8912C126.487 92.882 126.421 92.8963 126.365 92.9315C126.309 92.9666 126.268 93.0204 126.248 93.0833C126.138 93.3467 126.018 93.64 125.902 93.9463C124.677 94.114 125.213 92.7211 125.409 92.1928C125.635 91.5761 125.927 90.9856 126.28 90.4317C126.446 90.1744 126.091 89.95 125.883 90.1254C124.883 90.9608 123.815 92.3781 124.007 93.774C124.107 94.5114 124.9 95.2656 125.577 95.1293Z" fill="#191919"/>
<path d="M142.653 135.266C142.615 135.208 135.123 125.628 132.316 120.605C126.031 109.339 123.196 99.7006 121.332 95.6331C121.224 95.3973 120.888 95.5734 120.933 95.8008C121.771 100.053 125.041 108.1 126.812 112.071C130.016 119.249 135.907 130.204 141.58 135.042C140.722 136.062 139.582 136.805 138.304 137.178C136.068 135 126.901 129.037 115.884 111.61C113.821 108.346 112.056 104.972 110.084 101.693C109.956 101.481 109.568 101.62 109.659 101.868C111.746 107.554 115.381 113.072 118.913 118.109C118.8 118.422 118.275 120.736 118.275 120.736C115.143 120.676 112.02 120.364 108.938 119.803C105.849 119.209 102.836 118.27 99.955 117.005C96.5545 115.592 96.3217 114.673 96.4802 108.539C96.6285 105.021 97.1131 101.524 97.9274 98.098C97.9382 98.0591 97.9412 98.0184 97.9362 97.9783C97.9313 97.9383 97.9185 97.8995 97.8986 97.8644C97.8787 97.8293 97.852 97.7984 97.8202 97.7736C97.7884 97.7488 97.7519 97.7305 97.713 97.7197C97.6741 97.7089 97.6335 97.7059 97.5934 97.7109C97.5533 97.7159 97.5146 97.7286 97.4795 97.7486C97.4444 97.7685 97.4135 97.7951 97.3887 97.8269C97.3638 97.8588 97.3455 97.8952 97.3348 97.9341C96.0817 101.605 95.4197 105.451 95.3738 109.329C95.311 113.748 95.3056 116.068 98.4144 117.536C104.075 120.207 112.427 122.271 118.49 121.471C119.082 124.586 119.3 127.761 119.138 130.929C119.142 131.031 119.175 131.13 119.234 131.213C119.293 131.297 119.374 131.362 119.469 131.402C119.563 131.441 119.667 131.452 119.767 131.434C119.868 131.416 119.962 131.369 120.037 131.3C121.941 129.199 123.03 126.486 123.105 123.651C129.024 130.985 135.759 136.802 137.751 137.994C137.751 138.006 137.284 143.235 134.163 144.232C133.879 144.288 133.61 144.401 133.372 144.565C133.134 144.728 132.931 144.938 132.777 145.182C132.071 146.569 140.152 146.291 140.178 146.278C140.997 145.869 143.681 136.793 142.653 135.266Z" fill="#191919"/>
<path d="M107.477 100.521C107.003 103.938 106.199 107.302 105.076 110.565C105.041 110.704 105.061 110.852 105.132 110.977C105.204 111.103 105.321 111.195 105.459 111.236C108.759 112.245 111.832 113.902 115.107 114.927C115.427 115.027 115.559 114.595 115.319 114.419C113.221 112.88 108.558 111.05 106.278 110.343C107.221 107.169 107.797 103.898 107.995 100.593C108.013 100.297 107.517 100.221 107.477 100.521Z" fill="#191919"/>
<path d="M76.0926 25.7602C76.0389 25.7096 75.9704 25.6778 75.8972 25.6694C75.8239 25.6609 75.75 25.6764 75.6862 25.7133C75.6224 25.7503 75.5723 25.8069 75.5433 25.8747C75.5143 25.9424 75.508 26.0178 75.5252 26.0894C75.8698 27.4601 76.8453 28.6347 76.7136 31.2335C76.6279 32.9888 76.0377 34.6821 75.0137 36.1103C74.7901 36.4166 75.2955 36.811 75.5428 36.5185C76.8253 35.102 77.6146 33.3083 77.7925 31.4058C77.9372 29.5696 77.5367 27.0558 76.0926 25.7602Z" fill="#191919"/>
<path d="M74.8868 30.2243C74.8996 30.2995 74.9386 30.3677 74.9969 30.4169C75.0552 30.4661 75.1291 30.4931 75.2054 30.4931C75.2816 30.4931 75.3555 30.4661 75.4138 30.4169C75.4721 30.3677 75.5111 30.2995 75.5239 30.2243C75.6181 28.1867 75.2452 25.4692 73.6096 24.0113C73.5598 23.9647 73.4962 23.9355 73.4284 23.9279C73.3607 23.9203 73.2922 23.9348 73.2333 23.9692C73.1744 24.0036 73.1282 24.056 73.1015 24.1188C73.0748 24.1816 73.069 24.2513 73.0851 24.3176C73.5261 25.79 74.6058 26.993 74.8868 30.2243Z" fill="#191919"/>
<path d="M73.1058 29.6661C73.1517 30.091 73.8049 30.1201 73.8003 29.6661C73.7789 27.6193 73.2245 24.5174 71.2949 23.3872C71.2385 23.3558 71.1741 23.3416 71.1097 23.3464C71.0453 23.3511 70.9838 23.3746 70.9325 23.4139C70.8813 23.4532 70.8428 23.5066 70.8216 23.5676C70.8004 23.6286 70.7975 23.6944 70.8132 23.757C71.3347 25.1484 72.7367 26.2686 73.1058 29.6661Z" fill="#191919"/>
<path d="M70.5584 27.1751C71.6434 30.3467 70.9474 31.2793 71.5485 31.2778C71.6222 31.2778 71.6929 31.2485 71.745 31.1964C71.7971 31.1443 71.8264 31.0736 71.8264 30.9998C71.9829 29.6276 71.8608 28.2379 71.4673 26.914C71.1782 25.6308 70.5373 24.4535 69.6166 23.5142C69.3539 23.2991 68.7934 23.4928 68.9558 23.8971C69.4136 25.0388 70.1549 25.9982 70.5584 27.1751Z" fill="#191919"/>
<path d="M70.3051 34.7083C70.3549 34.9664 70.7691 34.9059 70.7645 34.6463C70.7124 32.634 70.1045 30.137 68.2468 29.0344C68.178 28.996 68.0986 28.9812 68.0206 28.9922C67.9426 29.0031 67.8703 29.0393 67.8147 29.0951C67.7592 29.1509 67.7234 29.2234 67.7128 29.3014C67.7022 29.3795 67.7174 29.4589 67.756 29.5275C68.39 30.6439 69.7744 31.938 70.3051 34.7083Z" fill="#191919"/>
<path d="M74.674 37.1517C74.3116 38.0413 74.0887 38.9814 74.0131 39.9389C73.3392 43.043 72.1797 46.0212 70.5774 48.7638C68.4855 52.5158 61.8651 58.3513 61.8651 58.3513C61.8651 58.3513 60.4868 55.718 60.2801 50.6375C64.7124 48.1722 68.1854 44.2862 70.1394 39.6059C70.7398 38.3796 71.1281 37.0605 71.288 35.7045C71.3094 35.2497 70.5774 35.0116 70.3867 35.4603C69.7313 37.004 68.6256 43.3693 62.0917 48.1819C58.4123 50.8353 54.0377 52.3558 49.5057 52.5564C49.5631 52.0617 49.5057 51.561 49.5509 51.0694C49.596 50.5778 49.704 50.0303 49.7844 49.5096C53.7952 48.6903 54.2937 41.6228 51.3863 38.6556C51.0999 38.3623 50.6872 38.7322 50.8503 39.0706C51.8136 41.109 52.5731 43.024 52.162 45.3319C52.0516 46.4929 51.4935 47.5654 50.606 48.322C50.0643 48.6582 49.424 48.7993 48.7911 48.722C48.1583 48.6447 47.5708 48.3537 47.1259 47.897C46.9337 47.7171 46.5837 47.9544 46.743 48.1903C47.0021 48.6132 47.3649 48.9629 47.7971 49.2061C48.2293 49.4493 48.7165 49.5781 49.2124 49.5801C48.8343 50.5373 48.76 51.5876 48.9996 52.5885C48.1451 52.6154 47.2899 52.5878 46.439 52.5058C46.0148 52.4614 41.4182 52.8244 39.3447 54.133C38.2819 54.0036 35.2052 55.2379 34.3468 55.6644C31.7344 56.9588 29.3452 58.6617 27.2694 60.7089C26.8421 61.1324 26.1361 61.6699 26.1751 62.3476C26.3116 62.945 26.6692 63.4686 27.1759 63.8132C24.9952 65.7405 23.3527 68.7474 23.8374 71.6456C24.4178 75.1151 27.5021 78.1251 30.5244 79.7033C30.6 79.7447 30.6879 79.7577 30.7722 79.74C30.8566 79.7223 30.9318 79.675 30.9844 79.6068C31.037 79.5385 31.0634 79.4537 31.059 79.3676C31.0545 79.2815 31.0194 79.1999 30.9601 79.1374C28.7441 76.7981 25.8191 75.2376 25.0105 71.8577C24.2655 68.7467 26.215 66.6693 27.813 64.3537C28.6135 65.1915 29.5002 65.9422 30.4585 66.5935C30.5256 66.6298 30.6026 66.6435 30.678 66.6325C30.7535 66.6214 30.8233 66.5863 30.8771 66.5322C30.9309 66.4782 30.9657 66.4081 30.9764 66.3326C30.9871 66.2571 30.973 66.1802 30.9364 66.1134C30.5175 65.3721 27.3429 62.3774 27.4179 62.065C27.5404 61.5528 30.444 59.212 31.1515 58.6959C33.2621 57.1605 35.5832 55.9376 38.0429 55.0649C36.1254 56.5801 34.6019 58.5357 33.6018 60.7656C32.3644 63.5543 32.1148 66.6356 32.0198 69.6533C31.4792 86.8053 29.7725 85.4989 28.4417 89.7372C28.4179 89.7938 26.9546 95.9119 26.7418 96.8017C23.6177 107.363 21.6115 114.199 16.5769 125.313C13.9658 131.076 12.6427 133.243 11.4642 135.963C11.2797 136.388 12.0531 137.513 14.2583 138.145C14.8962 138.328 16.8909 138.145 17.4628 137.427C18.0348 136.708 20.7753 133.082 22.3389 130.942C24.2532 128.326 34.9319 111.98 37.6379 106.043C39.0162 103.021 40.8815 96.5635 41.2498 96.343C41.3899 96.2595 41.5691 96.4196 41.6181 96.5727C41.6671 96.7259 40.8876 100.057 40.5384 101.562C40.3248 102.481 40.0223 104.537 40.3255 104.937C41.011 105.745 41.7509 106.506 42.54 107.214C40.894 107.813 39.3052 108.559 37.7926 109.443C35.9793 110.761 34.523 113.348 33.392 115.246C32.9915 115.918 31.0995 119.611 30.7832 120.346C30.7359 120.428 30.7084 120.521 30.703 120.616C30.6977 120.711 30.7145 120.806 30.7523 120.893C30.79 120.981 30.8476 121.058 30.9205 121.12C30.9934 121.181 31.0796 121.224 31.1722 121.246C34.0911 121.088 37.0896 120.111 39.8669 119.255C42.9151 118.327 45.8907 117.175 48.7698 115.81C51.2615 114.619 54.0288 113.202 55.7118 110.938C57.9002 107.99 51.1995 89.6644 48.7231 89.2257C48.5103 89.1882 45.5156 92.6446 33.5689 90.8237C32.1906 90.6132 31.0933 89.7165 29.7671 89.326C31.6814 86.6207 32.0933 83.0831 32.4762 79.9023C33.6248 70.3723 31.9402 63.3292 36.7198 57.8398C39.1383 55.0899 42.5181 53.3705 46.1649 53.035C46.2453 53.035 49.9536 55.0618 59.6514 50.9859C59.561 52.5933 59.6766 54.2057 59.9952 55.7839C60.1736 56.6583 61.1346 59.8682 61.6338 60.4119C58.28 63.2082 56.1391 63.8576 54.1007 64.9992C54.0195 65.0874 53.9612 65.1942 53.9308 65.3101C53.466 68.1356 49.3548 85.1659 49.0019 86.9255C48.9783 87.0499 49.0024 87.1786 49.0695 87.286C49.1365 87.3934 49.2415 87.4716 49.3636 87.5051C49.4857 87.5386 49.6159 87.5249 49.7284 87.4667C49.8408 87.4086 49.9273 87.3102 49.9705 87.1912C50.6359 85.414 54.5495 67.2351 54.4323 65.5582C57.5266 65.0222 60.3857 62.8568 62.4432 60.6094C62.5963 60.4402 62.2816 59.4003 62.0986 58.9631C62.1752 59.0221 69.1325 53.2379 71.4143 49.4683C72.5401 47.6067 73.4612 45.6288 74.1617 43.5692C74.5132 42.5385 75.638 38.2475 75.3554 37.2712C75.3362 37.2013 75.2975 37.1384 75.2438 37.0897C75.1902 37.041 75.1239 37.0084 75.0525 36.9959C74.9811 36.9834 74.9076 36.9914 74.8406 37.019C74.7736 37.0466 74.7158 37.0926 74.674 37.1517Z" fill="#191919"/>
<path d="M50.2508 44.5438C50.7026 44.87 51.9247 45.393 52.0763 44.4673C52.1429 44.0607 51.2378 42.2835 50.9461 41.8447C50.8113 41.6433 50.4231 41.7681 50.5211 42.0216C50.7286 42.5576 51.2202 44.1013 51.2102 44.1166C51.2003 44.1319 50.7669 43.929 50.5372 43.8578C50.1069 43.7222 49.9246 44.3088 50.2508 44.5438Z" fill="#191919"/>
<path d="M48.6229 42.7819C48.7336 42.4366 48.7336 42.0652 48.6229 41.7199C48.5997 41.6453 48.5533 41.58 48.4904 41.5337C48.4275 41.4874 48.3515 41.4624 48.2734 41.4624C48.1952 41.4624 48.1192 41.4874 48.0563 41.5337C47.9934 41.58 47.947 41.6453 47.9238 41.7199C47.8132 42.0652 47.8132 42.4366 47.9238 42.7819C47.9597 42.8427 48.0108 42.8931 48.0721 42.9281C48.1334 42.9632 48.2028 42.9816 48.2734 42.9816C48.3439 42.9816 48.4133 42.9632 48.4746 42.9281C48.5359 42.8931 48.587 42.8427 48.6229 42.7819Z" fill="#191919"/>
<path d="M47.38 41.2949C47.893 40.3845 48.5683 40.3921 48.9313 40.0284C48.9663 39.9924 48.9914 39.9479 49.0042 39.8993C49.0169 39.8507 49.0168 39.7996 49.0039 39.751C48.9911 39.7024 48.9658 39.658 48.9307 39.6221C48.8955 39.5862 48.8517 39.56 48.8034 39.546C47.9052 39.3615 47.1816 40.3929 46.9044 41.0974C46.8018 41.3577 47.2444 41.5369 47.38 41.2949Z" fill="#191919"/>
<path d="M47.0972 44.9069C47.5995 46.7591 49.4564 47.6198 50.3462 47.0003C50.403 46.9641 50.4484 46.9123 50.4769 46.8512C50.5055 46.7901 50.516 46.7221 50.5074 46.6552C50.4987 46.5883 50.4712 46.5252 50.428 46.4734C50.3848 46.4216 50.3277 46.3831 50.2635 46.3625C49.7026 46.3297 49.1554 46.1761 48.6593 45.9123C48.2234 45.5424 47.8234 45.1322 47.4648 44.6871C47.4356 44.6384 47.3883 44.6032 47.3333 44.5894C47.2782 44.5755 47.2199 44.5841 47.1711 44.6132C47.1224 44.6424 47.0872 44.6897 47.0734 44.7448C47.0595 44.7998 47.0681 44.8581 47.0972 44.9069Z" fill="#191919"/>
</svg>
