<svg width="154" height="154" viewBox="0 0 154 154" fill="none" xmlns="http://www.w3.org/2000/svg">
<path d="M131.317 104.212C130.376 103.796 129.222 103.941 128.275 103.739C127.658 103.59 127.048 103.409 126.449 103.198C126.247 103.131 125.368 102.928 125.368 102.657C125.311 102.112 125.22 101.57 125.097 101.035C125.552 100.783 125.927 100.408 126.179 99.9522C126.468 99.3101 126.651 98.6253 126.72 97.9246C127.231 94.9963 127.548 92.0372 127.667 89.067C128.038 83.2554 127.971 77.4241 127.464 71.6228C127.193 68.2422 126.92 64.9183 126.315 61.5485C126.254 61.2093 125.639 61.2782 125.639 61.6159C126.392 70.7652 127.999 81.7431 125.977 95.8963C125.512 98.6865 125.507 99.4767 124.693 100.02C124.086 100.409 123.425 100.705 122.732 100.899C122.187 101.105 121.619 101.242 121.041 101.305C121.041 89.531 122.419 84.7232 121.654 79.7362C120.971 75.6412 118.305 70.874 114.757 69.73C114.149 69.5271 113.879 70.4735 114.487 70.6764C115.456 71.0446 116.333 71.6216 117.055 72.3663C117.021 74.6546 116.818 76.9372 116.448 79.1956C115.323 85.567 113.668 89.665 110.092 95.6252C109.755 96.2378 108.944 97.5862 108.876 97.6535C107.762 97.2039 106.678 96.6845 105.63 96.0984C105.753 95.8189 110.444 86.1206 111.444 80.6152C112.425 75.2936 110.992 71.3824 110.296 68.0393C110.013 66.3875 109.9 64.7111 109.958 63.0362C109.947 62.6069 109.97 62.1773 110.026 61.7514C110.026 61.6259 109.976 61.5055 109.887 61.4168C109.798 61.3281 109.678 61.2782 109.552 61.2782C109.427 61.2782 109.307 61.3281 109.218 61.4168C109.129 61.5055 109.079 61.6259 109.079 61.7514C108.998 63.4416 109.021 65.1352 109.147 66.8226C109.586 71.1105 111.274 73.655 110.567 79.6688C110.093 83.3372 106.892 90.9544 105.36 94.273C105.157 94.6788 104.212 96.1666 104.684 96.5701C104.874 96.7442 105.077 96.9027 105.293 97.044C105.107 97.3857 104.879 97.7035 104.617 97.9904C104.481 97.9231 104.345 97.8519 104.211 97.9231C103.62 98.3098 103.075 98.7635 102.588 99.2753C101.972 99.727 101.521 100.368 101.304 101.101C101.281 101.858 101.468 102.606 101.844 103.264C102.014 103.998 102.014 104.761 101.844 105.495C101.797 105.879 101.82 106.268 101.912 106.644C102.056 107.029 102.288 107.377 102.588 107.658C103.798 109.02 105.323 109.279 106.51 107.861C108.098 105.964 106.823 102.629 107.794 100.491C107.862 100.288 107.727 100.154 107.727 99.9499C107.727 99.7462 108.808 98.7332 108.808 98.7332C108.982 98.8005 109.175 98.8005 109.349 98.7332C109.485 98.6658 110.905 96.3672 111.31 95.6903C113.882 91.5069 115.776 86.9431 116.922 82.168C117.63 79.2699 117.971 76.2943 117.936 73.3112C119.281 75.1451 120.226 77.2412 120.709 79.4636C121.671 84.6879 120.167 88.9583 120.167 101.911C120.177 102.051 120.237 102.184 120.336 102.283C120.436 102.383 120.568 102.443 120.709 102.452C120.912 102.452 121.182 102.384 121.385 102.384C121.182 102.452 121.52 103.737 121.385 103.804C120.843 104.142 120.565 104.881 120.236 105.36C118.879 107.324 120.052 109.2 122.873 108.943C125.049 108.79 125.794 107.892 126.794 107.726C127.847 107.375 129.592 108.066 130.919 107.658C131.294 107.594 131.643 107.427 131.93 107.177C132.216 106.926 132.428 106.602 132.542 106.239C132.582 105.814 132.484 105.388 132.264 105.023C132.043 104.658 131.712 104.374 131.317 104.212ZM105.219 107.931C104.893 107.967 104.563 107.924 104.257 107.807C103.95 107.689 103.676 107.5 103.458 107.255C102.444 106.173 103.281 104.881 103.052 103.604C102.931 102.925 102.512 102.386 102.376 101.71C102.173 100.291 103.796 100.426 104.54 100.967C105.689 101.71 105.013 103.739 105.351 104.82C105.556 105.634 106.575 107.612 105.219 107.932L105.219 107.931ZM107.315 99.4797C107.18 99.3442 105.693 98.3978 105.49 98.2623C105.625 98.0594 106.03 97.5862 106.098 97.4506C106.369 97.5862 108.194 98.4652 108.261 98.4652C107.99 98.737 107.382 99.4131 107.314 99.4813L107.315 99.4797ZM124.35 102.726C123.624 103.084 122.879 103.4 122.118 103.673V102.186C122.881 101.999 123.627 101.75 124.35 101.441V102.726Z" fill="#191919"/>
<path d="M101.905 46.2015C101.973 45.9994 102.04 45.8639 102.108 45.6609C101.899 45.481 101.673 45.3224 101.432 45.1877C98.3564 52.8777 97.6474 62.926 98.3894 66.0799C96.812 67.3417 95.5739 70.55 95.8878 72.4352C95.8295 72.9123 95.9501 73.394 96.2263 73.7874C96.2656 73.8278 96.3149 73.8572 96.3692 73.8726C96.4235 73.888 96.4808 73.8888 96.5355 73.8751C96.5903 73.8614 96.6404 73.8336 96.681 73.7944C96.7216 73.7552 96.7512 73.7061 96.7669 73.6519C96.8455 73.2242 96.8224 72.7841 96.6995 72.367C96.6116 71.2793 96.7974 70.1869 97.2401 69.1894C97.6919 68.2272 98.2855 67.3383 99.0012 66.5523C99.0692 66.5421 99.1344 66.5177 99.1925 66.4809C99.2506 66.444 99.3004 66.3953 99.3386 66.3381C99.3768 66.2809 99.4026 66.2163 99.4144 66.1484C99.4262 66.0806 99.4236 66.0111 99.407 65.9443C99.2869 65.7382 99.2173 65.5065 99.2041 65.2682C99.0914 64.462 99.0461 63.6478 99.0685 62.8341C99.1162 57.1736 100.074 51.5577 101.905 46.2015Z" fill="#191919"/>
<path d="M106.165 53.8424C104.027 56.3815 102.406 59.9282 101.161 63.0377C100.82 63.9165 100.549 64.8208 100.351 65.7422C100.333 65.7954 100.326 65.8517 100.33 65.9076C100.334 65.9636 100.349 66.0183 100.374 66.0685C100.399 66.1187 100.434 66.1634 100.476 66.2002C100.518 66.237 100.568 66.265 100.621 66.2828C100.863 66.5476 101.069 66.8431 101.233 67.1618C101.416 67.5203 101.531 67.9098 101.571 68.3103C101.685 69.2354 101.64 70.1733 101.436 71.0829C101.36 71.6901 102.18 71.8938 102.315 71.3532C102.696 70.2446 102.766 69.0532 102.518 67.9076C102.325 67.0663 101.903 66.2944 101.301 65.6763C102.614 62.0661 103.474 59.0622 106.778 54.3179C107.053 53.9152 106.433 53.504 106.165 53.8424Z" fill="#191919"/>
<path d="M133.078 14.6945C132.677 16.6533 131.994 18.5435 131.05 20.3063C129.181 23.7053 126.422 24.8852 123.14 26.5269C123.359 26.7942 123.541 27.0898 123.68 27.4059C124.559 26.9319 125.441 26.4595 126.385 26.0537C128.544 25.0217 130.371 23.4055 131.659 21.3883C132.772 19.4292 133.57 17.3073 134.025 15.1003C134.157 14.2887 133.223 14.0215 133.078 14.6945Z" fill="#191919"/>
<path d="M138.416 7.12104C138.349 6.85075 138.231 6.14018 137.74 6.37755C137.412 6.53605 137.402 6.98551 137.199 7.32395C136.899 7.84034 136.536 8.31724 136.118 8.74356C136.129 8.47148 136.106 8.19907 136.049 7.93268C135.884 6.53361 135.398 5.19153 134.63 4.01077C134.427 3.60495 133.886 3.94339 134.021 4.34921C134.591 5.47019 134.958 6.68354 135.103 7.93268C135.078 8.47711 135.123 9.0225 135.239 9.5552C135.036 9.75811 134.833 10.0284 134.626 10.2313C134.238 10.6538 133.96 11.1645 133.814 11.7191C133.747 12.0567 134.288 12.2597 134.356 11.8538C134.792 10.6907 136.696 9.05597 137.399 7.93268C137.545 9.59172 137.089 11.248 136.114 12.5981C135.978 12.8684 135.775 13.0713 135.641 13.3416C135.505 13.409 135.37 13.5445 135.438 13.6793C135.874 17.8975 135.759 21.0721 134.356 24.971C133.077 28.3269 131.094 31.3701 128.541 33.896L129.154 34.504C134.902 29.0752 137.834 21.5637 136.388 13.6119C136.559 13.3964 136.717 13.1706 136.861 12.9358C137.122 12.6226 137.349 12.2825 137.537 11.9212C138.358 10.4642 138.668 8.77437 138.416 7.12104Z" fill="#191919"/>
<path d="M134.089 8.74426C133.966 8.01811 133.689 7.32661 133.278 6.71592C132.777 5.89006 132.163 5.13891 131.452 4.48467C131.394 4.42747 131.317 4.39308 131.235 4.3877C131.154 4.38233 131.073 4.40633 131.008 4.45537C130.942 4.50441 130.896 4.57524 130.879 4.65505C130.861 4.73486 130.872 4.81838 130.911 4.89049C132.072 5.97753 132.874 7.39348 133.208 8.9487C133.257 9.2313 133.348 9.50493 133.478 9.76034C133.681 10.0306 134.079 10.0291 134.154 9.69296C134.199 9.37564 134.177 9.05253 134.089 8.74426Z" fill="#191919"/>
<path d="M98.9982 75.1404C98.6246 74.338 98.4618 73.4536 98.525 72.5707C98.5371 71.548 98.6502 70.529 98.8627 69.5286C98.8732 69.4881 98.8755 69.4459 98.8694 69.4045C98.8633 69.3631 98.8489 69.3233 98.8271 69.2876C98.8052 69.2519 98.7765 69.2209 98.7424 69.1966C98.7084 69.1722 98.6698 69.155 98.6289 69.1459C98.5881 69.1368 98.5458 69.136 98.5046 69.1436C98.4635 69.1512 98.4243 69.167 98.3893 69.19C98.3544 69.2131 98.3245 69.243 98.3014 69.2779C98.2782 69.3127 98.2624 69.3519 98.2547 69.3931C97.9052 70.4631 97.7226 71.5806 97.7134 72.7063C97.7134 73.5853 97.7134 74.802 98.3895 75.4781C98.5924 75.681 99.1338 75.4781 98.9982 75.1404Z" fill="#191919"/>
<path d="M101.094 73.9229C100.749 73.3816 100.498 72.7863 100.35 72.1618C100.26 71.4217 100.237 70.6748 100.282 69.9306C100.277 69.858 100.247 69.7894 100.196 69.7369C100.146 69.6844 100.078 69.6513 100.006 69.6432C99.9338 69.6352 99.8609 69.6529 99.8002 69.693C99.7396 69.7332 99.6949 69.7934 99.674 69.8632C99.4949 70.6854 99.4499 71.5312 99.5408 72.3678C99.5913 72.7451 99.7057 73.1109 99.8793 73.4497C100.065 73.9145 100.499 74.5608 100.961 74.3287C101.028 74.2884 101.079 74.2252 101.103 74.1506C101.128 74.076 101.124 73.9952 101.094 73.9229Z" fill="#191919"/>
<path d="M132.94 13.3423C132.088 12.4901 132.73 11.2925 132.332 9.96173C131.885 8.74177 131.085 7.68244 130.034 6.91883C129.724 6.65007 129.062 7.30168 129.493 7.59495C130.045 7.91603 130.528 8.3449 130.911 8.85606C131.294 9.36723 131.571 9.95025 131.724 10.5705C131.792 11.2458 131.657 11.8545 131.724 12.5306C131.753 12.8099 131.855 13.0765 132.022 13.3025C132.188 13.5285 132.412 13.7056 132.671 13.8155C132.73 13.8291 132.793 13.8232 132.849 13.7986C132.905 13.774 132.951 13.732 132.981 13.6789C133.011 13.6258 133.024 13.5643 133.016 13.5037C133.009 13.4431 132.982 13.3865 132.94 13.3423Z" fill="#191919"/>
<path d="M76.2798 53.5714L75.6037 48.775L70.9383 46.8141L64.0424 51.6824L63.9068 51.5469C62.8436 50.2015 61.5909 49.0175 60.1878 48.0316L54.8471 49.7176C54.8471 49.7176 53.6985 57.2904 53.6985 57.3578L50.9956 61.8884L54.7146 68.1082L59.9888 66.8241L58.7713 62.5645L63.2338 69.7989L64.1128 69.6633L66.4796 72.8418L75.8778 68.514L75.2652 63.5783L79.1864 62.4964C79.1864 62.4964 80.2683 55.8708 80.5386 55.6679C80.8104 55.3976 76.2798 53.5714 76.2798 53.5714ZM73.7109 54.9918C73.5072 55.0591 67.6258 59.7246 67.6258 59.7246L62.9604 58.3049L67.22 57.6288C67.22 57.6288 73.7782 54.9236 73.7109 54.9918Z" fill="#38A1FF"/>
<path d="M123.406 41.8073C126.081 39.3999 129.958 38.0553 131.523 37.2774L123.677 25.651C116.374 28.2881 112.844 30.7046 109.613 33.2912C108.187 34.4328 105.895 34.1702 105.895 34.1702C103.287 37.885 101.343 42.0232 100.147 46.4015L106.368 50.0531L108.193 64.4574C108.193 64.4574 120.904 62.0218 127.193 61.8885L125.096 41.6044C124.691 41.8747 124.285 42.0776 123.948 42.3479C123.542 42.6189 123.136 42.0776 123.406 41.8073Z" fill="#38A1FF"/>
<path d="M117.389 19.2957C117.421 18.5568 117.196 17.8296 116.752 17.2379C116.308 16.6462 115.673 16.2267 114.955 16.0506C114.267 15.9343 113.56 15.9908 112.899 16.215C112.238 16.4393 111.644 16.8243 111.168 17.3355C110.757 17.8244 110.305 18.2769 109.816 18.6877C106.978 21.0055 105.975 20.4488 105.222 21.8654C104.628 22.9851 104.46 24.2821 104.749 25.5162C104.951 26.7337 105.628 27.8133 105.965 28.9619C106.84 31.8754 106.507 31.8049 106.777 33.1533C106.802 33.2413 106.856 33.3186 106.929 33.3737C107.002 33.4287 107.091 33.4585 107.182 33.4585C107.274 33.4585 107.363 33.4287 107.436 33.3737C107.509 33.3186 107.563 33.2413 107.588 33.1533C107.667 32.5228 107.644 31.8838 107.521 31.2605C107.402 30.531 107.243 29.8086 107.045 29.0966C107.518 29.1078 107.977 28.9386 108.33 28.6234C108.618 28.4166 108.862 28.1543 109.048 27.8519C109.234 27.5495 109.357 27.2131 109.411 26.8623C109.411 26.2176 108.811 26.2375 108.532 26.0515C108.412 25.9793 108.317 25.8732 108.258 25.7466C108.199 25.62 108.179 25.4787 108.201 25.3408C108.223 25.2029 108.285 25.0746 108.381 24.9723C108.476 24.87 108.599 24.7984 108.735 24.7666C108.86 24.769 108.981 24.8169 109.073 24.9014C109.208 24.9695 109.411 25.1043 109.547 25.1724C109.648 25.2141 109.758 25.2348 109.868 25.2334C109.978 25.2321 110.087 25.2087 110.188 25.1645C110.288 25.1204 110.379 25.0565 110.455 24.9766C110.531 24.8966 110.59 24.8023 110.628 24.6992C110.628 24.6311 110.696 24.5637 110.696 24.4963C110.751 24.3685 110.774 24.2292 110.763 24.0905C110.8 23.5712 110.778 23.0494 110.696 22.5354C111.447 22.725 112.219 22.8159 112.993 22.8057C113.057 22.8822 114.481 24.6877 114.954 25.2398C114.684 25.2398 114.413 25.3072 114.075 25.3072C114.002 25.3104 113.93 25.3295 113.865 25.3632C113.8 25.3969 113.743 25.4443 113.698 25.5022C113.653 25.5601 113.621 25.6271 113.604 25.6985C113.588 25.77 113.587 25.8441 113.602 25.9159C113.921 26.7559 114.192 27.6136 114.413 28.4848C114.345 28.6204 114.075 28.6878 114.008 28.7559C112.901 29.1346 111.721 29.2502 110.562 29.0936C110.089 29.0262 109.954 29.8378 110.427 29.9052C111.841 30.1549 113.297 29.9905 114.619 29.432C114.898 29.3306 115.136 29.1404 115.295 28.8907C115.498 28.553 115.363 28.2146 115.295 27.8087C115.16 27.2682 114.957 26.7276 114.754 26.1188C115.16 26.1188 115.498 26.0515 115.903 26.0515C115.995 26.0485 116.085 26.0189 116.161 25.9662C116.238 25.9136 116.297 25.8401 116.333 25.7545C116.369 25.6689 116.379 25.5749 116.363 25.4837C116.346 25.3924 116.304 25.3077 116.241 25.2398C116.001 24.9458 114.262 22.837 114.145 22.6027C114.347 22.5354 114.483 22.5354 114.686 22.468C115.398 22.2631 116.034 21.853 116.515 21.2888C116.996 20.7247 117.3 20.0315 117.389 19.2957Z" fill="#191919"/>
<path d="M72.832 72.0302C73.3733 71.6917 73.8465 71.3541 74.3871 71.0156C75.0666 70.6415 75.6826 70.1624 76.2125 69.596C76.6184 68.9834 76.2761 67.9742 76.1452 67.2989C75.9354 66.2185 75.7393 65.135 75.5364 64.0531C76.0808 64.0757 76.6258 64.0304 77.159 63.9183C77.679 63.8779 78.1823 63.7161 78.6286 63.4461C79.0748 63.176 79.4516 62.8051 79.7286 62.3632C80.1269 61.3952 80.3557 60.3659 80.4048 59.3203C80.6838 58.2393 80.7977 57.1222 80.7424 56.0071C80.6276 55.0316 79.5686 54.9221 77.9032 54.1817C77.7003 54.1143 76.8887 53.5691 76.6184 53.6411C76.6261 52.6674 76.5582 51.6946 76.4155 50.7314C76.2317 49.5829 76.1544 48.6166 75.0632 48.0944C73.4553 47.3233 71.8856 46.6066 70.2631 45.9305C68.7944 45.1962 68.3565 45.3999 67.6934 45.9305C66.8817 46.4719 66.0709 47.148 65.3274 47.7559C64.4971 48.3059 63.7656 48.9918 63.1635 49.785C62.9063 49.4379 62.6115 49.1202 62.2845 48.8379C59.3924 45.7054 58.6857 46.1579 56.74 46.8095C55.4552 47.148 54.165 47.4657 52.8189 47.8915C52.721 47.9265 52.6362 47.9906 52.5757 48.0752C52.5152 48.1597 52.482 48.2607 52.4804 48.3647C52.4085 50.8729 52.5443 53.3827 52.8863 55.8685C52.6044 56.1055 52.3545 56.3781 52.1428 56.6794C51.8693 57.034 51.5758 57.3727 51.2637 57.694C50.5202 58.573 49.7867 59.4612 49.0325 60.331C48.4965 60.9436 47.41 61.8862 47.3418 62.7652C47.349 62.9572 47.3946 63.1458 47.4759 63.32C47.5571 63.4941 47.6725 63.6502 47.815 63.779C49.1794 65.7182 50.7936 67.4689 52.616 68.9857C52.7005 69.0544 52.7999 69.1024 52.9062 69.1259C53.0126 69.1494 53.1229 69.1478 53.2285 69.1213C55.312 68.472 57.42 68.1749 59.5165 67.6335C59.7868 67.6335 60.1926 70.0677 60.3955 70.4061C60.7332 70.8793 61.4093 70.609 61.8825 70.5409C62.5213 70.4153 63.1533 70.2574 63.7761 70.0677C64.0511 70.6096 64.3675 71.1295 64.7225 71.6228H64.1099C50.9253 71.6228 36.9275 74.057 36.9275 78.5195V87.1719C36.9275 88.1857 37.671 89.1321 38.9559 89.9437L39.1588 92.7837C32.0592 92.7837 23.3387 101.844 18.3318 114.419C15.5599 121.387 14.249 128.553 14.6809 134.433C15.1273 140.52 17.3854 144.575 20.9688 146.063L27.6626 148.767C33.5784 151.043 39.7606 145.724 43.7538 140.788C46.864 143.426 54.8426 145.184 64.0379 145.184C69.1499 145.259 74.2475 144.622 79.1835 143.29C83.4438 142.008 85.7417 140.248 85.7417 138.287L89.1222 89.9437C90.4071 89.1321 91.1506 88.1826 91.1506 87.1719V78.5195C91.4936 74.802 81.757 72.7063 72.832 72.0302ZM68.0992 67.7706C67.0111 68.0148 65.8021 68.4467 65.3947 68.5815C65.0563 68.6496 61.4054 69.73 61.4054 69.73C60.5938 67.4329 59.8503 65.0646 59.0387 62.766C58.9713 62.4949 58.7684 62.1534 58.4981 62.292C58.2278 62.3601 58.2921 62.6986 58.3626 62.9681C58.6849 64.1894 59.0387 65.4704 59.4445 66.6871C57.6191 67.0929 55.7936 67.5661 53.9682 67.972C53.7766 68.074 53.5544 68.1028 53.343 68.0531C53.1317 68.0034 52.9457 67.8784 52.8197 67.7017C51.3445 66.3057 49.9872 64.7904 48.7614 63.171C48.3656 62.38 47.982 63.5355 53.1558 56.8831C53.2913 57.3563 53.3587 57.8976 53.4942 58.3708C53.4942 58.5064 53.5616 58.7085 53.6971 58.7085C53.9674 58.7767 54.0348 58.4382 54.0348 58.1679C53.8319 54.9903 53.629 51.88 53.4261 48.7023C56.9001 47.7958 58.0877 47.282 58.9031 47.282C59.2733 47.3941 59.6178 47.578 59.9169 47.8233C63.1551 50.5033 64.8258 53.9581 65.2584 54.246C65.3103 54.2856 65.37 54.3136 65.4335 54.3284C65.497 54.3431 65.563 54.3441 65.6269 54.3313C65.6909 54.3186 65.7514 54.2924 65.8045 54.2544C65.8575 54.2165 65.9018 54.1677 65.9346 54.1112C66.0701 53.9083 65.9346 53.5699 65.7998 53.3678C65.1237 52.3532 64.4476 51.3394 63.7033 50.3249C67.9376 46.8608 68.3794 46.5346 68.7745 46.4029C69.006 46.4088 69.2348 46.4546 69.4507 46.5385C75.1054 49.027 74.9851 48.8563 75.198 49.1755C75.2903 49.2752 75.3618 49.3923 75.4082 49.52C75.4546 49.6477 75.4751 49.7834 75.4683 49.919C76.2057 53.609 75.064 53.7743 76.685 54.5845C77.564 54.9229 78.4461 55.3279 79.3221 55.6664C79.6421 55.8264 79.7279 55.9045 79.7279 56.4099C79.5543 58.1956 79.2147 59.9613 78.7133 61.684C78.5441 62.2376 78.3994 62.354 77.8343 62.4949C76.9908 62.7013 76.1315 62.8371 75.2654 62.9007C75.1301 62.5561 75.0612 62.189 75.0625 61.8188C74.9024 60.9474 73.7991 60.8632 74.0479 62.2246C74.2968 63.586 74.5563 65.0018 74.7922 66.3494C74.9569 67.0156 75.07 67.6935 75.1306 68.377C75.1306 68.9176 74.8565 69.0478 74.4545 69.3234C72.1748 70.9195 69.7791 72.3433 67.2876 73.583C66.3411 72.2982 65.4621 70.9459 64.5157 69.6611C65.6615 69.3365 66.7899 68.9531 67.8963 68.5125C68.234 68.3755 68.7079 68.0393 68.5088 67.7017C68.6398 67.7706 68.4353 67.6948 68.0992 67.7706ZM54.3059 84.0654L52.616 73.3824C53.9003 73.2466 55.253 73.1113 56.6742 72.9766L57.5532 84.3357C56.4697 84.2002 55.3878 84.1328 54.3059 84.0654ZM19.5531 114.896C21.9849 108.811 25.3685 103.334 29.1542 99.4805C32.4712 96.103 37.5179 92.5762 41.9329 94.3427C48.6941 97.0471 49.5723 110.637 44.0286 124.633C41.3242 131.462 37.4046 137.413 33.1435 141.266C28.9528 145.053 24.8976 146.464 21.6488 145.187C14.8945 142.534 13.9359 128.958 19.5531 114.896ZM28.3425 147.892L25.1649 146.607C27.8693 146.269 30.831 144.693 33.7514 142.013C46.6236 130.186 52.9008 104.584 45.449 95.6987L48.6267 96.9828C51.8043 98.2676 53.8334 102.054 54.2385 107.733C54.6466 113.481 53.4039 120.435 50.655 127.341C45.0639 141.382 35.0363 150.596 28.3425 147.892ZM85.0043 138.358C85.0043 141.268 76.6881 144.308 64.3151 144.308C59.5554 144.362 54.8078 143.816 50.1841 142.685C51.1131 140.807 51.9039 138.864 52.5501 136.87C54.472 131.111 55.7048 125.376 55.8633 116.114C55.9321 113.211 55.6827 110.31 55.1198 107.461C54.5792 101.579 52.4154 97.59 48.8993 96.1704C41.9168 93.3496 41.5386 93.1076 40.3801 92.992L40.2446 90.626C50.008 95.3733 78.5456 95.4093 88.3849 90.626L85.0043 138.358ZM64.3151 93.1252C48.8993 93.1252 38.1488 90.0149 38.1488 87.2431V80.6167C45.1167 87.178 83.5104 87.178 90.4814 80.6167V87.2431C90.4791 90.0149 79.7286 93.1252 64.3128 93.1252H64.3151ZM64.3151 84.5386H62.8932L62.6903 72.7063H65.665C65.9353 73.1795 66.2776 73.5853 66.5441 74.0585C66.747 74.3288 66.9499 74.7346 67.2876 74.8701C67.6934 75.0049 68.0992 74.6672 68.4361 74.5317C71.1528 73.1734 70.9667 73.1534 71.4116 72.9766C83.8519 73.7882 90.5725 76.4927 90.5457 78.6558C90.5128 81.361 79.7286 84.5386 64.3128 84.5386H64.3151Z" fill="#191919"/>
<path d="M78.6463 99.4812C78.5526 99.4746 78.4586 99.487 78.3698 99.5178C78.281 99.5485 78.1994 99.597 78.1299 99.6602C78.0604 99.7234 78.0044 99.8 77.9654 99.8855C77.9264 99.9709 77.9051 100.063 77.9028 100.157L75.9419 133.625C75.9624 133.805 76.0387 133.973 76.16 134.106C76.2814 134.24 76.4416 134.331 76.618 134.369C76.7117 134.375 76.8058 134.363 76.8946 134.332C76.9833 134.302 77.065 134.253 77.1345 134.19C77.204 134.127 77.2599 134.05 77.2989 133.965C77.338 133.879 77.3592 133.787 77.3615 133.693L79.3225 100.225C79.3291 100.131 79.3167 100.037 79.2859 99.9482C79.2552 99.8594 79.2067 99.7778 79.1435 99.7083C79.0803 99.6388 79.0037 99.5828 78.9182 99.5438C78.8328 99.5048 78.7403 99.4835 78.6463 99.4812Z" fill="#191919"/>
<path d="M64.3129 100.766C64.1272 100.782 63.9546 100.868 63.8293 101.006C63.704 101.144 63.6353 101.324 63.6367 101.51V134.978C63.6353 135.164 63.704 135.344 63.8294 135.482C63.9547 135.619 64.1273 135.705 64.3129 135.721C64.5095 135.719 64.6977 135.641 64.8368 135.502C64.9759 135.362 65.0547 135.174 65.0563 134.978V101.51C65.0545 101.313 64.9756 101.125 64.8366 100.986C64.6976 100.847 64.5095 100.768 64.3129 100.766Z" fill="#191919"/>
<path d="M35.036 111.043L34.2925 110.772C33.7387 110.536 33.1431 110.413 32.541 110.412C31.9389 110.41 31.3426 110.53 30.7876 110.763C30.2325 110.996 29.73 111.339 29.31 111.77C28.8899 112.201 28.5608 112.713 28.3422 113.274L24.6914 122.266C24.4514 122.835 24.3334 123.448 24.345 124.065C24.3566 124.682 24.4976 125.29 24.7588 125.85C24.9719 126.414 25.3066 126.925 25.739 127.345C26.1714 127.766 26.691 128.086 27.2611 128.284C28.3285 128.677 28.268 128.69 28.4778 128.69C28.715 128.688 28.9442 128.604 29.1252 128.45C29.3062 128.297 29.4275 128.085 29.4678 127.851C29.5082 127.617 29.465 127.377 29.3459 127.171C29.2268 126.966 29.0393 126.81 28.8162 126.729C27.8974 126.381 27.0145 126.158 26.5191 125.039C26.3854 124.729 26.3164 124.396 26.3164 124.058C26.3164 123.721 26.3854 123.387 26.5191 123.078L30.1684 114.089C30.2861 113.774 30.4667 113.485 30.6991 113.241C30.9316 112.997 31.2111 112.803 31.5207 112.67C31.8304 112.538 32.1638 112.469 32.5007 112.469C32.8376 112.469 33.1711 112.537 33.4809 112.67L34.2251 112.94C34.3495 112.993 34.4831 113.022 34.6183 113.023C34.7535 113.025 34.8878 113 35.0133 112.949C35.1389 112.899 35.2533 112.825 35.3501 112.73C35.4469 112.636 35.5241 112.523 35.5773 112.399C35.6306 112.274 35.6588 112.141 35.6604 112.005C35.662 111.87 35.637 111.736 35.5867 111.61C35.5365 111.485 35.4619 111.37 35.3674 111.274C35.273 111.177 35.1603 111.1 35.036 111.046V111.043Z" fill="#191919"/>
<path d="M113.4 6.8515C110.358 5.83695 107.181 6.31015 104.135 7.05441C101.445 7.73716 98.8028 8.59531 96.2249 9.62334C86.8673 13.4411 79.283 19.4488 75.2685 24.2957C75.2063 24.3586 75.1716 24.4435 75.1719 24.5319C75.1721 24.6203 75.2074 24.705 75.2699 24.7675C75.3324 24.83 75.4171 24.8652 75.5055 24.8655C75.5939 24.8657 75.6788 24.831 75.7417 24.7689C77.7026 22.8753 79.6636 20.9825 81.7593 19.2244C87.9985 14.0477 95.2875 10.2875 103.122 8.20373C106.368 7.3247 109.884 6.71597 113.197 7.46023C113.602 7.52761 113.805 6.98626 113.4 6.8515Z" fill="#191919"/>
<path d="M88.3825 23.5513C85.7779 25.7705 83.4205 28.2643 81.3511 30.9893C78.8358 34.3777 76.5759 37.9483 74.5899 41.6716C74.0686 42.5704 73.5948 43.4959 73.1703 44.4442C73.0348 44.6464 73.6451 44.7834 73.8464 44.5116C75.5042 42.2666 80.1206 31.2887 88.8542 24.0253C89.1888 23.7481 88.7156 23.2772 88.3825 23.5513Z" fill="#191919"/>
<path d="M68.4366 36.533C66.707 39.18 65.1922 41.9612 63.9068 44.8501C63.7712 45.2551 64.3126 45.3907 64.5193 45.1204C64.9251 44.4443 65.249 43.7612 65.6013 43.0239C66.6334 40.91 67.7838 38.856 69.0469 36.8715C69.2483 36.533 68.7077 36.1954 68.4366 36.533Z" fill="#191919"/>
<path d="M73.8464 54.586C73.2728 54.8157 67.9505 58.8847 67.491 59.2514C65.9359 58.7782 64.3134 58.305 62.7583 57.9666C62.669 57.9412 62.5734 57.9519 62.4921 57.9965C62.4107 58.041 62.3502 58.1158 62.3235 58.2046C62.2968 58.2935 62.3062 58.3892 62.3496 58.4712C62.393 58.5532 62.4669 58.6148 62.5553 58.6427C63.367 58.913 66.7475 59.9949 66.9505 60.0631C67.1858 60.17 67.4369 60.2383 67.694 60.2652C67.8969 60.2652 68.0998 60.0631 68.3065 59.9276C68.6281 59.4452 72.7644 56.5508 73.1748 56.2085C73.6237 55.9531 74.0335 55.6344 74.3915 55.2621C74.6557 54.9237 74.2514 54.4505 73.8464 54.586Z" fill="#191919"/>
<path d="M84.5284 39.1702C84.1979 39.4739 83.903 39.8142 83.6494 40.1847C82.8005 41.1812 82.0324 42.2438 81.3523 43.3624C79.4174 46.403 79.0101 48.0553 77.9718 50.7996C77.8431 51.1403 78.3845 51.2759 78.5123 50.9351C79.8808 47.2924 81.7466 43.8566 84.0568 40.7253C84.3873 40.3482 84.6816 39.9408 84.9358 39.5086C85.2046 39.2383 84.7957 38.9634 84.5284 39.1702Z" fill="#191919"/>
<path d="M106.368 36.6005C106.571 36.2621 106.032 35.9252 105.827 36.2621C105.316 37.1025 105.014 38.0534 104.948 39.0347C104.402 43.1327 105.322 47.6143 105.895 50.1902C106.029 50.7987 106.233 51.3897 106.503 51.9513C106.696 52.3617 107.314 52.0868 107.247 51.6136C106.002 47.7296 105.475 43.6512 105.692 39.5783C105.721 38.5511 105.95 37.5394 106.368 36.6005Z" fill="#191919"/>
</svg>
