<svg width="154" height="154" viewBox="0 0 154 154" fill="none" xmlns="http://www.w3.org/2000/svg">
<path d="M85.0161 56.0618C84.199 56.7027 85.8775 57.2104 86.8193 56.3367C87.3109 55.8818 87.1256 55.1537 86.928 54.5755C86.7305 53.9974 85.451 50.9185 84.6393 51.1482C83.8277 51.3779 85.4265 53.0625 86.0077 55.1299C86.2565 56.0159 85.4969 55.6858 85.0161 56.0618Z" fill="#191919"/>
<path d="M84.3263 46.5724C84.1566 46.6292 84.0165 46.751 83.9366 46.9111C83.8568 47.0712 83.8438 47.2565 83.9006 47.4262C83.9573 47.5959 84.0792 47.736 84.2393 47.8159C84.3994 47.8957 84.5847 47.9087 84.7543 47.8519C85.2335 47.7153 85.7359 47.6805 86.2293 47.7499C86.7227 47.8192 87.196 47.9912 87.6189 48.2547C87.9826 48.4668 88.341 48.0502 88.0538 47.6727C87.0867 46.4024 85.1318 46.0678 84.3263 46.5724Z" fill="#191919"/>
<path d="M73.7687 62.8592C69.7104 63.4419 67.3688 58.4663 69.1744 56.81C70.6208 55.4815 72.6737 57.7289 73.369 56.4333C74.5444 54.2418 74.7886 50.5182 74.1431 47.999C74.8165 48.2132 75.5256 48.2917 76.2295 48.2299C76.9334 48.1681 77.6181 47.9672 78.2437 47.6389C78.8694 47.3105 79.4237 46.8613 79.8745 46.3172C80.3253 45.773 80.6637 45.1448 80.8699 44.469C82.489 45.2182 84.3394 45.2936 86.014 44.6786C87.6886 44.0636 89.0504 42.8085 89.7997 41.1895C91.8671 36.7238 88.9811 32.1893 83.9328 33.0361C82.8777 33.2088 81.8767 33.6222 81.0073 34.2444C80.1379 34.8665 79.4235 35.6806 78.9196 36.6235C74.4111 33.6816 69.1874 36.4374 69.5197 40.3893C65.0434 38.145 61.8465 44.8657 66.1368 46.7447C65.0886 48.5418 65.6184 53.3069 68.4837 54.009C69.0335 54.143 69.3972 53.5381 68.8352 53.2433C66.7333 52.1338 66.7517 48.8121 67.4477 47.3098C67.911 46.3098 67.9653 46.1275 66.9936 45.7684C64.244 44.7539 65.7195 39.4957 69.7502 42.1366C70.4394 42.5892 71.3628 42.776 70.9524 41.2798C69.9639 37.681 74.4295 35.2 78.6256 38.083C79.2627 38.5202 79.6501 38.5118 80.0575 37.6235C82.3202 32.6785 90.2836 33.3968 89.0095 39.4268C88.1909 43.3021 84.1089 44.8013 80.6969 43.1673C79.9105 42.7913 79.7244 43.1673 79.6034 43.7623C79.4763 44.3926 79.2024 44.9841 78.8041 45.4889C78.4058 45.9937 77.8941 46.3975 77.3106 46.6678C76.7271 46.938 76.0882 47.067 75.4456 47.0443C74.803 47.0216 74.1747 46.8479 73.6117 46.5372C72.8774 46.1329 72.2227 46.5372 72.5765 47.5326C73.4967 50.1556 73.4672 53.0183 72.493 55.6216C70.3444 54.5604 67.816 55.0787 67.3137 57.6891C66.6162 61.3094 70.1338 64.5759 73.8039 64.2183C74.6879 67.9551 75.1502 71.7792 75.1822 75.619C75.1868 76.508 76.0589 76.4315 76.1478 75.619C76.4785 72.5761 75.454 65.8814 75.1309 64.314C74.8468 62.9304 74.8943 62.6976 73.7687 62.8592Z" fill="#191919"/>
<path d="M88.4313 62.4564C88.86 61.7499 89.3499 61.0825 89.8953 60.4617C90.4313 59.8622 89.3647 59.6493 89.4359 59.0543C89.4872 58.6202 89.5699 58.1975 89.0584 58.1018C88.1694 58.0395 87.276 58.1042 86.4052 58.294C86.0078 58.3813 85.9955 59.052 86.4052 59.0291C87.0871 58.9878 87.7713 59.0006 88.4512 59.0673C88.4272 59.2779 88.4523 59.4911 88.5244 59.6904C88.5965 59.8896 88.7138 60.0695 88.867 60.2159C88.3815 60.7558 88.0289 61.4016 87.8371 62.1019C87.648 62.817 88.1694 62.876 88.4313 62.4564Z" fill="#191919"/>
<path d="M89.1154 51.375C88.9385 51.2469 88.7318 51.1661 88.5149 51.1404C88.298 51.1148 88.0781 51.1451 87.8762 51.2285C87.6744 51.3118 87.4972 51.4455 87.3616 51.6167C87.226 51.7879 87.1365 51.991 87.1015 52.2066C87.0181 52.7242 87.3313 53.0695 87.6643 52.6798C87.8089 52.4866 88.0078 52.3408 88.2355 52.2611C88.4632 52.1813 88.7095 52.1711 88.9431 52.2318C89.7042 52.3597 89.6782 51.6951 89.1154 51.375Z" fill="#191919"/>
<path d="M80.3041 49.7509C81.3562 49.0848 80.1571 47.8366 79.2236 48.4209C78.6135 48.9215 78.1241 49.5532 77.7919 50.2691C77.4596 50.985 77.2931 51.7666 77.3048 52.5557C77.4012 53.2587 78.1876 53.0917 78.3278 52.5557C78.45 51.9787 78.6882 51.4326 79.0279 50.9504C79.3676 50.4682 79.8018 50.0602 80.3041 49.7509Z" fill="#191919"/>
<path d="M82.5617 64.7581C85.0518 63.2619 85.12 58.2396 80.3871 58.1853C79.6842 58.1768 79.6911 58.8866 80.2784 58.9969C83.6475 59.6279 83.6345 62.1984 81.9629 64.3232C81.5969 64.7849 81.979 65.1088 82.5617 64.7581Z" fill="#191919"/>
<path d="M88.5591 44.3855C88.4588 44.2751 88.3188 44.209 88.1698 44.2017C88.0208 44.1944 87.875 44.2465 87.7643 44.3465C87.6763 44.4247 87.6155 44.5288 87.5905 44.6439C87.5656 44.759 87.5779 44.879 87.6257 44.9866C89.9137 49.9369 91.9229 52.9416 92.939 58.5397C93.7522 63.0153 93.5784 68.3233 88.0989 69.2697C84.7298 69.8516 81.7044 68.5338 79.0061 66.5583C78.9706 66.5175 78.9269 66.4848 78.8778 66.4621C78.8287 66.4395 78.7754 66.4275 78.7214 66.4269C78.6674 66.4263 78.6138 66.4372 78.5643 66.4588C78.5148 66.4804 78.4704 66.5122 78.434 66.5522C78.3977 66.5922 78.3702 66.6394 78.3534 66.6908C78.3366 66.7422 78.3309 66.7965 78.3366 66.8502C78.3423 66.904 78.3594 66.9559 78.3866 67.0026C78.4138 67.0493 78.4506 67.0897 78.4946 67.1211C79.6638 68.4004 81.1211 69.3826 82.7457 69.9863C84.3703 70.5901 86.1153 70.798 87.8363 70.5928C88.6123 72.4711 89.2369 74.4084 89.7039 76.3862C89.8317 76.9184 90.7445 76.7951 90.6503 76.2392C90.3001 74.24 89.767 72.2771 89.0576 70.3754C94.3525 69.0584 95.1519 63.7642 94.1733 58.2266C93.1947 52.6889 90.3945 46.6689 88.5591 44.3855Z" fill="#191919"/>
<path d="M80.8982 54.7386C81.0337 54.5433 81.221 54.3897 81.4391 54.295C81.6571 54.2003 81.8973 54.1683 82.1325 54.2026C82.8362 54.3627 83.0728 53.9086 82.484 53.4989C82.2795 53.3249 82.0295 53.2129 81.7634 53.1763C81.4974 53.1396 81.2264 53.1798 80.9825 53.2921C80.7385 53.4043 80.5318 53.584 80.3866 53.8099C80.2414 54.0359 80.1639 54.2986 80.1631 54.5671C80.1631 55.0388 80.5727 55.2846 80.8982 54.7386Z" fill="#191919"/>
<path d="M26.5595 63.6011C26.4197 63.5705 26.2734 63.592 26.1482 63.6615C26.023 63.731 25.9275 63.8438 25.8796 63.9788C25.8317 64.1137 25.8346 64.2615 25.8879 64.3944C25.9412 64.5273 26.0412 64.6362 26.169 64.7007C27.3833 65.5588 28.2358 66.8372 28.5611 68.2881C28.689 68.6395 29.3207 68.7031 29.48 67.9619C29.7863 66.5614 27.9279 63.9848 26.5595 63.6011Z" fill="#191919"/>
<path d="M40.2049 64.6432C40.2591 64.6114 40.3056 64.5681 40.3412 64.5163C40.3768 64.4645 40.4006 64.4056 40.4108 64.3436C40.4211 64.2817 40.4177 64.2182 40.4007 64.1577C40.3838 64.0972 40.3538 64.0412 40.3128 63.9936C40.2718 63.946 40.2208 63.908 40.1635 63.8823C40.1062 63.8565 40.044 63.8437 39.9812 63.8447C39.9184 63.8456 39.8566 63.8604 39.8001 63.8879C39.7436 63.9154 39.6939 63.955 39.6544 64.0038C36.6811 65.9794 34.6979 71.1594 35.4981 74.8004C36.7761 80.6198 46.1415 94.3475 49.3483 102.705C49.3646 102.759 49.3916 102.81 49.4277 102.853C49.4638 102.897 49.5084 102.933 49.5586 102.959C49.6088 102.985 49.6638 103 49.7202 103.005C49.7765 103.009 49.8332 103.002 49.8868 102.984C49.9404 102.966 49.9899 102.937 50.0322 102.9C50.0745 102.862 50.1089 102.816 50.1332 102.765C50.1575 102.714 50.1714 102.659 50.1739 102.602C50.1764 102.546 50.1675 102.49 50.1477 102.437C47.5068 92.8958 38.6054 82.6635 36.5946 74.4673C35.8143 71.3057 38.2156 66.4909 40.2049 64.6432Z" fill="#191919"/>
<path d="M31.8282 67.2007C31.7731 65.4296 30.6582 62.3667 28.6314 62.4755C28.515 62.4939 28.4077 62.5492 28.3251 62.6331C28.2425 62.7171 28.189 62.8253 28.1724 62.9419C28.1559 63.0586 28.1772 63.1774 28.2332 63.281C28.2892 63.3846 28.377 63.4676 28.4836 63.5176C30.2555 64.157 30.4071 66.4327 30.6582 67.5843C30.9347 68.8432 31.8696 68.5315 31.8282 67.2007Z" fill="#191919"/>
<path d="M54.861 115.677C51.3387 117.591 47.5515 119.925 43.3125 119.149C39.2389 118.403 37.4448 114.451 35.9203 111.041C30.6062 99.1533 30.0648 87.4815 26.2906 76.2492C25.3289 73.3854 23.7845 72.6779 23.6949 68.8509C23.66 68.0813 23.7158 67.3103 23.861 66.5537C24.0272 66.4067 25.7945 66.8103 26.4568 68.6258C26.6337 69.1097 27.4829 69.0599 27.4093 68.4787C27.1031 66.0216 24.4705 64.7482 23.253 65.4281C22.5386 65.8271 22.4919 66.6533 22.4353 67.3853C22.0034 72.89 24.2347 74.7017 25.1076 76.4651C27.3282 80.9446 29.8083 101.185 34.8398 111.723C36.601 115.406 38.3001 119.227 42.3921 120.292C46.958 121.479 51.6725 119.127 55.2959 116.532C55.9131 116.092 55.5448 115.305 54.861 115.677Z" fill="#191919"/>
<path d="M34.2326 67.4886C33.8253 65.0773 32.2058 60.1867 32.1545 54.6491C32.1499 54.1498 31.3696 54.3167 31.2655 54.7318C30.6391 57.2226 32.0565 65.2221 33.094 67.7382C33.3367 68.3263 34.3483 68.1731 34.2326 67.4886Z" fill="#191919"/>
<path d="M117.513 104.026C121.388 98.3224 125.034 91.7457 128.549 85.7318C129.859 83.4928 130.464 82.139 130.187 79.5616C129.88 76.7101 128.34 73.1067 125.857 71.6066C125.327 71.2866 124.95 71.965 125.321 72.3723C128.078 75.0799 129.81 79.688 128.428 83.1536C126.11 88.973 119.8 97.2956 116.669 103.481C116.616 103.592 116.606 103.718 116.639 103.837C116.673 103.955 116.748 104.057 116.851 104.123C116.955 104.19 117.079 104.217 117.2 104.199C117.322 104.18 117.432 104.119 117.512 104.025L117.513 104.026Z" fill="#191919"/>
<path d="M132.698 73.998C133.972 71.9934 134.388 62.5728 133.548 59.8323C133.413 59.3912 132.645 59.5574 132.679 59.9793C133.094 64.6025 132.788 69.2621 131.771 73.7913C131.67 74.2239 132.469 74.3625 132.698 73.998Z" fill="#191919"/>
<path d="M136.144 74.2155C136.087 75.034 136.892 75.1298 137.116 74.5869C137.257 74.1172 137.535 73.7003 137.914 73.3894C138.294 73.0784 138.757 72.8875 139.245 72.841C139.329 72.8385 139.412 72.8195 139.488 72.785C139.565 72.7506 139.634 72.7014 139.692 72.6402C139.749 72.5791 139.794 72.5072 139.824 72.4287C139.854 72.3501 139.868 72.2665 139.865 72.1825C139.863 72.0986 139.844 72.0159 139.809 71.9393C139.775 71.8627 139.726 71.7936 139.665 71.736C139.603 71.6784 139.532 71.6335 139.453 71.6036C139.374 71.5738 139.291 71.5598 139.207 71.5623C138.472 71.5932 137.769 71.8723 137.212 72.3542C136.656 72.836 136.279 73.4921 136.144 74.2155Z" fill="#191919"/>
<path d="M135.219 73.1258C135.403 72.8058 136.308 71.2161 137.133 71.0155C138.678 70.6418 138.112 69.7368 136.974 69.7904C135.836 69.844 134.542 71.5354 134.205 73.0324C134.119 73.4321 134.621 74.1634 135.219 73.1258Z" fill="#191919"/>
<path d="M141.963 76.8946C141.855 75.8777 141.637 73.8578 140.288 73.8126C138.939 73.7674 138.21 74.893 137.986 75.9933C137.964 76.0546 137.954 76.1199 137.958 76.1851C137.962 76.2502 137.979 76.3139 138.009 76.3721C138.038 76.4303 138.08 76.4817 138.13 76.5231C138.18 76.5645 138.239 76.595 138.302 76.6127C138.365 76.6304 138.431 76.6349 138.495 76.6259C138.56 76.617 138.622 76.5947 138.678 76.5605C138.733 76.5264 138.781 76.4811 138.819 76.4275C138.856 76.3739 138.882 76.3132 138.894 76.2491C138.99 75.9692 139.152 75.7169 139.367 75.514C139.582 75.3112 139.844 75.164 140.129 75.0852C140.588 75.1618 140.714 77.8984 140.672 78.57C140.502 81.2867 139.332 83.7554 138.555 86.3136C135.745 95.5635 133.738 103.916 129.501 113.062C126.942 118.585 121.767 122.874 115.669 119.034C114.928 118.567 114.334 119.494 115.081 119.961C121.82 124.173 127.737 119.924 130.748 113.663C134.106 106.681 137.553 94.4103 139.776 86.4806C140.757 82.9889 142.408 81.0639 141.963 76.8946Z" fill="#191919"/>
<path d="M28.7847 32.2811C28.8892 32.509 29.0742 32.6903 29.3041 32.7901C29.5341 32.8899 29.7928 32.9013 30.0307 32.822C30.2685 32.7428 30.4687 32.5784 30.5927 32.3606C30.7168 32.1427 30.756 31.8867 30.7028 31.6417C30.4662 30.1777 28.2158 30.7979 28.7847 32.2811Z" fill="#191919"/>
<path d="M32.9728 27.6002C32.9407 28.176 33.783 28.2013 33.868 27.6002C34.0936 26.01 34.1899 24.4042 34.1559 22.7984C35.2918 23.4885 36.2682 24.4119 37.0206 25.5075C37.773 26.6031 38.2842 27.8459 38.5204 29.1538C38.6284 29.9402 39.5044 29.5497 39.4094 28.7633C39.2039 27.1219 38.5803 25.5608 37.5983 24.2295C36.6163 22.8983 35.3089 21.8416 33.8013 21.1606C33.6413 21.1045 33.4656 21.1141 33.3127 21.1875C33.1598 21.2609 33.0422 21.3919 32.9859 21.5518C32.8534 21.9201 33.1735 23.9562 32.9728 27.6002Z" fill="#191919"/>
<path d="M29.2637 37.3012C30.8051 45.5602 42.2525 47.6735 45.7679 39.511C46.2411 38.4115 46.5099 37.9957 45.2817 37.9888C44.7258 37.9888 44.0029 37.9122 43.6063 37.9183C42.9286 37.9245 42.8145 38.7905 43.6063 38.9222C43.9394 38.9781 44.2778 39.0248 44.617 39.0508C41.2088 45.394 32.9292 44.3917 30.5815 37.7208C30.1221 36.4099 30.4965 35.9834 29.0784 36.0515C28.4924 36.0885 27.9098 35.9377 27.4153 35.621C26.9209 35.3043 26.5402 34.8382 26.3287 34.2904C26.0538 33.7345 25.321 33.932 25.4864 34.5469C25.7036 35.3701 26.1978 36.0934 26.8858 36.5951C27.5737 37.0967 28.4135 37.3461 29.2637 37.3012Z" fill="#191919"/>
<path d="M27.4031 30.3117C28.528 27.954 32.9737 28.219 33.6315 32.8056C33.7356 33.5345 33.9508 33.6808 34.6606 33.605C38.8039 33.1639 42.8713 29.1799 44.438 25.7181C45.7872 28.2756 46.51 30.7251 45.1731 33.5575C43.8361 36.3899 40.8491 37.9581 37.8391 38.3601C37.0006 38.4719 37.1989 39.4635 38.0052 39.3509C41.4693 38.867 44.7512 37.3363 46.3178 34.1203C47.8845 30.9043 46.7083 27.575 44.9939 24.5994C44.5735 23.8689 44.0865 23.5236 43.7152 24.4968C42.3744 28.013 38.6002 31.582 34.8972 32.3622C33.9829 26.9486 27.5586 26.0344 26.521 30.0559C26.3403 30.7527 27.1015 30.9441 27.4031 30.3117Z" fill="#191919"/>
<path d="M101.904 88.8712C105.809 92.9157 110.166 105.689 111.688 111.15C112.967 105.261 116.266 99.0001 120.077 95.2465C115.33 87.8865 101.904 78.436 91.5519 75.9934C90.9891 81.064 79.1917 83.1995 73.6985 75.9934C62.3935 78.6405 51.165 88.7808 47.8525 94.0252C54.6368 101.213 57.1437 112.831 57.1437 120.294C61.7602 116.649 64.258 112.261 67.3744 107.537C67.6286 107.154 68.3254 107.437 68.1355 107.888C67.1275 110.251 65.8186 112.473 64.2411 114.5C65.2366 122.589 65.5206 135.16 65.2901 144.829C81.276 152.988 104.219 148.863 113.888 141.631C113.888 124.815 110.595 104.934 101.303 89.3896C101.041 88.8712 101.49 88.4401 101.904 88.8712ZM93.9409 86.4286C93.3528 87.4523 92.7326 87.7173 92.0266 86.7548C90.9141 85.2242 89.4716 83.9634 87.806 83.0655C86.903 84.5701 86.1343 86.1513 85.5088 87.7908C84.8817 89.4194 84.7676 89.4753 83.776 89.2104C79.475 88.0526 73.2337 84.3673 69.9579 79.2477C69.3308 78.2683 70.1111 77.8794 70.6425 78.5065C74.9037 83.5426 77.5339 86.0871 84.2301 87.8865C84.7965 86.0745 85.5712 84.3344 86.5387 82.7011C87.2547 81.492 87.7593 81.4951 88.8918 82.1321C90.4551 83.0197 91.8213 84.2164 92.9072 85.6491C93.8787 83.6255 94.3835 81.4097 94.3842 79.165C94.4738 77.9399 95.2265 77.6428 95.4333 79.0432C95.5866 81.5901 95.0685 84.1325 93.9309 86.4163L93.9409 86.4286Z" fill="#38A1FF"/>
<path d="M102.614 55.8514C103.029 54.4509 102.255 48.7302 101.821 46.0035C104.02 47.2822 104.149 50.7838 106.092 51.1897C106.457 51.2662 107.096 51.4064 106.291 50.5503C104.84 49.0082 104.367 45.6115 101.495 44.2454C100.854 43.9391 100.446 44.6482 100.576 45.4284C101.061 48.2356 101.472 52.1484 101.305 53.6897C99.9629 53.3253 97.9682 54.6614 97.9422 55.9792C97.9024 58.1784 101.987 57.9647 102.614 55.8514Z" fill="#38A1FF"/>
<path d="M122.04 25.1645C119.817 25.767 117.671 26.6252 115.645 27.722C113.617 28.7894 115.573 29.5076 115.256 38.164C113.548 37.6908 110.996 39.5262 111.892 41.0354C112.678 42.3594 116.357 41.4505 116.477 39.3792C116.682 36.0076 116.562 32.6242 116.119 29.2756C118.059 28.2686 120.094 27.4548 122.193 26.846C122.514 29.322 122.649 31.8186 122.596 34.3148C121.177 34.1678 119.501 35.8944 119.91 37.141C120.44 38.749 123.977 37.7804 123.958 35.4404C123.939 33.1003 123.718 29.2572 123.6 26.7434C123.548 25.6247 123.378 24.9378 122.04 25.1645Z" fill="#38A1FF"/>
<path d="M139.707 22.1208C138.374 19.4079 138.976 16.3925 135.628 14.4476C134.543 13.8166 134.226 14.6459 134.272 15.6367C134.426 18.69 134.402 21.7495 134.202 24.8C132.671 24.359 130.001 25.4394 130.768 27.1592C131.536 28.879 135.133 28.6684 135.392 26.3728C135.774 22.9667 135.876 19.5351 135.698 16.1122C137.828 18.4094 137.142 20.7954 139.152 22.5067C139.743 23.0098 140.022 22.7594 139.707 22.1208Z" fill="#38A1FF"/>
<path d="M14.7169 15.3749C14.2123 15.162 13.4795 15.4377 13.6487 16.11C14.368 18.9985 14.7881 21.9534 14.9022 24.9279C13.393 24.5252 10.5123 25.6492 11.213 27.7029C11.8033 29.4349 16.2284 29.0773 16.2192 26.2832C16.2049 23.1911 15.8643 20.1092 15.2031 17.0885C16.5298 18.0576 17.5111 19.4262 18.0033 20.9937C18.3938 22.2127 19.1986 21.9271 19.135 20.6874C19.0447 18.9132 17.1756 16.4101 14.7169 15.3749Z" fill="#38A1FF"/>
<path d="M29.5711 4.01167C29.462 3.91335 29.3251 3.85128 29.1793 3.83402C29.0334 3.81676 28.8858 3.84516 28.7568 3.91529C28.6278 3.98543 28.5237 4.09386 28.4589 4.22563C28.3941 4.3574 28.3717 4.50603 28.3949 4.65104C28.8367 7.52128 29.0713 10.4196 29.0971 13.3235C27.5243 12.7799 25.0955 14.1804 25.4783 15.7026C25.9378 17.5403 30.1576 16.9806 30.2258 14.5196C30.3095 11.7574 30.2026 8.99271 29.9057 6.24525C30.8373 6.87371 31.6548 7.65653 32.3231 8.56001C34.222 11.1435 34.0742 7.439 29.5711 4.01167Z" fill="#38A1FF"/>
<path d="M22.2625 28.438C22.2212 28.6869 24.4877 31.6356 24.3468 31.8653C24.2059 32.0951 21.1499 32.5545 21.0542 32.8187C20.9585 33.0828 25.5719 33.7459 25.9395 33.3171C26.3416 32.7616 26.5381 32.0835 26.4954 31.399C26.451 31.0476 22.31 28.1562 22.2625 28.438Z" fill="#38A1FF"/>
</svg>
