<svg width="154" height="154" viewBox="0 0 154 154" fill="none" xmlns="http://www.w3.org/2000/svg">
<path d="M40.057 28.0581C39.1864 28.2725 38.4046 29.6661 38.985 29.8682C39.3954 30.0122 39.3533 29.2756 40.2485 28.9279C40.7676 28.7258 40.6152 27.921 40.057 28.0581Z" fill="#191919"/>
<path d="M41.0559 31.3943C41.3546 31.0643 41.0269 29.8483 40.4686 30.2189C40.0628 30.5329 40.5422 31.9648 41.0559 31.3943Z" fill="#191919"/>
<path d="M31.0658 36.9075C31.1776 38.6689 31.1776 40.4356 31.0658 42.197C31.0658 42.6434 31.6531 42.6564 31.7549 42.197C31.9715 40.4763 32.0421 38.7404 31.9662 37.0078C33.2886 36.7252 34.3522 35.2466 34.7695 34.3331C34.9841 34.628 35.3039 34.8291 35.6626 34.8948C36.0214 34.9606 36.3916 34.8858 36.6968 34.6861C37.0904 34.3216 36.791 33.8285 36.2971 34.0046C35.9143 34.1402 35.608 33.9097 35.4043 33.5636C35.1348 33.1103 34.8155 31.3867 35.4862 31.0658C36.1179 30.7641 37.0804 31.5253 37.2259 30.8721C37.634 29.5926 37.7229 28.2327 37.4847 26.9111C39.7474 26.9111 44.8884 26.1882 45.295 21.6981C45.7636 16.5203 29.516 20.4308 26.924 23.9608C24.525 27.2265 29.0144 35.6456 31.0658 36.9075Z" fill="#191919"/>
<path d="M42.7721 33.853C43.5186 33.8002 43.6144 33.1531 43.5186 32.4893C43.2288 30.638 42.6994 28.8324 41.9436 27.1178C41.9098 27.0436 41.8488 26.9853 41.7731 26.9549C41.6975 26.9246 41.6131 26.9245 41.5374 26.9548C41.4617 26.985 41.4006 27.0433 41.3667 27.1174C41.3329 27.1915 41.3288 27.2758 41.3555 27.3529C41.9176 29.1727 42.3845 31.0206 42.7545 32.889C42.7828 33.0306 42.7958 33.0184 42.6488 33.036C42.0485 33.108 41.1312 32.7626 41.1939 33.9824C41.1847 34.2693 41.2023 34.5564 41.2468 34.84C40.6355 34.9524 40.0044 34.824 39.4856 34.4817C39.0469 34.1884 38.7505 34.5582 38.8623 35.0697C38.98 35.6065 39.2678 36.0909 39.6829 36.4508C40.0981 36.8108 40.6184 37.0271 41.1664 37.0675C41.1664 37.7788 41.1312 38.5782 40.3241 38.7896C39.3768 38.9066 38.417 38.873 37.4802 38.69C37.1525 38.6295 36.9251 39.1112 37.2566 39.2773C37.5581 39.4261 37.8815 39.5254 38.2145 39.5714C38.2905 40.5789 38.4456 41.579 38.6786 42.5622C38.6861 42.6107 38.7036 42.6571 38.73 42.6984C38.7565 42.7397 38.7912 42.775 38.8321 42.8022C38.8729 42.8293 38.919 42.8476 38.9673 42.856C39.0156 42.8643 39.0652 42.8625 39.1127 42.8507C39.1603 42.8388 39.2049 42.8172 39.2437 42.7871C39.2824 42.7571 39.3145 42.7193 39.3378 42.6762C39.3612 42.633 39.3753 42.5855 39.3792 42.5366C39.3832 42.4877 39.3769 42.4386 39.3608 42.3922C39.2192 41.5109 39.043 40.576 38.955 39.6479C39.5459 39.7189 40.1451 39.6689 40.7161 39.5009C41.8915 39.0537 41.9734 37.9373 41.8915 36.8561C41.8915 36.5973 41.8915 36.2328 41.4214 36.3094C41.4214 36.3094 40.5393 36.5567 39.7636 35.3752C40.2214 35.5728 40.7233 35.6457 41.2184 35.5866C42.3295 35.451 41.988 35.0912 41.988 33.9173C42.2452 33.8602 42.509 33.8385 42.7721 33.853Z" fill="#191919"/>
<path d="M12.175 46.8877C12.2404 46.9994 12.3475 47.0806 12.4727 47.1133C12.5979 47.1461 12.731 47.1277 12.8427 47.0623C12.9544 46.9969 13.0355 46.8898 13.0683 46.7646C13.101 46.6394 13.0827 46.5063 13.0173 46.3946C12.3281 45.3303 11.4307 44.9482 10.6665 44.3142C10.0365 43.6739 9.5119 42.9378 9.11214 42.1334C8.70707 41.5461 8.19864 41.6993 8.47736 42.4864C9.2224 44.576 10.191 44.8119 12.175 46.8877Z" fill="#191919"/>
<path d="M14.1694 41.1288C13.9743 39.2733 14.0416 37.3995 14.3693 35.5628C14.4872 34.8829 14.1434 34.7626 13.7812 35.399C13.1901 36.4365 13.0699 40.0078 13.4581 41.2283C13.5852 41.6288 14.1871 41.4397 14.1694 41.1288Z" fill="#191919"/>
<path d="M12.5301 43.2735C11.6426 40.0001 11.8961 38.6953 12.1947 35.5628C12.2299 35.1929 11.7161 35.206 11.6074 35.4923C10.736 37.778 10.9665 41.2222 11.7835 43.4971C11.8312 43.5709 11.9016 43.6272 11.984 43.6575C12.0665 43.6879 12.1565 43.6907 12.2407 43.6655C12.3248 43.6403 12.3986 43.5884 12.4507 43.5178C12.5029 43.4471 12.5308 43.3614 12.5301 43.2735Z" fill="#191919"/>
<path d="M16.2088 40.7934C16.2115 39.4321 16.3373 38.0738 16.5847 36.7351C16.721 36.0291 16.3091 35.6072 15.9323 36.5054C15.5091 37.8667 15.3399 39.2943 15.4331 40.7168C15.4913 41.6548 16.1996 41.7636 16.2088 40.7934Z" fill="#191919"/>
<path d="M18.9706 46.2943C19.1314 43.9144 17.7922 42.4504 18.2953 38.6547C18.3535 38.2137 17.9124 37.8683 17.6666 38.6547C16.8802 41.1739 17.9997 44.1457 18.2539 46.2353C18.3328 46.8869 18.9132 47.1228 18.9706 46.2943Z" fill="#191919"/>
<path d="M78.6091 79.7874C76.9298 79.2718 75.3997 78.3584 74.1489 77.125C72.5064 75.2451 71.6909 78.6847 78.4039 80.4175C78.4875 80.4448 78.5785 80.4377 78.6568 80.3978C78.7351 80.358 78.7944 80.2886 78.8216 80.2051C78.8488 80.1215 78.8417 80.0305 78.8019 79.9522C78.762 79.8739 78.6927 79.8146 78.6091 79.7874Z" fill="#191919"/>
<path d="M77.2049 81.0562C75.6934 80.5779 74.242 79.9271 72.8794 79.1166C72.6497 78.9781 72.0134 79.1932 72.5386 79.7629C73.8465 80.7901 75.4007 81.4567 77.0464 81.6963C77.8864 81.7094 77.9163 81.2423 77.2049 81.0562Z" fill="#191919"/>
<path d="M70.135 75.9963C69.9643 76.3424 70.4658 76.762 70.7231 76.4129C72.1542 74.4748 75.0249 75.8256 76.8052 74.5093C76.9101 74.4453 76.9853 74.3423 77.0144 74.2229C77.0434 74.1035 77.0239 73.9774 76.9601 73.8724C76.8964 73.7673 76.7935 73.6919 76.6742 73.6626C76.5548 73.6333 76.4287 73.6525 76.3235 73.716C74.4537 74.7773 71.2338 73.7627 70.135 75.9963Z" fill="#191919"/>
<path d="M72.6265 74.0507C73.0912 73.9978 73.3049 73.7352 73.1318 73.4634C72.8807 73.0667 71.8852 73.2888 71.3707 73.3692C70.3584 73.5223 69.399 73.4565 69.3668 73.9159C69.3094 74.7023 71.5391 74.1747 72.6265 74.0507Z" fill="#191919"/>
<path d="M73.2325 83.0485C70.9561 82.1946 68.7344 81.2014 66.58 80.0745C66.2928 79.9259 65.7377 80.1212 66.2798 80.6618C67.1504 81.5255 71.7279 83.4069 73.0181 83.6006C73.3091 83.6006 73.5549 83.1672 73.2325 83.0485Z" fill="#191919"/>
<path d="M76.2231 82.3258C74.462 81.8426 73.6197 81.7944 71.8586 80.7859C71.4703 80.5631 71.0699 81.0991 71.4527 81.3732C72.8278 82.3544 74.4655 82.9009 76.1542 82.9422C76.222 82.9287 76.2836 82.894 76.3304 82.8431C76.3771 82.7923 76.4064 82.7278 76.4141 82.6592C76.4217 82.5905 76.4074 82.5212 76.373 82.4613C76.3387 82.4014 76.2862 82.3539 76.2231 82.3258Z" fill="#191919"/>
<path d="M116.82 36.1095C116.82 38.5192 117.99 39.4342 119.13 41.2933C119.528 41.9411 120.119 41.5996 120.023 41.1517C119.757 39.9051 117.943 39.3239 117.479 36.0742C117.471 35.9895 117.43 35.9112 117.366 35.8557C117.301 35.8001 117.218 35.7717 117.133 35.7762C117.048 35.7808 116.968 35.818 116.91 35.8801C116.851 35.9422 116.819 36.0244 116.82 36.1095Z" fill="#191919"/>
<path d="M122.222 34.9756C122.463 32.9464 121.529 29.5658 120.553 27.859C120.509 27.7789 120.436 27.7189 120.348 27.6918C120.261 27.6647 120.167 27.6725 120.085 27.7136C120.004 27.7548 119.941 27.826 119.911 27.9123C119.881 27.9985 119.886 28.0931 119.924 28.176C120.84 30.3097 121.314 32.6069 121.317 34.9289C121.302 35.6517 122.132 35.7505 122.222 34.9756Z" fill="#191919"/>
<path d="M126.19 41.0522C125.609 37.9242 126.131 32.235 125.249 29.4455C125.127 29.0573 124.407 28.8574 124.556 29.5925C125.354 33.4211 124.672 37.3791 125.302 41.1288C125.395 41.687 126.295 41.628 126.19 41.0522Z" fill="#191919"/>
<path d="M123.92 35.2573C124.331 34.0467 123.573 29.7748 123.185 28.6813C122.797 27.5879 122.057 27.5327 122.439 29.0343C122.938 31.0484 123.177 33.1181 123.15 35.193C123.169 35.2767 123.214 35.3522 123.279 35.4085C123.344 35.4648 123.426 35.499 123.511 35.5062C123.597 35.5133 123.683 35.4931 123.756 35.4484C123.83 35.4036 123.887 35.3367 123.92 35.2573Z" fill="#191919"/>
<path d="M118.201 29.4219C119.337 31.8265 119.736 34.5131 119.35 37.1441C119.263 37.7314 120.142 37.8953 120.225 37.3263C120.65 34.5021 120.153 31.616 118.806 29.0972C118.763 29.017 118.69 28.9572 118.603 28.9309C118.516 28.9046 118.422 28.914 118.342 28.9571C118.261 29.0001 118.202 29.0733 118.175 29.1604C118.149 29.2476 118.158 29.3416 118.201 29.4219Z" fill="#191919"/>
<path d="M113.136 27.4003C111.534 24.3956 107.47 24.0235 104.539 24.9906C101.712 25.9217 100.623 29.2579 100.424 31.99C100.241 34.5061 100.38 38.4557 101.13 40.5116C101.394 41.3985 101.914 42.1877 102.625 42.7805C103.336 43.3732 104.206 43.7431 105.126 43.844V45.9114C105.138 45.9972 105.18 46.0758 105.246 46.1327C105.311 46.1896 105.395 46.2209 105.482 46.2209C105.568 46.2209 105.652 46.1896 105.717 46.1327C105.783 46.0758 105.825 45.9972 105.837 45.9114C105.914 45.2223 105.925 44.5247 105.967 43.831C107.365 43.6778 109.381 42.5438 109.745 41.0691C109.772 40.9917 109.768 40.907 109.733 40.8328C109.699 40.7587 109.636 40.7009 109.56 40.6718C109.483 40.6427 109.399 40.6446 109.323 40.677C109.248 40.7094 109.189 40.7699 109.157 40.8455C107.912 43.5255 102.793 44.3187 101.571 38.9358C100.958 34.9832 100.58 28.6698 103.815 26.3359C105.536 25.0947 110.838 24.7279 112.413 27.8582C113.099 29.5841 113.115 31.5036 112.46 33.2412C112.053 33.1198 111.616 33.1534 111.233 33.3356C110.85 33.5177 110.548 33.8355 110.386 34.2274C110.179 34.5911 110.674 34.9571 110.922 34.6156C112.649 32.2159 113.567 37.2956 111.773 37.3362C111.556 37.3416 110.757 37.0077 110.757 37.6425C110.757 37.9717 111.098 38.1892 111.397 38.2658C111.336 40.4367 111.613 42.604 112.22 44.6894C112.248 44.7799 112.31 44.8559 112.393 44.9011C112.476 44.9462 112.574 44.9568 112.665 44.9305C112.756 44.9043 112.833 44.8433 112.879 44.7608C112.926 44.6783 112.938 44.5809 112.913 44.4895C112.481 42.4375 112.214 40.3542 112.115 38.2596C113.989 37.8247 113.83 34.9334 113.178 33.8759C113.647 33.3415 114.496 29.9494 113.136 27.4003Z" fill="#191919"/>
<path d="M107.353 36.9839C107.225 36.3959 106.702 36.3438 106.466 36.7312C106.18 37.156 105.784 37.4954 105.32 37.7136C104.857 37.9318 104.343 38.0207 103.833 37.9709C103.533 37.9709 103.412 38.2405 103.533 38.559C104.597 41.3485 108.098 40.4151 107.353 36.9839ZM106.701 37.683C106.76 39.5874 105.22 40.0866 104.379 38.7466C104.817 38.7317 105.248 38.6302 105.646 38.4479C106.045 38.2656 106.403 38.0062 106.701 37.6846V37.683Z" fill="#191919"/>
<path d="M105.473 35.0046C106.06 34.964 106.009 33.2656 105.314 33.4418C104.754 33.5842 104.785 35.0521 105.473 35.0046Z" fill="#191919"/>
<path d="M102.205 33.4617C101.618 33.5758 101.494 34.9825 102.205 34.9488C102.839 34.9166 102.74 33.3553 102.205 33.4617Z" fill="#191919"/>
<path d="M106.511 31.2143C105.056 30.8024 104.566 32.1079 105.559 32.0076C105.776 31.9552 106.002 31.9568 106.219 32.0122C106.435 32.0676 106.634 32.1751 106.799 32.3254C107.693 33.1416 108.164 31.6837 106.511 31.2143Z" fill="#191919"/>
<path d="M102.587 31.2495C102.389 31.2501 102.195 31.2966 102.018 31.3854C101.842 31.4742 101.689 31.6028 101.571 31.761C101.241 32.1309 101.571 32.5543 101.835 32.307C101.939 32.1867 102.071 32.095 102.221 32.0406C102.37 31.9862 102.53 31.9709 102.687 31.9961C103.169 32.0367 103.381 31.248 102.587 31.2495Z" fill="#191919"/>
<path d="M104.774 37.0268C105.103 36.9235 105.196 36.3928 104.774 36.3974C104.357 36.4053 103.941 36.366 103.533 36.2803C103.709 35.2749 104.093 33.9265 103.833 33.794C103.359 33.5536 102.815 35.8277 102.758 36.2274C102.578 37.4786 104.58 37.0866 104.774 37.0268Z" fill="#191919"/>
<path d="M101.699 108.283C103.869 109.118 107.206 109.547 110.744 109.718C109.902 105.43 108.896 100.509 108.846 96.2005C108.841 95.7955 109.428 95.6722 109.475 96.0948C110.012 100.7 110.852 105.264 111.99 109.758C115.875 109.881 119.765 109.775 123.638 109.441C123.956 105.751 124.378 93.3567 124.613 83.6826C117.798 86.4683 105.22 86.3511 97.8677 84.2707C98.8141 92.5687 100.295 101.866 101.699 108.283Z" fill="#191919"/>
<path d="M34.204 97.4992C33.4659 97.6022 32.7183 97.6182 31.9765 97.5466C34.4607 102.637 36.5944 107.892 38.3626 113.273C40.966 121.888 43.2877 138.597 43.4347 141.411C44.2693 141.858 52.1791 141.635 54.1248 141.411C54.1248 139.519 55.2818 118.182 54.7121 110.4C54.4058 106.251 52.7213 93.5864 51.4035 84.1007C42.5472 86.7631 30.8349 86.881 22.131 83.3427C22.8063 94.127 23.9779 104.289 21.8132 110.235C18.6857 117.999 14.9808 125.516 10.7295 132.726C11.1767 133.285 16.9119 136.84 20.1975 138.744C29.7177 125.344 35.2055 117.376 36.9996 112.527C35.4523 107.342 33.4726 102.296 31.0814 97.4425C30.113 97.2819 29.1624 97.0281 28.2429 96.6845C27.896 96.5543 27.9152 95.9096 28.4657 96.0964C30.3281 96.6981 32.281 96.9707 34.2369 96.9019C34.6274 96.892 34.704 97.4272 34.204 97.4992Z" fill="#191919"/>
<path d="M18.8366 138.747C18.7765 138.647 18.6791 138.575 18.5657 138.547C18.4523 138.518 18.3323 138.536 18.2321 138.596C18.1319 138.656 18.0597 138.754 18.0313 138.867C18.0029 138.981 18.0208 139.101 18.0809 139.201C18.1276 139.277 23.0787 147.196 22.6216 147.692C22.0289 148.334 9.87702 140.567 8.82799 138.876C8.16028 137.799 10.0577 136.531 11.3257 134.857C11.6274 134.459 11.1129 133.825 10.7032 134.181C9.78919 135.007 8.96924 135.931 8.2583 136.937C6.63422 139.141 9.01712 140.558 10.5677 141.721C13.5075 143.906 16.5965 145.884 19.8122 147.639C21.6093 148.63 24.7893 149.712 23.1813 146.275C21.9338 143.655 20.481 141.138 18.8366 138.747Z" fill="#191919"/>
<path d="M61.7662 146.098C59.1965 144.622 56.5189 143.342 53.7561 142.27C53.6926 142.243 53.6243 142.229 53.5553 142.229C53.4864 142.229 53.4181 142.243 53.3545 142.269C53.2909 142.296 53.2333 142.335 53.185 142.384C53.1367 142.434 53.0987 142.492 53.0732 142.556C53.0477 142.62 53.0353 142.689 53.0366 142.758C53.038 142.827 53.0531 142.895 53.081 142.958C53.1089 143.021 53.1492 143.077 53.1994 143.125C53.2495 143.172 53.3087 143.209 53.3733 143.233C55.4641 144.058 57.5172 144.976 59.5265 145.983C60.4339 146.437 63.6399 147.888 60.8367 147.958L44.893 148.346C43.0476 148.387 43.0553 148.099 43.4174 146.366C43.6875 145.168 44.0814 144.002 44.5928 142.886C44.7919 142.436 44.0767 142.008 43.8233 142.452C43.2072 143.55 42.7679 144.739 42.5215 145.974C41.7558 149.669 43.3386 149.336 46.2414 149.277L61.3152 148.941C63.6935 148.881 63.669 147.408 61.7662 146.098Z" fill="#191919"/>
<path d="M83.7869 131.691C99.4243 134.084 119.699 135.695 135.58 136.798C136.221 136.842 136.22 135.846 135.58 135.802C118.283 134.68 99.298 132.74 83.8635 130.895C83.44 130.847 83.3344 131.622 83.7869 131.691Z" fill="#191919"/>
<path d="M143.796 22.1291C143.709 18.08 143.346 10.8479 138.394 9.92901C137.989 9.85244 137.808 10.5125 138.189 10.6281C142.511 11.9405 142.614 18.4208 142.849 22.2356C142.852 22.2489 142.852 22.2628 142.849 22.2762C143.243 63.2204 144.563 94.679 144.26 134.783C144.224 139.485 142.097 143.911 138.653 145.021C138.312 145.13 138.371 145.767 138.8 145.702C143.318 145.024 145.435 138.844 145.429 134.795C145.372 97.0926 144.648 62.1438 143.796 22.1291Z" fill="#191919"/>
<path d="M105.955 13.6481C103.756 14.0585 104.193 17.9361 106.237 17.7148C108.476 17.4698 108.417 13.1887 105.955 13.6481ZM106.06 14.5945C106.965 14.3778 107.273 16.2324 106.19 16.6512C105.345 16.9782 105.273 14.7829 106.06 14.5945Z" fill="#191919"/>
<path d="M82.6818 23.9507C99.0015 22.113 116.176 19.6198 132.688 17.4858C133.381 17.3962 133.377 16.3096 132.688 16.3985C116.095 18.5501 97.5887 20.8342 82.5524 23.0043C82.0179 23.0816 82.1474 24.0104 82.6818 23.9507Z" fill="#191919"/>
<path d="M138.312 21.8053C138.247 13.2722 138.612 5.47183 127.293 7.2077C114.846 9.11586 101.992 11.5723 89.5754 13.1374C78.8615 14.4851 79.4481 21.7647 79.5025 31.0735C79.5706 42.6978 79.6556 54.0373 79.8018 66.4288C79.8072 66.8576 80.5676 66.8224 80.5599 66.4288C80.3623 53.6582 80.5048 41.1602 80.4956 28.7809C80.4895 20.5212 80.7062 15.3909 89.7691 14.0892C102.431 12.2698 115.069 10.1235 127.722 8.21232C136.044 6.95502 137.262 11.815 137.325 19.3075C137.649 57.6545 138.417 95.9953 138.871 134.342C138.97 142.787 137.148 146.506 128.134 145.261C115.363 143.499 101.395 142.987 89.0172 140.829C81.3777 139.498 81.367 133.777 81.3769 127.595C81.4007 113.308 81.0569 97.6715 80.7896 83.1015C80.7812 82.6313 80.0775 82.7018 80.0783 83.1482C80.1074 97.5643 80.2046 113.431 80.3608 128.112C80.4297 134.621 80.9481 140.535 88.9292 141.811C101.858 143.879 115.022 144.751 128.304 146.277C136.949 147.273 140.096 143.803 140.019 134.853C139.685 97.1347 138.602 59.47 138.312 21.8053Z" fill="#191919"/>
<path d="M126.741 42.0278C125.184 41.9512 120.917 42.8096 119.43 43.1388C119.186 48.1607 119.679 53.1912 120.893 58.0702C121 58.434 120.381 58.535 120.259 58.1996C119.045 54.8764 118.543 49.8832 118.366 46.3043C117.037 45.4878 115.572 44.9172 114.041 44.6197C112.595 45.3716 108.382 49.6619 106.672 50.2554C105.631 49.5088 104.911 48.6918 103.915 46.024C97.245 47.9513 92.1086 57.9538 89.8811 60.9631C87.6536 63.9724 83.4813 67.4717 77.0171 72.4756C78.555 74.5963 79.7453 76.9485 80.5432 79.4436C86.1931 77.2782 91.4455 74.1923 96.0872 70.3109C96.3654 65.5017 97.0087 60.7206 98.0114 56.0089C98.114 55.538 98.7006 55.633 98.5995 56.097C96.9479 66.4403 96.66 72.7283 97.7572 83.1014C104.91 85.2225 118.049 85.322 124.667 82.4253C124.756 78.3586 124.808 74.9029 124.797 72.9634C121.494 71.6938 117.738 64.7924 116.205 61.7977C116.039 61.4746 116.488 61.1675 116.686 61.4746C118.343 64.0298 122.416 71.2137 125.285 72.0177C127.723 72.7007 130.437 70.8776 130.956 67.4923C131.518 63.8552 128.374 44.9076 126.741 42.0278Z" fill="#38A1FF"/>
<path d="M56.6297 62.4057C54.792 59.3137 48.5545 44.4397 39.9923 43.1411C36.47 44.8103 31.8061 45.0339 30.1958 42.8531C24.2485 44.1319 21.0952 50.6428 19.8318 56.0204C19.7254 56.4729 19.1205 56.3963 19.2437 55.9384C19.5943 54.1098 20.1361 52.323 20.8602 50.6075C20.6718 49.9437 20.4306 49.0386 20.0784 47.599C18.8532 47.2637 14.0131 47.7108 12.1739 48.0983C11.3952 61.0274 14.5216 69.366 16.4083 71.876C17.2046 72.9358 19.3471 73.4924 21.0332 73.3309C21.1096 66.1086 22.079 58.9235 23.9192 51.9391C23.9364 51.8691 23.9806 51.8087 24.0423 51.7713C24.104 51.7339 24.178 51.7225 24.2481 51.7396C24.3181 51.7568 24.3785 51.8011 24.4159 51.8628C24.4533 51.9244 24.4647 51.9985 24.4475 52.0685C22.0195 62.009 21.5095 71.9771 22.0968 82.1374C28.2447 85.1466 40.9793 86.1512 51.2874 82.9421C50.7881 79.3578 50.3593 76.3309 50.112 74.5445C44.1693 69.9502 42.4924 68.5551 39.0987 60.7456C38.928 60.352 39.4104 60.0932 39.6102 60.4807C41.3714 63.8965 43.1248 67.4578 46.0751 69.9663C51.6133 74.9167 58.1191 78.663 65.1805 80.9681C65.8433 78.065 67.1983 75.3652 69.13 73.0989C67.7487 72.1586 57.8763 64.506 56.6297 62.4057Z" fill="#38A1FF"/>
<path d="M92.6957 111.698C84.3211 111.698 85.6443 128.049 93.1552 128.535C101.7 129.089 100.312 111.698 92.6957 111.698ZM91.6444 115.977C92.0885 114.714 93.5717 114.701 93.9952 116.117C94.2302 116.905 94.3359 119.902 93.9301 120.707C93.8109 120.886 93.6474 121.031 93.4555 121.128C93.2637 121.225 93.05 121.271 92.8353 121.261C92.6205 121.251 92.412 121.185 92.2301 121.071C92.0481 120.956 91.8988 120.797 91.7968 120.608C91.332 119.772 91.2998 116.953 91.6444 115.977ZM93.2072 123.675C93.2425 124.357 93.2072 125.009 93.3014 125.726C93.3956 126.442 92.4905 126.367 92.3826 125.814C92.292 125.085 92.2626 124.35 92.2945 123.616C89.7906 123.117 89.5111 120.017 89.7439 118.209C89.7853 117.886 90.3963 117.84 90.4139 118.209C90.5012 120.047 90.3021 122.324 92.7057 122.651C95.1093 122.977 95.1828 119.672 95.1506 118.061C95.1384 117.438 95.8842 117.474 95.9163 118.061C96.0205 120.19 96.0457 123.451 93.2072 123.675Z" fill="#38A1FF"/>
<path d="M107.576 112.55C98.76 112.829 99.7968 128.681 107.329 129.558C116.84 130.665 116.056 112.283 107.576 112.55ZM107.711 123.769C107.165 124.169 104.044 123.628 103.697 123.211C103.174 122.582 103.168 119.291 103.609 118.897C104.05 118.503 107.769 119.109 108.011 119.626C108.207 120.045 108.164 123.455 107.7 123.792L107.711 123.769ZM110.996 125.003C110.344 125.003 108.763 122.106 108.757 121.694C108.751 121.282 110.802 118.803 111.361 118.985C111.778 119.15 111.496 125.009 110.985 125.027L110.996 125.003Z" fill="#38A1FF"/>
<path d="M122.856 113.519C114.322 113.156 114.081 130.548 123.202 130.671C131.801 130.784 132.124 113.915 122.856 113.519ZM127.716 122.076C127.84 122.476 127.757 123.899 127.246 124.268C126.27 124.607 125.201 124.559 124.26 124.134C124.003 123.909 124.107 122.688 124.124 122.494C124.226 121.543 120.892 121.624 120.993 122.417C121.093 123.21 121.039 123.815 120.81 123.969C120.48 124.191 118.753 124.286 118.3 123.798C118.011 123.119 117.955 122.362 118.142 121.647C119.728 118.745 126.887 119.255 127.727 122.076H127.716Z" fill="#38A1FF"/>
<path d="M68.7009 7.73366C68.3318 7.47944 67.8793 8.03228 68.2016 8.32172C68.9995 9.03843 73.0792 12.635 74.0785 13.0232C74.15 13.0415 74.2253 13.0387 74.2953 13.0152C74.3653 12.9917 74.4269 12.9484 74.4729 12.8906C74.5189 12.8329 74.5471 12.763 74.5543 12.6895C74.5615 12.6161 74.5473 12.5421 74.5134 12.4765C73.9491 11.6089 69.5677 8.33244 68.7009 7.73366Z" fill="#38A1FF"/>
<path d="M80.1701 9.03537C80.2306 8.44883 78.9312 4.76498 78.6893 4.0521C78.6485 3.97348 78.5832 3.91024 78.5034 3.87188C78.4236 3.83352 78.3335 3.82212 78.2466 3.83939C78.1597 3.85666 78.0808 3.90167 78.0217 3.96765C77.9626 4.03362 77.9266 4.117 77.9189 4.20524C77.9258 5.12793 78.8592 8.67165 79.5178 9.25896C79.5684 9.31017 79.6324 9.34606 79.7026 9.36251C79.7727 9.37896 79.846 9.3753 79.9141 9.35195C79.9823 9.32861 80.0424 9.28651 80.0877 9.23051C80.133 9.17451 80.1616 9.10687 80.1701 9.03537Z" fill="#38A1FF"/>
<path d="M71.7276 19.4077C71.2222 19.1313 66.8852 19.5839 66.18 19.7722C66.0958 19.8004 66.0232 19.8553 65.9733 19.9286C65.9233 20.0019 65.8988 20.0896 65.9034 20.1782C65.908 20.2668 65.9415 20.3514 65.9988 20.4191C66.0561 20.4869 66.134 20.534 66.2205 20.5533C66.7144 20.6069 71.2337 20.5004 71.7567 20.1007C71.8148 20.0622 71.8621 20.0093 71.8938 19.9472C71.9255 19.885 71.9406 19.8157 71.9377 19.746C71.9348 19.6763 71.9139 19.6085 71.8771 19.5493C71.8403 19.49 71.7888 19.4413 71.7276 19.4077Z" fill="#38A1FF"/>
</svg>
